<svg xmlns="http://www.w3.org/2000/svg" width="30" height="30"><defs><linearGradient id="a" x1="645.118" x2="654.085" y1="762.671" y2="770.083" gradientTransform="scale(.0293)" gradientUnits="userSpaceOnUse"><stop offset="0" style="stop-color:#58778c;stop-opacity:1"/><stop offset="1" style="stop-color:#6b8c9c;stop-opacity:1"/></linearGradient><linearGradient id="b" x1="388.634" x2="390.378" y1="112.846" y2="118.192" gradientTransform="scale(.0293)" gradientUnits="userSpaceOnUse"><stop offset="0" style="stop-color:#67737c;stop-opacity:1"/><stop offset="1" style="stop-color:#84898a;stop-opacity:1"/></linearGradient><linearGradient id="c" x1="511.211" x2="539.291" y1="98.558" y2="100.409" gradientTransform="scale(.0293)" gradientUnits="userSpaceOnUse"><stop offset="0" style="stop-color:#507179;stop-opacity:1"/><stop offset="1" style="stop-color:#93908f;stop-opacity:1"/></linearGradient><linearGradient id="d" x1="570.493" x2="554.728" y1="131.524" y2="115.714" gradientTransform="scale(.0293)" gradientUnits="userSpaceOnUse"><stop offset="0" style="stop-color:#364f60;stop-opacity:1"/><stop offset="1" style="stop-color:#526974;stop-opacity:1"/></linearGradient><linearGradient id="e" x1="353.939" x2="340.086" y1="547.267" y2="544.125" gradientTransform="scale(.0293)" gradientUnits="userSpaceOnUse"><stop offset="0" style="stop-color:#4a768d;stop-opacity:1"/><stop offset="1" style="stop-color:#8da9b4;stop-opacity:1"/></linearGradient><linearGradient id="f" x1="592.427" x2="599.517" y1="319.242" y2="308.878" gradientTransform="scale(.0293)" gradientUnits="userSpaceOnUse"><stop offset="0" style="stop-color:#5a8d99;stop-opacity:1"/><stop offset="1" style="stop-color:#859fb7;stop-opacity:1"/></linearGradient><linearGradient id="g" x1="407.981" x2="394.641" y1="183.489" y2="173.343" gradientTransform="scale(.0293)" gradientUnits="userSpaceOnUse"><stop offset="0" style="stop-color:#6f797c;stop-opacity:1"/><stop offset="1" style="stop-color:#8a8a8a;stop-opacity:1"/></linearGradient></defs><path d="M0 0h30v30H0z" style="fill:#fefefe;fill-opacity:1;stroke:none"/><path d="M10.375 3.383c.063.062.129.117.195.176-.441.296-.691.738-.793 1.253-.027.145.008.344-.03.473a3 3 0 0 0-.192.098c-.063.035-.13.066-.192.101l-.187.106c-.063.035-.121.074-.184.11q-.094.055-.183.112c-.063.04-.121.079-.184.118l-.176.117c-.062.043-.12.082-.18.125-.058.043-.117.082-.171.125q-.09.064-.172.133a5 5 0 0 0-.172.133c-.055.042-.11.09-.164.132a3 3 0 0 0-.164.14l-.164.142-.16.148a5 5 0 0 0-.153.148q-.08.072-.156.149c-.05.05-.098.105-.148.156-.051.05-.098.106-.149.156-.047.055-.098.106-.144.16l-.141.165q-.071.081-.137.164-.072.08-.136.168-.067.082-.133.172l-.13.171q-.058.089-.124.176-.061.088-.121.176-.06.09-.117.18c-.04.062-.079.12-.118.183q-.054.089-.11.184c-.034.062-.073.125-.108.187q-.054.094-.102.188a11.7 11.7 0 0 0-.816 1.918q-.047.133-.086.265-.043.135-.078.27c-.024.09-.051.18-.07.273q-.037.135-.067.27l-.059.277c-.02.09-.035.184-.05.274l-.047.277-.036.277q-.018.142-.03.278-.013.14-.024.281c-.008.094-.012.187-.02.281a6 6 0 0 0-.008.278q-.005.14-.004.28-.001.142.004.282 0 .142.012.277.005.141.016.282l.023.28q.016.136.031.278.017.139.04.278.018.138.042.277c.016.09.036.184.055.273q.024.14.059.274.029.14.062.273c.024.09.047.184.074.274q.036.136.079.265.04.135.086.27.041.133.09.265.045.131.097.262l.105.258q.056.129.11.258.058.13.117.254.063.13.125.254.077.153.16.3.083.152.172.297c.055.098.117.196.176.293a18 18 0 0 0 .383.57c.066.09.132.184.199.274l.21.27.22.265a13 13 0 0 0 .457.508q.121.124.242.242.123.122.246.238.124.116.254.23.128.113.261.224.13.107.266.214l.27.207c.343.254.718.457 1.066.7-.09.543-.125 1.105-.035 1.652-2.621-1.277-4.633-3.395-5.922-5.992a11 11 0 0 1-.402-.942c-.051-.128-.098-.261-.145-.39a16 16 0 0 1-.133-.395l-.117-.398a8 8 0 0 1-.105-.403c-.035-.136-.063-.27-.094-.406q-.042-.204-.078-.406c-.028-.137-.047-.273-.067-.41a14.87 14.87 0 0 1-.098-.828c-.011-.137-.019-.278-.027-.414a8 8 0 0 1-.011-.418c-.004-.137-.004-.278-.004-.414l.011-.414q.011-.21.028-.418.014-.205.039-.415.02-.204.05-.41c.118-.84.337-1.672.606-2.472a11 11 0 0 1 .504-1.22q.082-.169.168-.339.083-.169.172-.332c.062-.11.121-.219.187-.328.063-.11.125-.215.192-.324q.098-.159.203-.317.105-.157.21-.308.113-.158.224-.305.112-.152.23-.3c.074-.098.156-.196.234-.29q.122-.145.25-.285.124-.14.254-.277.128-.135.262-.27l.27-.262q.135-.126.277-.253.14-.124.285-.247c.098-.078.191-.16.293-.234.492-.387 1.023-.73 1.566-1.043.336-.195.7-.379 1.059-.539.242-.105.496-.195.73-.312ZM16.96 2.555q.164.029.321.062a8 8 0 0 1 .637.145q.157.04.316.086c.106.027.207.058.313.09q.157.047.308.101c.106.031.207.07.31.106.105.039.206.074.308.113q.15.06.3.125.151.059.301.129c.098.043.2.09.297.136.098.043.195.094.293.141.098.05.191.102.29.152q.141.075.284.157l.282.164q.14.082.277.172.14.088.273.175.141.094.27.188.136.093.265.187.134.1.262.2.13.098.254.203c.086.07.168.136.25.21q.123.105.246.215.122.106.238.22c.082.073.16.152.235.226q.118.117.23.234.112.116.223.238.112.119.219.243.105.122.21.25c.071.082.137.168.208.254q.1.123.199.257c.062.086.129.172.191.262q.093.129.18.258.089.133.172.266c.055.09.113.175.168.27.05.089.105.179.156.269q.082.136.156.277.073.136.145.277l.14.282c.043.097.09.19.133.289q.063.14.125.289.06.14.117.289.059.15.11.297c.039.097.07.199.105.296q.052.151.098.301l.09.301q.042.152.078.305c.027.101.05.203.078.308.024.102.043.203.067.305l.058.313c.02.101.035.207.05.308.017.106.032.207.044.313q.022.158.039.312c.008.106.02.211.027.316l.024.313.011.316c.004.106.004.207.004.313.004.105 0 .21 0 .316q-.001.159-.008.317-.009.156-.019.312l-.023.317c-.012.101-.02.207-.036.312a9 9 0 0 1-.039.313q-.022.156-.047.312c-.585 3.418-2.367 6.453-5.222 8.469a16 16 0 0 1-.957.637c-.09-.493-.215-.98-.34-1.461a1 1 0 0 1 .137-.137.23.23 0 0 0 .097-.05q.122-.084.239-.173.122-.086.238-.18.115-.088.23-.183l.227-.187q.11-.101.223-.196l.214-.203q.106-.1.211-.207.106-.105.207-.21.1-.107.2-.22.1-.106.195-.218.098-.116.191-.23c.063-.075.121-.153.184-.231l.176-.235c.058-.082.117-.16.172-.242q.087-.123.164-.246.082-.123.16-.246c.054-.086.105-.168.152-.254q.077-.129.149-.258l.14-.262c.043-.085.09-.171.133-.261a15 15 0 0 0 .246-.54c.04-.09.074-.179.113-.273l.106-.273c.031-.094.066-.188.097-.281q.049-.136.09-.278.047-.145.086-.285.043-.142.078-.285.036-.142.07-.29c.02-.093.044-.19.063-.284q.031-.147.055-.293c.015-.098.035-.196.047-.29q.024-.14.043-.277l.035-.277q.01-.141.027-.281.01-.136.02-.278l.011-.28c.004-.095.008-.184.008-.278v-.281q-.004-.141-.008-.282-.004-.135-.015-.277-.007-.141-.02-.281-.01-.136-.027-.278l-.035-.277q-.02-.14-.043-.277c-.012-.09-.031-.184-.047-.274-.016-.094-.035-.183-.055-.277q-.029-.135-.062-.27-.03-.139-.067-.273-.035-.135-.078-.27-.034-.136-.082-.265-.04-.136-.086-.266l-.093-.265c-.036-.086-.067-.172-.102-.262q-.051-.129-.11-.258c-.035-.086-.074-.168-.113-.254a8 8 0 0 0-.12-.254 8 8 0 0 0-.126-.25q-.063-.123-.133-.246l-.136-.242-.145-.238q-.075-.122-.152-.239-.076-.118-.156-.23c-.051-.078-.106-.152-.16-.23l-.13-.176-.136-.172c-.043-.059-.09-.114-.133-.172q-.07-.082-.14-.168l-.141-.164q-.074-.083-.149-.164l-.297-.317-.156-.156a3 3 0 0 0-.156-.148c-.05-.051-.106-.102-.16-.153q-.078-.072-.16-.144c-.055-.047-.11-.098-.164-.145a5 5 0 0 0-.168-.136c-.055-.047-.114-.094-.168-.141q-.089-.067-.176-.133l-.172-.129q-.087-.064-.18-.129c-.058-.043-.117-.082-.176-.125-.062-.039-.12-.082-.183-.12l-.184-.118q-.095-.06-.183-.113a3 3 0 0 0-.192-.114l-.187-.105c-.063-.035-.13-.07-.192-.106l-.195-.101q-.095-.048-.195-.098-.096-.046-.196-.093-.099-.046-.199-.09t-.199-.086l-.203-.082a4 4 0 0 0-.203-.078c-.617-.239-1.242-.438-1.895-.54.082-.113.16-.218.207-.351.149-.402-.027-.754-.195-1.113m0 0" style="stroke:none;fill-rule:nonzero;fill:#0d4b72;fill-opacity:1"/><path d="M16.95 4.02c.652.101 1.277.3 1.894.539q.1.035.203.078l.203.082q.1.042.2.086.099.044.198.09.101.046.196.093.1.05.195.098l.195.101c.063.036.13.07.192.106l.187.105q.1.055.192.114l.183.113q.095.06.184.117.092.061.183.121c.06.043.118.082.176.125q.093.064.18.13.089.063.172.128.087.067.176.133c.054.047.113.094.168.14.054.043.113.09.168.137.054.047.109.098.164.145q.082.072.16.144c.054.051.11.102.16.153q.081.071.156.148l.156.156q.077.079.149.157l.148.16q.074.082.149.164l.14.164q.07.086.141.168c.043.058.09.113.133.172l.137.172.128.175q.084.117.16.23.082.113.157.231l.152.239.145.238.136.242a8 8 0 0 1 .258.496c.043.086.082.168.121.254.04.086.078.168.114.254q.058.129.109.258c.035.09.066.176.102.261q.046.133.093.266.047.13.086.266.047.13.082.265.043.135.078.27.037.134.067.273.034.135.062.27c.02.094.04.183.055.277.016.09.035.184.047.274q.024.138.043.277l.035.277q.017.142.027.278.013.14.02.28.011.143.015.278.004.141.008.282v.28c0 .095-.004.184-.008.278l-.011.281q-.01.142-.02.278-.017.14-.027.281l-.035.277q-.02.136-.043.278c-.012.093-.032.191-.047.289q-.025.146-.055.293c-.02.093-.043.191-.062.285l-.07.289q-.036.142-.079.285-.04.14-.086.285a6 6 0 0 1-.09.278c-.03.093-.066.187-.097.28-.035.09-.07.184-.106.274q-.057.14-.113.274-.058.139-.121.273l-.125.266c-.043.09-.09.176-.133.261l-.14.262q-.072.129-.149.258a4 4 0 0 1-.152.254q-.078.123-.16.246-.077.123-.164.246c-.055.082-.114.16-.172.242l-.176.235c-.063.078-.121.156-.184.23a10 10 0 0 1-.386.45q-.1.112-.2.218-.1.105-.207.211-.105.106-.21.207l-.215.203q-.112.096-.223.195-.113.094-.227.188-.115.095-.23.184a5 5 0 0 1-.238.18 5 5 0 0 1-.239.171.23.23 0 0 1-.097.05l.851-1.12c.18-.281.387-.547.567-.828.265-.414 1.117-1.844 1.132-2.29.047-1.331-2.406-7.785-3.273-8.73a4 4 0 0 0-1.16-.652c-.043-.016-.121-.035-.137-.074l.027-.067c.02-.097.04-.191.04-.289 0-.465-.333-.812-.637-1.12-.106-.099-.242-.18-.328-.298-.059-.074-.075-.187-.118-.273-.082-.164-.238-.313-.367-.446a3.5 3.5 0 0 0-.847-.578c-.106-.05-.383-.113-.446-.191q-.007-.005-.008-.016c0-.05.211-.23.25-.304.028-.051.036-.122.047-.18l.137-.082c.043-.07.074-.145.102-.223.074-.207.25-.972.136-1.168-.074-.129-.515-.097-.652-.133.012-.093.027-.199.016-.293-.032-.277-.344-.937-.446-1.25.137-.054.258-.117.383-.19.106-.083.184-.188.29-.27m0 0" style="stroke:none;fill-rule:nonzero;fill:#fefefe;fill-opacity:1"/><path d="M23.105 7.836c.344.305.747.824 1.008 1.2-.62.331-1.265.624-1.902.929l-2.813 1.36c.02-.098.04-.192.04-.29 0-.465-.333-.812-.637-1.12.398-.165.789-.368 1.176-.556l2.445-1.183c.23-.11.453-.235.683-.34M16.66 4.29l.02.007c.14.047.297.07.441.105q.452.113.899.254c1.164.367 2.257.883 3.257 1.586.293.207.567.438.852.656-.332.141-.652.309-.98.465L18.78 8.508c-.265.125-.523.273-.793.39a3.5 3.5 0 0 0-.847-.578c-.106-.05-.383-.113-.446-.191q-.007-.005-.008-.016c0-.05.211-.23.25-.304.028-.051.036-.122.047-.18l.137-.082c.043-.07.074-.145.102-.223.074-.207.25-.972.136-1.168-.074-.129-.515-.097-.652-.133.012-.093.027-.199.016-.293-.032-.277-.344-.937-.446-1.25.137-.054.258-.117.383-.19M20.668 12.117a66 66 0 0 0 2.484-1.199l.938-.465c.226-.117.457-.25.695-.332.285.582.574 1.176.774 1.793.738 2.258.73 4.98-.043 7.227-.055.16-.118.316-.18.476a17 17 0 0 1-.195.465 12 12 0 0 1-.457.906q-.124.222-.254.438c-.09.144-.18.289-.278.426a10 10 0 0 1-.601.816c-.149.184-.317.352-.473.527-.191.211-.543.61-.781.754a.1.1 0 0 1-.055.016c.18-.281.387-.547.567-.828.265-.414 1.117-1.844 1.132-2.29.047-1.331-2.406-7.785-3.273-8.73m0 0" style="stroke:none;fill-rule:nonzero;fill:#c9d1d1;fill-opacity:1"/><path d="M9.29 25.473c-.349-.243-.724-.446-1.067-.7-.09-.07-.18-.136-.27-.207q-.136-.107-.266-.214-.133-.112-.261-.223-.13-.115-.254-.23-.123-.117-.246-.239-.121-.118-.242-.242a13 13 0 0 1-.457-.508l-.22-.265-.21-.27c-.067-.09-.133-.184-.2-.273q-.1-.14-.195-.286-.093-.139-.187-.285c-.059-.097-.121-.195-.176-.293q-.089-.145-.172-.297-.083-.147-.16-.3-.062-.124-.125-.254l-.117-.254q-.054-.129-.11-.258l-.105-.258q-.051-.131-.098-.262c-.03-.09-.062-.175-.09-.265a7 7 0 0 1-.085-.27 5 5 0 0 1-.079-.265c-.027-.09-.05-.184-.074-.274a6 6 0 0 1-.062-.273 3 3 0 0 1-.059-.274q-.03-.136-.055-.273-.023-.14-.043-.277a7 7 0 0 1-.039-.278l-.03-.277-.024-.281q-.011-.141-.016-.282a3 3 0 0 1-.012-.277q-.005-.14-.004-.281-.001-.141.004-.281.001-.142.008-.278.01-.14.02-.281l.023-.281q.013-.136.031-.278l.036-.277.046-.277q.023-.137.051-.274l.059-.277q.03-.135.066-.27c.02-.093.047-.183.07-.273q.036-.135.079-.27c.027-.09.054-.175.086-.265a11.7 11.7 0 0 1 .918-2.106l.109-.187q.054-.095.11-.184c.038-.062.077-.12.117-.183l.117-.18c.039-.059.082-.117.12-.176q.067-.087.126-.176.064-.088.129-.171.067-.09.133-.172c.042-.059.09-.114.136-.168q.066-.083.137-.164l.14-.164q.072-.08.145-.16.074-.078.149-.157c.05-.05.097-.105.148-.156q.075-.077.156-.149.077-.076.153-.148l.16-.148.164-.141a3 3 0 0 1 .164-.14l.164-.133c.059-.047.113-.09.172-.133q.082-.07.172-.133c.054-.043.113-.082.172-.125s.117-.082.18-.125q.087-.06.175-.117l.184-.117c.058-.04.12-.075.183-.114.063-.035.121-.074.184-.11l.187-.105c.063-.035.13-.066.192-.101a3 3 0 0 1 .191-.098l-.004.235c.031.265.028.527.098.789.195.71.691 1.293 1.066 1.914.114.187.207.382.293.586.051.117.114.242.145.367-.871.59-1.781 1.347-1.989 2.437a2.5 2.5 0 0 0 .176 1.559c-.176.183-.36.355-.539.531-.07.067-.137.149-.21.203-.075.164-.095 1.153-.098 1.383.004.578.023 1.16.129 1.73.042.239.085.473.16.7-.121.304-.227.59-.243.918 0 .3.055.511.196.777-.29.66-.438.813-.227 1.531-.129.23-.199.43-.129.696.024.078.059.156.094.234a1.1 1.1 0 0 0-.07.355c-.02.582.285 1.426.511 1.961.098.23.215.454.31.684-.02.078-.04.156-.052.238Zm0 0" style="stroke:none;fill-rule:nonzero;fill:#fefefe;fill-opacity:1"/><path d="M8.676 15.496q-.005-.106.008-.207c.004.578.023 1.16.129 1.73-.106.032-.22.094-.317.145-.297.14-.59.293-.883.441l-1.926.961c-.398.2-.796.422-1.207.598-.187-.434-.293-.93-.402-1.387.281-.156.574-.289.863-.433q.696-.342 1.387-.696l1.45-.738c.292-.144.585-.305.898-.414M5.008 20.484c.18-.097.37-.175.55-.27.66-.335 1.325-.655 1.985-.987.297-.145.902-.508 1.187-.59 0 .3.055.511.196.777-.29.66-.438.813-.227 1.531-.129.23-.199.43-.129.696.024.078.059.156.094.234a1.1 1.1 0 0 0-.07.355c-.02.582.285 1.426.511 1.961.098.23.215.454.31.684-.02.078-.04.156-.052.238-.144-.07-.265-.183-.398-.27a12 12 0 0 1-1.086-.804 8 8 0 0 1-.508-.445 11 11 0 0 1-.484-.473c-.188-.203-.364-.414-.54-.625-.152-.18-.312-.36-.449-.547-.335-.469-.605-.969-.89-1.465M9.742 5.52c.031.265.028.527.098.789.195.71.691 1.293 1.066 1.914.114.187.207.382.293.586.051.117.114.242.145.367-.871.59-1.781 1.347-1.989 2.437a2.5 2.5 0 0 0 .176 1.559c-.176.183-.36.355-.539.531-.07.067-.137.149-.21.203-.153.012-1.555.762-1.798.883q-.955.474-1.898.953c-.399.2-.797.41-1.207.582-.004-.09-.012-.18-.016-.273-.004-.09-.004-.18-.008-.27v-.273q-.001-.14.004-.274 0-.139.012-.273.005-.14.016-.274l.023-.273q.013-.135.031-.27l.036-.273q.02-.135.043-.27c.015-.09.035-.18.05-.269.02-.086.035-.176.055-.266q.032-.136.063-.265l.07-.266q.034-.131.074-.262l.082-.261c.879-2.676 2.809-5.04 5.336-6.317a.7.7 0 0 1-.008-.175m0 0" style="stroke:none;fill-rule:nonzero;fill:#c9d1d1;fill-opacity:1"/><path d="M15.457 1.715c.41-.02.824.094 1.133.375.07.062.14.129.191.207.059.078.106.191.18.258.168.36.344.71.195 1.113-.047.133-.125.238-.207.352-.105.082-.183.187-.289.27a3 3 0 0 1-.383.19c.102.313.414.973.446 1.25.011.094-.004.2-.016.293.137.036.578.004.652.133.114.196-.062.961-.136 1.168a1 1 0 0 1-.102.223l-.137.082c-.011.059-.02.129-.047.18-.039.074-.25.253-.25.304q.001.011.008.016c.063.078.34.14.446.191.324.153.586.348.847.578.13.133.285.282.367.446.043.086.06.199.118.273.086.117.222.2.328.297.304.309.637.656.637 1.121 0 .098-.02.192-.04.29l-.027.066c.016.039.094.058.137.074a4 4 0 0 1 1.16.652c.867.945 3.32 7.399 3.273 8.73-.015.446-.867 1.876-1.132 2.29-.18.281-.387.547-.567.828l-.851 1.12a1 1 0 0 0-.137.138c.125.48.25.968.34 1.46q-.263.148-.532.29c-.18.09-.359.18-.542.261a14 14 0 0 1-1.125.45c-.165.054-.336.097-.504.148l-.262.078q-.066.017-.125.04l-.442.1a14 14 0 0 1-3.195.337c-.336 0-.672-.051-1.004-.043l-.058-.008-.09-.02c-.227-.003-.461-.046-.692-.07l-.132-.023c-.29-.04-.582-.07-.864-.149a14 14 0 0 1-1.425-.39l-.106-.036-.195-.07a9 9 0 0 1-.344-.144l-.348-.149c-.12-.05-.242-.098-.355-.16-.09-.547-.055-1.11.035-1.652l.074-.36c.012-.082.032-.16.051-.238-.094-.23-.21-.453-.309-.684-.226-.535-.53-1.378-.511-1.96.004-.13.027-.239.07-.356-.035-.078-.07-.156-.094-.234-.07-.266 0-.465.13-.696-.212-.718-.063-.87.226-1.53a1.5 1.5 0 0 1-.196-.778c.016-.328.122-.614.243-.918a5 5 0 0 1-.16-.7c-.106-.57-.126-1.152-.13-1.73.005-.23.024-1.219.098-1.383.074-.054.14-.136.211-.203.18-.176.363-.348.54-.531a2.5 2.5 0 0 1-.177-1.559c.207-1.09 1.118-1.847 1.989-2.437-.031-.125-.094-.25-.145-.367a4.6 4.6 0 0 0-.293-.586c-.375-.621-.87-1.203-1.066-1.914-.07-.262-.067-.524-.098-.79l.004-.234c.04-.129.004-.328.031-.473.102-.515.352-.957.793-1.253-.066-.059-.133-.114-.195-.176-.098-.106-.094-.262-.105-.399.125.207.253.297.457.414-.165-.32-.207-.562-.125-.918.07.29.199.473.421.665a1 1 0 0 1 .059-.25c.168-.407.645-.723 1.031-.883.586-.239 1.25-.336 1.875-.223.219.043.434.117.653.164.336.078.675.137 1 .27-.254-.293-.54-.38-.914-.453.421-.028.742-.028 1.12.187.208.082.505.305.59.52.008.02.008.023.012.043l.04.039.03-.012c-.124-.336-.351-.547-.675-.695-.125-.059-.254-.09-.387-.137m0 0" style="stroke:none;fill-rule:nonzero;fill:#011e45;fill-opacity:1"/><path d="M16.04 6.441q-.015-.022-.02-.046l.011-.024a.1.1 0 0 1 .051-.016.12.12 0 0 1 .09.024l-.012.035Zm0 0" style="stroke:none;fill-rule:nonzero;fill:#02173b;fill-opacity:1"/><path d="M12.445 6.723c.059 0 .149-.016.203.004.051.015.055.043.075.085a1.4 1.4 0 0 1-.278-.09m0 0" style="stroke:none;fill-rule:nonzero;fill:#0d4b72;fill-opacity:1"/><path d="m15.16 2.34.086.012c.063.007.129.03.168.086a.16.16 0 0 1 .024.093c-.083-.074-.184-.133-.278-.191m0 0" style="stroke:none;fill-rule:nonzero;fill:#02173b;fill-opacity:1"/><path d="M16.379 8.465c.027-.031.023-.027.066-.035.04.02.063.043.075.086a.14.14 0 0 1-.008.097.3.3 0 0 1-.032.035c-.039-.054-.062-.125-.101-.183M14.543 6.254c.012.062 0 .137-.004.203l-.187.004c.011-.063.14-.16.191-.207m0 0" style="stroke:none;fill-rule:nonzero;fill:#edcbab;fill-opacity:1"/><path d="M10.508 26.758c.047.015.094.027.133.058.023.051.015.079.011.133a.4.4 0 0 1-.14-.054c-.028-.043-.012-.09-.004-.137m0 0" style="stroke:none;fill-rule:nonzero;fill:#325872;fill-opacity:1"/><path d="m19.95 25.98.073-.082c.04.04.106.094.106.153 0 .015 0 .023-.004.039-.031.012-.043.015-.074 0-.04-.024-.074-.074-.102-.11m0 0" style="stroke:none;fill-rule:nonzero;fill:#64767e;fill-opacity:1"/><path d="M13.754 27.527c-.008-.093-.05-.265.012-.336h.027c.039.09.023.239.023.34Zm0 0" style="stroke:none;fill-rule:nonzero;fill:#325872;fill-opacity:1"/><path d="M12.684 26.266c0-.043 0-.075.027-.106.066-.035.144-.012.215.004v.082l-.2.031Zm0 0" style="stroke:none;fill-rule:nonzero;fill:#806e5a;fill-opacity:1"/><path d="M9.941 22.762c.028.136-.07.383-.109.523-.004-.012-.008-.012-.012-.027-.047-.172.035-.356.121-.496m0 0" style="stroke:none;fill-rule:nonzero;fill:#325872;fill-opacity:1"/><path d="M22.094 20.84c.172.004.343.004.515.015-.09.016-.191.02-.28.043.054-.007.112-.02.163-.02-.168.036-.539.024-.722.009.082-.047.222.004.324-.047m0 0" style="stroke:none;fill-rule:nonzero;fill:#0d4b72;fill-opacity:1"/><path d="m19.234 26.52.102.097a.3.3 0 0 1-.113.168l-.082-.066a1 1 0 0 1 .093-.2m0 0" style="stroke:none;fill-rule:nonzero;fill:#0782ae;fill-opacity:1"/><path d="M19.504 26.344c.062.058.168.117.21.191.005.047-.007.05-.038.09h-.028l-.168-.16Zm0 0" style="stroke:none;fill-rule:nonzero;fill:#c9d1d1;fill-opacity:1"/><path d="M10.758 26.816c.05.004.11 0 .156.036.035.054.027.125.031.187l-.199-.059Zm0 0" style="stroke:none;fill-rule:nonzero;fill:#325872;fill-opacity:1"/><path d="m15.09 3.71.035-.01c.012.015.027.027.035.042-.015.086-.047.196-.117.254-.02.016-.031.012-.055.016-.031-.02-.035-.024-.05-.055.054-.082.101-.164.152-.246m0 0" style="stroke:none;fill-rule:nonzero;fill:#0d4b72;fill-opacity:1"/><path d="M15.79 4.121c.14-.113.26-.238.378-.379l.027.094a.1.1 0 0 0 .04.016c-.126.128-.278.21-.446.27m0 0" style="stroke:none;fill-rule:nonzero;fill:#325872;fill-opacity:1"/><path d="m13.754 27.527.062.004c.008.164 0 .688.047.813l-.058-.008c-.004-.27-.035-.54-.051-.809m0 0" style="stroke:none;fill-rule:nonzero;fill:#0782ae;fill-opacity:1"/><path d="M19.336 26.617q.093.065.176.14-.07.08-.145.157c-.047-.039-.105-.082-.144-.129a.3.3 0 0 0 .113-.168m0 0" style="stroke:none;fill-rule:nonzero;fill:#0d4b72;fill-opacity:1"/><path d="M18.777 22.426c.063.12.196.367.203.5l-.007.015c-.04-.003-.07-.043-.094-.074a.8.8 0 0 1-.117-.222c.008-.07.008-.145.015-.22M17.168 8.871c-.148-.101-.332-.195-.445-.336-.02-.023-.035-.039-.028-.07l.02.004c.027.058.281.136.351.191.028.074.059.145.102.211m0 0" style="stroke:none;fill-rule:nonzero;fill:#7291a0;fill-opacity:1"/><path d="M15.547 3.523c.012.11.015.23-.055.325a.3.3 0 0 1-.09.062l-.027-.004c-.035-.043.047-.14.023-.203l-.015.004c-.024.063-.047.137-.09.191l-.02-.003c.043-.094.079-.184.102-.286.047.008.094.028.145.028.027-.04.023-.067.027-.114M16.563 2.637c.105.16.09.41.054.59a1 1 0 0 1-.11.289l-.027-.059c.106-.23.118-.57.082-.82m0 0" style="stroke:none;fill-rule:nonzero;fill:#4d595f;fill-opacity:1"/><path d="M16.277 3.574c.024.02.024.02.055.024.063-.032.102-.09.148-.141l.028.059a1.5 1.5 0 0 1-.274.336.1.1 0 0 1-.039-.016l-.027-.094q.057-.081.11-.168m0 0" style="stroke:none;fill-rule:nonzero;fill:#64767e;fill-opacity:1"/><path d="m18.902 22.313.032-.055c-.012-.043-.024-.07-.004-.113q.004.005.008.011c.07.153.242.309.21.489l-.02.02c-.05-.013-.077-.06-.1-.099-.044-.078-.094-.168-.126-.253m0 0" style="stroke:none;fill-rule:nonzero;fill:url(#a)"/><path d="m12.684 26.266.043.011c.007.246.015.496.046.743a.3.3 0 0 1-.078-.02 1.9 1.9 0 0 1-.011-.734m0 0" style="stroke:none;fill-rule:nonzero;fill:#806e5a;fill-opacity:1"/><path d="M8.918 20.371c.055-.254.168-.566.289-.797.04.004.05.024.078.047-.113.219-.215.57-.367.75m0 0" style="stroke:none;fill-rule:nonzero;fill:#fefefe;fill-opacity:1"/><path d="M9.375 19.355c.145.098.336.262.512.282l.008.203c-.106-.086-.22-.164-.325-.25-.062-.05-.187-.152-.195-.235m0 0" style="stroke:none;fill-rule:nonzero;fill:#0d4b72;fill-opacity:1"/><path d="M19.688 26.055c.097.039.18.152.265.218l-.117.118c-.098-.078-.207-.164-.29-.262.063-.012.099-.024.142-.074M11.148 25.93l.051.015c.004.008.012.012.012.02.012.047-.02.23-.024.289-.015.195-.015.39-.015.582q-.036-.011-.07-.027c-.059-.157.011-.7.046-.88m0 0" style="stroke:none;fill-rule:nonzero;fill:#325872;fill-opacity:1"/><path d="M14.734 2.805a.83.83 0 0 1 .391.504.9.9 0 0 1 .04.394l-.005.024v.015c-.008-.015-.023-.027-.035-.043l-.035.012c-.035-.012-.031-.012-.05-.035a.2.2 0 0 0 .026-.074c.051-.22-.082-.47-.21-.637-.036-.047-.079-.086-.106-.137a.1.1 0 0 1-.016-.023m0 0" style="stroke:none;fill-rule:nonzero;fill:#4d595f;fill-opacity:1"/><path d="M14.906 14.508c.172-.2.383-.36.582-.531a4 4 0 0 0-.078.363c-.012.074-.015.164-.035.23l-.031-.039c.008-.058.023-.148-.016-.199l-.012-.012q-.004-.001-.007-.008l-.012-.003-.016-.004c-.078-.008-.187.074-.238.125-.047.047-.059.093-.063.16l-.02-.055Zm0 0" style="stroke:none;fill-rule:nonzero;fill:#325872;fill-opacity:1"/><path d="M11.07 3.41a1 1 0 0 1-.222-.21c.054.038.109.081.172.112.3.149.609.063.91-.035-.008.004-.012.012-.016.016-.035.031-.098.047-.14.062.023.016.078.012.105.004.055-.007.137-.05.187-.027l.008.016c-.308.093-.597.183-.914.086zm0 0" style="stroke:none;fill-rule:nonzero;fill:url(#b)"/><path d="M14.98 14.59c.004-.067.016-.113.063-.16.05-.051.16-.133.238-.125l.016.004c.004 0 .008.004.012.004q.004.006.007.007l.012.012c.04.05.024.14.016.2-.04.09-.086.124-.172.171l-.047-.008a.3.3 0 0 1-.066-.015c-.043-.02-.059-.051-.079-.09m0 0" style="stroke:none;fill-rule:nonzero;fill:#011e45;fill-opacity:1"/><path d="M16.617 6.215c.024 0 .043.008.063.012l.011.027-.023.062.008.02c.16.023.336-.012.5 0-.008.293-.047.57-.137.851.016-.19.059-.363.055-.554 0-.07-.012-.137-.02-.207-.12-.031-.32-.082-.437-.043-.067.137-.149.305-.176.449-.004.02.004.008-.02.027l-.02-.015.013-.07c.035-.192.14-.356.183-.547zm0 0" style="stroke:none;fill-rule:nonzero;fill:#325872;fill-opacity:1"/><path d="M15.848 1.957c.207.082.504.305.59.52.007.02.007.023.011.043q-.008.08-.004.16l-.011-.004-.032-.059s.016.43.004.52c-.05-.145-.027-.328-.066-.485a1.05 1.05 0 0 0-.324-.511c-.051-.051-.118-.102-.157-.16zm0 0" style="stroke:none;fill-rule:nonzero;fill:#708896;fill-opacity:1"/><path d="m10.469 26.988.172.051c-.051.203-.106.406-.145.61l-.195-.07c.086-.067.136-.474.168-.59m0 0" style="stroke:none;fill-rule:nonzero;fill:#325872;fill-opacity:1"/><path d="M15.348 10.996c.078.219.078.356-.02.57a4 4 0 0 1-.156.301c-.067-.035-.086-.097-.117-.164.136-.226.265-.437.293-.707m0 0" style="stroke:none;fill-rule:nonzero;fill:#a0b4bc;fill-opacity:1"/><path d="M15.57 6.156c.035.016.04.016.055.047.004.234-.484 1.16-.629 1.379-.02 0-.008.004-.035-.016a.2.2 0 0 1 .023-.101c.09-.219.211-.43.313-.645.101-.215.187-.441.273-.664m0 0" style="stroke:none;fill-rule:nonzero;fill:#fefefe;fill-opacity:1"/><path d="m9.031 18.594.008.011c.133.207.215.41.383.598.129.145.367.285.465.434-.176-.02-.367-.184-.512-.282a.9.9 0 0 1-.336-.648 1 1 0 0 1-.008-.113m0 0" style="stroke:none;fill-rule:nonzero;fill:#708896;fill-opacity:1"/><path d="M15.777 25.852q.048 0 .094.011c.047.125.164.64.125.758l-.047.02-.16.043c-.008-.22-.062-.575-.05-.77.003-.039.007-.039.038-.062m0 0" style="stroke:none;fill-rule:nonzero;fill:#0782ae;fill-opacity:1"/><path d="m16.45 2.52.038.039.032-.012c.027.027.03.055.043.09.035.25.023.59-.083.82-.046.05-.085.11-.148.14-.031-.003-.031-.003-.055-.023.07-.148.11-.277.13-.437a7 7 0 0 0-.005-.52l.032.059.011.004q-.004-.08.004-.16m0 0" style="stroke:none;fill-rule:nonzero;fill:#929291;fill-opacity:1"/><path d="M9.59 18.398c.129.336.207.649.285 1-.223-.168-.578-.457-.672-.718.164.09.317.238.469.351-.02-.199-.106-.433-.082-.633m0 0" style="stroke:none;fill-rule:nonzero;fill:#325872;fill-opacity:1"/><path d="M16.137 5.16c-.008-.039-.02-.086-.012-.129.004-.047.031-.07.066-.097l.051.132c.106.254.25.61.29.88-.024.027-.048.027-.083.027q-.034-.002-.074-.004c-.047-.047-.207-.688-.238-.809m0 0" style="stroke:none;fill-rule:nonzero;fill:#fefefe;fill-opacity:1"/><path d="M16.387 10.34c-.14.39-.219.715-.594.945.102-.281.227-.547.32-.832.086-.043.184-.078.274-.113m0 0" style="stroke:none;fill-rule:nonzero;fill:#325872;fill-opacity:1"/><path d="M8.918 21.18c.207-.09.86-.36 1.047-.301.031.008.031.027.043.055-.09.046-.195.074-.29.109-.312.105-.624.203-.882.418-.008-.129.012-.176.082-.281m0 0" style="stroke:none;fill-rule:nonzero;fill:#7291a0;fill-opacity:1"/><path d="M10.008 20.934q.005.105.015.21c-.296.063-.66.118-.914.286-.082.058-.148.133-.226.191-.016-.05-.028-.11-.047-.16.258-.215.57-.313.883-.418.094-.035.199-.063.289-.11m0 0" style="stroke:none;fill-rule:nonzero;fill:#325872;fill-opacity:1"/><path d="M15.813 2.3c.136.083.21.27.246.419a.95.95 0 0 1-.114.719c-.011-.075-.02-.149-.035-.22a1.6 1.6 0 0 0-.11-.378c-.073-.18-.195-.324-.323-.469.238.125.359.274.492.5-.02-.203-.094-.379-.156-.57m0 0" style="stroke:none;fill-rule:nonzero;fill:#929291;fill-opacity:1"/><path d="M11.57 12.207q.069.128.149.25c.054.078.117.156.18.23.003.165.316.34.32.407a.5.5 0 0 1-.07-.051l-.024.004c-.027.047-.027.105-.031.156a1.25 1.25 0 0 1-.457-.433c-.121-.2-.117-.344-.067-.563m0 0" style="stroke:none;fill-rule:nonzero;fill:#a0b4bc;fill-opacity:1"/><path d="M19.781 20.18c.055.03.184.293.235.363s.113.137.175.203c-.05.149-.128.29-.195.43l-.082.195a6.5 6.5 0 0 1-.133-1.191m0 0" style="stroke:none;fill-rule:nonzero;fill:#c9d1d1;fill-opacity:1"/><path d="m18.059 25.52.054-.114c.422.262 1.055.567 1.39.938l-.023.12c-.449-.339-.918-.69-1.421-.944m0 0" style="stroke:none;fill-rule:nonzero;fill:#fefefe;fill-opacity:1"/><path d="M20.531 20.93c.102-.016.176-.078.278-.094.32-.043.945-.016 1.285.004-.102.05-.242 0-.324.047-.25.011-.567 0-.805.078.023.027.047.039.078.058-.23.063-.445.207-.68.247q.09-.17.168-.34m0 0" style="stroke:none;fill-rule:nonzero;fill:#0d4b72;fill-opacity:1"/><path d="M14.828 2.227q.169.054.332.113c.094.058.195.117.277.191.09.102.168.203.235.32l.027.004c.012.028.02.047.02.079l.02.007.054-.062.008-.04c.054.126.086.247.11.38-.048.113 0 .222-.06.332l-.046.043-.016-.008-.039.047c-.027-.031-.04-.59-.215-.813-.137-.261-.469-.433-.707-.593m0 0" style="stroke:none;fill-rule:nonzero;fill:url(#c)"/><path d="m15.672 2.852.027.003c.012.028.02.047.02.079l.02.007.054-.062.008-.04c.054.126.086.247.11.38-.048.113 0 .222-.06.332l-.046.043-.016-.008a1.75 1.75 0 0 0-.117-.734m0 0" style="stroke:none;fill-rule:nonzero;fill:#02173b;fill-opacity:1"/><path d="M15.8 2.84c.055.125.087.246.11.379-.047.113 0 .222-.058.332 0-.153-.09-.586-.059-.672Zm0 0" style="stroke:none;fill-rule:nonzero;fill:#0d4b72;fill-opacity:1"/><path d="M12.977 27.2q.315.005.632 0c0 .116.016.234.032.347-.153.004-.496-.016-.621.015-.008.04-.012.07-.016.11-.027-.145-.016-.32-.027-.473m0 0" style="stroke:none;fill-rule:nonzero;fill:#325872;fill-opacity:1"/><path d="M9.05 14.094c.184-.215.4-.406.618-.586.039.086.086.172.113.262l-.011.023c-.223.191-.461.367-.684.562-.02-.085-.027-.175-.035-.261m0 0" style="stroke:none;fill-rule:nonzero;fill:#fefefe;fill-opacity:1"/><path d="M16.105 23.914c.106.234.223.473.31.715-.122.055-.243.113-.372.152a6 6 0 0 1-.133-.68c.067-.062.133-.12.195-.187m0 0" style="stroke:none;fill-rule:nonzero;fill:#a0b4bc;fill-opacity:1"/><path d="M19.95 25.98c-.454-.39-.966-.73-1.466-1.05-.035-.024-.07-.043-.082-.086.02-.035.02-.043.055-.067.227.043 1.355.926 1.566 1.121ZM18.902 22.313c-.191-.325-.351-.672-.53-1.004-.165-.301-.368-.602-.509-.914-.023-.051-.039-.09-.027-.145.027-.023.023-.027.059-.023.125.175.214.378.32.566q.38.667.715 1.352c-.02.043-.008.07.004.113Zm0 0" style="stroke:none;fill-rule:nonzero;fill:#fefefe;fill-opacity:1"/><path d="M11.367 9.531c.004.063.012.125.016.188l-.485.363c-.128.027-.183.113-.285.184-.047.035-.105.035-.152.07-.168.121-.324.355-.438.523-.058.094-.304.598-.351.63q.005-.009.004-.016c.187-.793 1.02-1.524 1.691-1.942m0 0" style="stroke:none;fill-rule:nonzero;fill:#a0b4bc;fill-opacity:1"/><path d="m18.762 22.645-.88-1.66c-.081-.157-.277-.465-.327-.61.015-.023.03-.02.058-.027.035.007.055.02.075.05.097.165.183.348.277.516.27.504.531 1.012.812 1.512-.007.074-.007.148-.015.219m0 0" style="stroke:none;fill-rule:nonzero;fill:#fefefe;fill-opacity:1"/><path d="m10.664 25.879.297.039a11 11 0 0 0-.04.8l-.015.016-.043-.007q-.17-.047-.34-.098c.032-.25.086-.504.141-.75m0 0" style="stroke:none;fill-rule:nonzero;fill:#325872;fill-opacity:1"/><path d="m16.29 25.191.339-.113c.047.082.098.164.137.25a5 5 0 0 1-1.461.352c.242-.121.82-.344.984-.489m0 0" style="stroke:none;fill-rule:nonzero;fill:#a0b4bc;fill-opacity:1"/><path d="M17.809 16.426h.09c.03.023.03.027.038.066-.035.043-.097.051-.152.059-.246.035-.508.035-.758.062a34 34 0 0 0-1.254.153c-.043.007-.062.015-.101 0-.02-.04-.02-.047-.016-.09.114-.078 1.89-.23 2.153-.25m0 0" style="stroke:none;fill-rule:nonzero;fill:#fefefe;fill-opacity:1"/><path d="M9.285 19.621c.117.094.235.195.356.281-.235.137-.399.422-.54.649-.035.058-.07.125-.113.18-.043-.106-.113-.247-.07-.36.152-.18.254-.531.367-.75m0 0" style="stroke:none;fill-rule:nonzero;fill:#7291a0;fill-opacity:1"/><path d="M15.688 2.113c.23.145.437.399.492.672.054.258-.035.543-.18.762-.16.242-.395.363-.68.418-.039.004-.07.008-.11.004.005-.031.032-.051.06-.074h.003l.02.003c.043-.054.066-.128.09-.191l.015-.004c.024.063-.058.16-.023.203l.027.004c.067-.004.121-.02.168-.07.145-.16.055-.606.012-.797-.012-.063-.047-.137-.047-.2V2.82c.176.223.188.782.215.813q.02-.023.04-.047l.015.008.047-.043c.058-.11.011-.219.058-.332.016.07.024.144.035.219a.95.95 0 0 0 .114-.72c-.036-.148-.11-.335-.247-.417a1 1 0 0 1-.124-.188M11.258 10.914c.105-.117.207-.23.308-.351.012.234.047.46.098.687a2 2 0 0 0-.336.508c-.258-.375-.008-.695-.07-.844m0 0" style="stroke:none;fill-rule:nonzero;fill:#325872;fill-opacity:1"/><path d="M23.195 19.09c.075.25.446 1.414.39 1.582l-.07.05c-.203-.413-.324-.863-.503-1.285a4 4 0 0 0 .183-.347m0 0" style="stroke:none;fill-rule:nonzero;fill:#fefefe;fill-opacity:1"/><path d="M18.293 25.05c.512.262.96.634 1.395 1.005-.043.05-.079.062-.141.074-.414-.336-.895-.61-1.356-.875Zm0 0" style="stroke:none;fill-rule:nonzero;fill:#17acd2;fill-opacity:1"/><path d="M9.844 21.379c.008.039.004.05-.024.082-.093.113-.242.207-.355.3-.219.188-.363.505-.422.782-.016.074-.016.152-.031.223-.067-.301-.16-.664.011-.95.172-.289.52-.359.82-.437m0 0" style="stroke:none;fill-rule:nonzero;fill:#7291a0;fill-opacity:1"/><path d="M17.895 25.867c.035-.062.062-.125.101-.183.422.18.899.53 1.238.836a1 1 0 0 0-.093.199c-.192-.137-.375-.29-.567-.426a11 11 0 0 0-.68-.426m0 0" style="stroke:none;fill-rule:nonzero;fill:#17acd2;fill-opacity:1"/><path d="M14.61 19.355q.128.611.285 1.207c-.043.16-.149.344-.235.485-.035-.137-.035-.293-.055-.434-.027-.226-.07-.449-.105-.672-.016-.093-.02-.226-.062-.312.05-.094.113-.184.171-.274m0 0" style="stroke:none;fill-rule:nonzero;fill:#a0b4bc;fill-opacity:1"/><path d="M17.527 24.68c.09.133.157.289.235.43-.102.242-.219.476-.309.722-.113-.215-.23-.43-.328-.652.16-.137.29-.325.402-.5m0 0" style="stroke:none;fill-rule:nonzero;fill:#0d4b72;fill-opacity:1"/><path d="M15.082 21.176c.102.273.2.558.273.836-.097.21-.199.437-.347.62-.008-.105 0-.214 0-.32a1.9 1.9 0 0 0-.188-.84Zm0 0" style="stroke:none;fill-rule:nonzero;fill:#a0b4bc;fill-opacity:1"/><path d="m17.914 16.676.016.015a.4.4 0 0 1 0 .133c-.028.028-.485.055-.559.063-.566.05-1.129.14-1.695.199l-.016-.012c-.008-.043-.015-.082 0-.12.031-.028.067-.036.106-.048.187-.039.386-.035.574-.058a42 42 0 0 1 1.574-.172m0 0" style="stroke:none;fill-rule:nonzero;fill:#7291a0;fill-opacity:1"/><path d="M9.844 21.379c.07-.016.133-.027.203-.031.012.086.015.168.015.254l-.09.062-.09.063c-.027.02-.058.043-.085.066l-.082.07q-.042.035-.078.075-.04.035-.075.078-.04.04-.074.082-.036.04-.066.086-.034.042-.063.086-.034.047-.062.09c-.02.03-.035.062-.055.093l-.05.098-.047.097c-.012.036-.028.067-.04.102a1 1 0 0 0-.039.102l-.03.105c-.009-.062-.028-.129-.024-.191.015-.07.015-.149.031-.223.059-.277.203-.594.422-.781.113-.094.262-.188.355-.301.028-.031.032-.043.024-.082m0 0" style="stroke:none;fill-rule:nonzero;fill:#0d4b72;fill-opacity:1"/><path d="M18.629 27.91c-.129-.133-.309-.238-.453-.351-.36-.274-.727-.68-.914-1.09-.02-.043-.028-.074-.008-.117l.035-.008c.063.039.121.156.164.215.129.168.266.336.414.484.313.309.692.512 1.024.789Zm0 0" style="stroke:none;fill-rule:nonzero;fill:#0782ae;fill-opacity:1"/><path d="M16.832 2.723c.133.199.223.425.18.672-.051.28-.293.558-.528.714-.222.149-.492.188-.754.184.23-.074.41-.133.594-.305.059-.054.121-.14.192-.187.164-.215.261-.45.312-.715q.008-.182.004-.363m0 0" style="stroke:none;fill-rule:nonzero;fill:url(#d)"/><path d="m16.89 3.074.008-.011c.008.199-.007.363-.105.542-.004-.183.047-.359.098-.53m0 0" style="stroke:none;fill-rule:nonzero;fill:#c9d1d1;fill-opacity:1"/><path d="m16.828 3.086.063-.012c-.051.172-.102.348-.098.531a.54.54 0 0 1-.191.184q-.017-.001-.028.004c-.02 0-.035.004-.054.008h-.004c.164-.215.261-.45.312-.715m0 0" style="stroke:none;fill-rule:nonzero;fill:#64767e;fill-opacity:1"/><path d="M13.676 17.8c0-.007-.004-.015-.004-.019-.016-.097.09-.523.113-.652.067-.375.242-1.746.426-2-.008.168-.024.336-.027.504-.004.18.004.367-.016.547-.043.375-.313 1.28-.492 1.62m0 0" style="stroke:none;fill-rule:nonzero;fill:#a0b4bc;fill-opacity:1"/><path d="m10.316 11.805.02-.012c.101-.422.234-.645.531-.957.121-.125.246-.246.39-.344l-.01.016c-.09.16-.22.3-.325.453-.246.36-.39.82-.36 1.258.012.187.13.414.106.59-.148-.235-.36-.73-.352-1.004m0 0" style="stroke:none;fill-rule:nonzero;fill:#0d4b72;fill-opacity:1"/><path d="M16.16 6.414c.035.117.05.238.094.352.039.086.078.175.133.254.093.14.418.492.425.644l-.078.05c-.062.02-.109-.007-.168-.034-.296-.137-.445-.453-.554-.742.023-.11.02-.485.027-.497Zm0 0" style="stroke:none;fill-rule:nonzero;fill:#edcbab;fill-opacity:1"/><path d="M16.254 6.766c.039.086.078.175.133.254.093.14.418.492.425.644l-.078.05c-.039-.054-.066-.12-.105-.179-.129-.18-.32-.363-.383-.578-.016-.062-.027-.133.008-.191m0 0" style="stroke:none;fill-rule:nonzero;fill:#fefefe;fill-opacity:1"/><path d="M12.852 9.652c.296.293.617.512.964.73.196.126.418.243.582.407-.046.18-.12.352-.199.524-.023-.083-.008-.168-.004-.247-.258-.363-1.297-1.03-1.343-1.414m0 0" style="stroke:none;fill-rule:nonzero;fill:#9f8468;fill-opacity:1"/><path d="M11.93 3.277c.523-.246 1.11-.343 1.668-.136.316.117.636.34.843.605-.078.008-.187-.07-.257-.11-.418-.214-1-.48-1.477-.437-.215.024-.426.094-.633.149l-.008-.016c-.05-.023-.132.02-.187.027-.027.008-.082.012-.106-.004.043-.015.106-.03.141-.062q.005-.008.016-.016m0 0" style="stroke:none;fill-rule:nonzero;fill:#708896;fill-opacity:1"/><path d="M17.82 26.113c.504.25 1.012.575 1.41.973a2.5 2.5 0 0 1-.304.414c-.059-.04-.13-.074-.184-.117.055-.098.094-.207.13-.313-.313-.324-.759-.511-1.114-.785Zm0 0" style="stroke:none;fill-rule:nonzero;fill:#9f8468;fill-opacity:1"/><path d="M17.758 26.285c.355.274.8.461 1.113.785a2 2 0 0 1-.129.313 2.76 2.76 0 0 1-1.07-.938c.031-.05.058-.11.086-.16m0 0" style="stroke:none;fill-rule:nonzero;fill:#edcba8;fill-opacity:1"/><path d="M14.219 16.973c.043.422.07.957.176 1.359-.204.566-.442 1.184-.797 1.676 0-.024 0-.043.007-.067.133-.343.282-.675.403-1.023.043-.129.09-.266.105-.398.035-.243.032-.97-.07-1.176q.093-.183.176-.371m0 0" style="stroke:none;fill-rule:nonzero;fill:#a0b4bc;fill-opacity:1"/><path d="M13.004 27.672c.004-.04.008-.07.016-.11.125-.03.468-.011.62-.015q.03.387.075.77c-.227-.005-.461-.047-.692-.07q0-.288-.02-.575m0 0" style="stroke:none;fill-rule:nonzero;fill:#0782ae;fill-opacity:1"/><path d="M15.305 22.93c.093-.102.187-.196.261-.309.121.29.254.586.344.887-.18.265-.39.492-.625.707.07-.402.238-.899.02-1.285m0 0" style="stroke:none;fill-rule:nonzero;fill:#a0b4bc;fill-opacity:1"/><path d="M10.05 21.965c-.003.129-.003.27-.042.394-.07.22-.254.328-.317.586-.062.254.051.383.059.61.004.12-.098.683-.176.77-.031-.024-.035-.044-.047-.079.012-.11-.007-.242-.02-.355-.034-.34-.093-.692-.015-1.032.07-.3.387-.636.418-.785q.005-.012.004-.02.065-.05.137-.09m0 0" style="stroke:none;fill-rule:nonzero;fill:#0d4b72;fill-opacity:1"/><path d="M13.371 2.402c.512-.015.941.106 1.363.403a.1.1 0 0 0 .016.023c.027.05.07.09.105.137.13.168.262.418.211.637a.2.2 0 0 1-.027.074c-.066-.352-.355-.602-.64-.793-.524-.356-1.032-.399-1.637-.285-.11.039-.309.125-.418.105.308-.168.672-.308 1.027-.3m0 0" style="stroke:none;fill-rule:nonzero;fill:#929291;fill-opacity:1"/><path d="M12.344 2.703c.308-.168.672-.308 1.027-.3l.012.027c.113.011.246-.004.351.027l.004.016c-.078.004-.148-.016-.226-.016a1.8 1.8 0 0 0-.75.117l-.004.016.004.008c-.11.039-.309.125-.418.105m0 0" style="stroke:none;fill-rule:nonzero;fill:#708896;fill-opacity:1"/><path d="M18.469 10.063c.242.199.613.55.648.878a.6.6 0 0 1-.074.348c-.242-.113-.465-.25-.711-.355.11-.29.168-.563.137-.871m0 0" style="stroke:none;fill-rule:nonzero;fill:#fefefe;fill-opacity:1"/><path d="M9.914 22.055q.001.006-.004.02c-.031.148-.348.484-.418.784-.078.34-.02.692.016 1.032.012.113.031.246.02.355q-.006-.006-.008-.012c-.204-.363-.477-.964-.356-1.375.113-.382.414-.62.75-.804m0 0" style="stroke:none;fill-rule:nonzero;fill:#7291a0;fill-opacity:1"/><path d="M10.281 14.465c.094.082.168.195.246.289-.062.371-.156.738-.222 1.11a18 18 0 0 0-.23 1.66c-.005.05-.005.105-.02.156-.043-.086-.028-.262-.028-.356-.007-.89.086-1.988.254-2.86m0 0" style="stroke:none;fill-rule:nonzero;fill:url(#e)"/><path d="M17.074 26.398c.32.57.496.875 1.04 1.282.124.093.265.172.39.27l-.442.1c-.07-.148-.265-.3-.378-.421q-.258-.29-.516-.578c-.117.129-.23.265-.363.387.097-.352.203-.68.27-1.04m0 0" style="stroke:none;fill-rule:nonzero;fill:#325872;fill-opacity:1"/><path d="M11.45 3.723c.109.011.238.007.343.039q.516.016 1.027.074c.438.047.89.215 1.317.328-.918.05-1.883.07-2.688-.441m0 0" style="stroke:none;fill-rule:nonzero;fill:#4d595f;fill-opacity:1"/><path d="M11.793 3.762q.516.016 1.027.074l-.023.027.012.02c.007.004.011.004.02.008-.235.027-.79-.043-1.02-.106Zm0 0" style="stroke:none;fill-rule:nonzero;fill:#64767e;fill-opacity:1"/><path d="m13.07 6.71.004-.042c.031-.02 1.192-.063 1.254-.043a.1.1 0 0 1 .043.02c0 .058-.082.085-.09.148.028.023.047.027.082.023.09-.003.145-.093.2-.156l.066.418c-.11-.078-.219-.16-.336-.223a.94.94 0 0 0 .352.301c.05.164.128.547.289.63.144.073.488-.056.64-.114l.024-.012-.008.098-.043.023q-.045.024-.09.047c-.137.055-.43.184-.574.117-.227-.105-.676-.906-.774-1.148-.14-.027-.293-.016-.433-.02a4 4 0 0 1-.606-.066m0 0" style="stroke:none;fill-rule:nonzero;fill:#b49c83;fill-opacity:1"/><path d="M9.64 19.902c.106.043.192.125.274.2q.03.276.066.546c-.32.075-.601.188-.91.309-.035-.078-.066-.145-.082-.227.043-.054.078-.12.114-.18.14-.226.304-.51.539-.648m0 0" style="stroke:none;fill-rule:nonzero;fill:#0d4b72;fill-opacity:1"/><path d="M12.594 8.055c.008.004.011.011.02.02.093.124.245.507.327.671.086.188.172.39.301.55.344.423 1.258.7 1.781.786.348.055.918.117 1.223-.094.063-.043.125-.136.195-.16a.37.37 0 0 1-.07.188c-.098.132-.27.18-.43.203-.816.117-2.03-.188-2.691-.68a1 1 0 0 1-.21-.21c-.196-.278-.4-.934-.446-1.274m0 0" style="stroke:none;fill-rule:nonzero;fill:#b49c83;fill-opacity:1"/><path d="M18.617 22.922q.093.183.168.371c-.176.289-.332.59-.492.883-.129.23-.262.457-.375.695a3.4 3.4 0 0 1-.246-.476c.082-.079.152-.196.219-.29.152-.21.312-.425.441-.648.102-.176.188-.36.285-.535m0 0" style="stroke:none;fill-rule:nonzero;fill:#0d4b72;fill-opacity:1"/><path d="M11.969 2.434c.597-.344 1.344-.563 2.027-.375.441.117 1.145.433 1.383.84.11.183.152.41.168.624-.004.047 0 .075-.027.114-.051 0-.098-.02-.145-.028.02-.109.02-.214.008-.324a1 1 0 0 0-.403-.68c-.511-.386-1.207-.464-1.82-.378-.156.043-.305.097-.457.14-.07 0-.133.008-.2.016l.017-.008c-.063.008-.13.02-.188.016-.215.05-.383.136-.574.25.066-.07.164-.125.21-.207m0 0" style="stroke:none;fill-rule:nonzero;fill:#708896;fill-opacity:1"/><path d="M12.332 2.39c.246-.081.566-.167.828-.163-.156.043-.305.097-.457.14-.07 0-.133.008-.2.016l.017-.008c-.063.008-.13.02-.188.016M13.234 26.164q.299.001.59-.016.293-.011.586-.046a10 10 0 0 0 .582-.079c.192-.03.383-.07.574-.109.024.266.047.531.051.797-.164.031-.328.07-.496.094l.02-.125c.004-.098.03-.301-.032-.38-.03-.038-.449 0-.53 0-.47-.003-.884-.097-1.345-.136m0 0" style="stroke:none;fill-rule:nonzero;fill:#4d595f;fill-opacity:1"/><path d="M16.715 8.469c.504.074 1.015.57 1.308.96.204.27.258.52.211.852a3 3 0 0 1-.125.485c-.12-.192-.234-.797-.316-1.059l-.063.016a1.96 1.96 0 0 0-.562-.852 1 1 0 0 1-.102-.21c-.07-.056-.324-.134-.351-.192m0 0" style="stroke:none;fill-rule:nonzero;fill:#fefefe;fill-opacity:1"/><path d="M17.066 8.66c.395.258.582.606.727 1.047l-.063.016a1.96 1.96 0 0 0-.562-.852 1 1 0 0 1-.102-.21m0 0" style="stroke:none;fill-rule:nonzero;fill:url(#f)"/><path d="M19.145 11.746c.308.074.585.168.855.336-.234.145-.488.281-.676.484-.191-.062-.851-.214-.945-.27.262-.175.516-.355.766-.55m0 0" style="stroke:none;fill-rule:nonzero;fill:#fefefe;fill-opacity:1"/><path d="M19.14 18.188a4 4 0 0 1-.066-.555c-.023-.563.098-1.32.203-1.88a5 5 0 0 1 .149-.57c.027-.09.078-.19.094-.28a.1.1 0 0 0-.004-.051l-.016-.008-.02.043c-.015-.114.063-.188.079-.293.007-.043.011-.09.035-.13.031-.054.058-.109.09-.167l-.004.008.027.011-.031.008c-.02.078-.028.156-.047.235-.027.113-.117.28-.098.398q.002.013.004.02c-.035.214-.086.421-.12.636a8.7 8.7 0 0 0-.138 1.715c.149-.45.606-1.293.903-1.652.008.094-.043.148-.063.234q-.095.188-.183.375c-.102.172-.188.36-.274.535-.223.457-.414.871-.52 1.367m0 0" style="stroke:none;fill-rule:nonzero;fill:#0d4b72;fill-opacity:1"/><path d="M12.074 3.348c.207-.055.418-.125.633-.149.477-.043 1.059.223 1.477.438.07.039.18.117.257.11.07.042.145.19.184.265-.555-.27-1.707-.594-2.305-.551-.191.012-.367.094-.554.125-.274.047-.473-.016-.696-.176l.09.024c.317.097.606.007.914-.086m0 0" style="stroke:none;fill-rule:nonzero;fill:#325872;fill-opacity:1"/><path d="M18.332 10.934c.246.105.469.242.711.355-.25.414-1.191.848-1.633 1.094.402-.45.676-.899.922-1.45m0 0" style="stroke:none;fill-rule:nonzero;fill:#708896;fill-opacity:1"/><path d="M16.867 25.59q.013.004.02.008c.039.03.082.144.11.187q.104.198.237.371c-.257.153-.554.254-.836.36l-.218.066c-.059-.254-.09-.523-.133-.781.281-.059.55-.113.82-.211m0 0" style="stroke:none;fill-rule:nonzero;fill:#0d4b72;fill-opacity:1"/><path d="m12.398 22.672-.011.023c-.117.192-.707.446-.785.563-.02.031-.012.097-.004.133.004.023.007.047.027.062.105.07.496-.047.613-.078.125-.031.25-.086.375-.105-.363.293-1.133.625-1.578.75.055-.313.078-.633.133-.946.176-.043.355-.078.531-.129.239-.074.469-.172.7-.273m0 0" style="stroke:none;fill-rule:nonzero;fill:#a0b4bc;fill-opacity:1"/><path d="m20.113 16.055.043.015c-.25.778-.61 1.64-.586 2.465.25-.305.5-.601.762-.898.09-.106.172-.223.27-.325v.079c-.106.226-.274.422-.418.629-.227.328-.446.664-.696.972-.07-.133-.152-.273-.203-.414-.144-.406.5-1.832.703-2.273.043-.082.09-.164.125-.25m0 0" style="stroke:none;fill-rule:nonzero;fill:#0d4b72;fill-opacity:1"/><path d="M14.602 4.332c.32.047.64.09.964.106.133.007.266-.008.399 0 .039.027.047.066.066.105a4.8 4.8 0 0 1-1.343-.016c-.176.098-.38.149-.547.25-.188.301-.086.664-.23.965-.15.309-.47.477-.657.754-.063.012-.129.008-.191.008.097-.453.503-.484.687-.84.129-.25.059-.648-.02-.906.266-.188.579-.285.872-.426m0 0" style="stroke:none;fill-rule:nonzero;fill:#b49c83;fill-opacity:1"/><path d="m18.594 14.5-.028.207c-.125.602.11 1.742.262 2.348.031-.735.32-1.79.676-2.442.016.13-.281.961-.336 1.149-.172.613-.266 1.453-.273 2.09-.375-1.122-.754-1.762-.454-2.993.024-.097.067-.304.153-.359m0 0" style="stroke:none;fill-rule:nonzero;fill:#0d4b72;fill-opacity:1"/><path d="M9 15.133c.277.851.492 1.773.621 2.66a8.4 8.4 0 0 1-.375-1.215c.012.59.168 1.258.344 1.82-.024.2.062.434.082.633-.152-.113-.305-.261-.469-.351q-.07-.101-.133-.196c.012-.109.043-.21.075-.316q.023-.105.043-.211c.082.172.156.348.257.512.032.023.043.043.082.047 0-.051-.03-.098-.05-.141a4 4 0 0 1-.211-.703c-.2-.84-.282-1.676-.266-2.54m0 0" style="stroke:none;fill-rule:nonzero;fill:#7291a0;fill-opacity:1"/><path d="M9.188 17.957c.082.172.156.348.257.512-.113-.051-.129-.207-.207-.297l-.004.008c.055.105.086.218.118.332-.086-.098-.149-.227-.207-.344q.023-.105.043-.211m0 0" style="stroke:none;fill-rule:nonzero;fill:#c9d1d1;fill-opacity:1"/><path d="M13.902 27.191c1.043-.07 2.043-.375 3.028-.71-.035.37-.176.742-.254 1.105q-.005-.006-.004-.012c-.078-.176.012-.469-.086-.605l-.016-.004.004.027-.004-.031c-.304-.023-.84.168-1.152.242-.488.121-1 .25-1.5.297 0 .102.004.207-.004.305-.023-.2-.012-.414-.012-.614m0 0" style="stroke:none;fill-rule:nonzero;fill:#325872;fill-opacity:1"/><path d="M12.566 23.781c-.046.11-.191.215-.277.301-.324.336-.8.766-1.023 1.16.23-.004.464-.015.691-.047.262-.043 1.035-.234 1.215-.207-.313.145-.68.227-1.012.32-.484.137-.957.282-1.45.38l.122-.739c.344-.191.684-.41 1.004-.64.242-.172.48-.368.73-.528M11.32 25.969c.371.078.758.093 1.133.156 0 .063 0 .129-.012.195l-.007.14a4 4 0 0 0 .027.532c-.383-.031-.77-.078-1.149-.133a3.6 3.6 0 0 1 .008-.89m0 0" style="stroke:none;fill-rule:nonzero;fill:#a0b4bc;fill-opacity:1"/><path d="M12.422 26.8q-.005-.004-.016-.003c-.265-.027-.625-.09-.793-.324-.02-.032-.023-.051-.02-.09.071-.035.684-.094.786-.09.035 0 .039 0 .062.027l-.007.14c-.028.106-.016.231-.012.34m0 0" style="stroke:none;fill-rule:nonzero;fill:#fefefe;fill-opacity:1"/><path d="M9.672 11.488c.047-.031.293-.535.351-.629.114-.168.27-.402.438-.523.047-.035.105-.035.152-.07.102-.07.157-.157.285-.184-.554.504-1.078 1.14-1.117 1.922-.031.71.406 1.371.836 1.906.184.23.387.457.516.727.082.18.113.37.144.562-.203-.344-.453-.625-.695-.937-.602-.778-1.184-1.692-.93-2.711q.01-.034.02-.063m0 0" style="stroke:none;fill-rule:nonzero;fill:#7291a0;fill-opacity:1"/><path d="M15.055 11.703c.03.067.05.129.117.164-.379.676-1.07 1.262-1.82 1.477-.465.129-.84.094-1.258-.14.004-.052.004-.11.031-.157l.023-.004a.5.5 0 0 0 .07.05c-.003-.066-.316-.241-.32-.405.043.035.086.074.13.105q.434.327.968.25c.75-.105 1.613-.746 2.059-1.34m0 0" style="stroke:none;fill-rule:nonzero;fill:#fefefe;fill-opacity:1"/><path d="M12.332 2.39c.059.005.125-.007.188-.015l-.016.008c.066-.008.129-.016.2-.016-.337.176-.81.406-1.06.696l.008.023c.215-.125.446-.328.692-.383.11.02.308-.066.418-.105.605-.114 1.113-.07 1.636.285.286.191.575.441.641.793.02.023.016.023.05.035-.05.082-.097.164-.152.246-.019.027-.035.055-.058.078-.008-.004-.016-.004-.02-.008-.011-.011-.023-.058-.03-.074a1.6 1.6 0 0 0-.169-.308 2.3 2.3 0 0 0-.64-.614c-.543-.332-1.141-.281-1.73-.113-.145.043-.286.113-.43.148l-.02.004c-.195.102-.438.098-.649.09.188-.285.454-.59.778-.726-.047.082-.145.136-.211.207.191-.114.36-.2.574-.25m0 0" style="stroke:none;fill-rule:nonzero;fill:#325872;fill-opacity:1"/><path d="M9.781 13.77c.106.187.246.367.375.535-.062.18-.078.402-.097.59-.07.55-.094 1.105-.172 1.652-.02-.227-.032-.45-.063-.676a8 8 0 0 0-.234-.996c.039.492.137.973.14 1.473a8 8 0 0 1-.496-1.352c-.043-.156-.093-.32-.113-.48-.02-.047-.023-.11-.035-.16.223-.196.46-.372.684-.563Zm0 0" style="stroke:none;fill-rule:nonzero;fill:#708896;fill-opacity:1"/><path d="M9.086 14.355c.223-.195.46-.37.684-.562.007.164-.118.281-.223.395-.09.093-.184.167-.215.3-.004.024-.008.032-.027.051-.055-.05-.051-.148-.09-.207-.031.04-.012.125-.043.14-.008-.05.004-.1.012-.152a.14.14 0 0 0-.063.055c0 .035.02.117 0 .14-.02-.046-.023-.109-.035-.16m0 0" style="stroke:none;fill-rule:nonzero;fill:#7291a0;fill-opacity:1"/><path d="M15.508 16.535c-.031-.496-.059-.984.027-1.476.047-.278.125-.551.195-.82.051-.184.09-.423.204-.579.082-.117 2.265-1.332 2.437-1.36-.086.192-1.086.774-1.297.919a3 3 0 0 0-.32.25c-.676.629-1.082 2.097-1.102 3.015-.05.012-.097.032-.144.051m0 0" style="stroke:none;fill-rule:nonzero;fill:#0d4b72;fill-opacity:1"/><path d="M11.285 18.934q.27.21.547.418a6 6 0 0 0-.129.843c-.027.297-.043 1.485.082 1.68.094.145.504.395.672.441.008.004.02.004.027.004a1.72 1.72 0 0 1-1.25-.316c-.05-1.02-.058-2.055.051-3.07m0 0" style="stroke:none;fill-rule:nonzero;fill:#a0b4bc;fill-opacity:1"/><path d="M13.012 26.164h.222c.461.04.875.133 1.344.137.082 0 .5-.04.531 0 .063.078.036.281.032.379l-.02.125c-.156.027-.332.074-.492.078-.348.058-.7.12-1.055.129-.238.008-.582-.024-.8.008-.032-.247-.04-.497-.047-.743l.199-.03v-.083a.16.16 0 0 0 .086 0m0 0" style="stroke:none;fill-rule:nonzero;fill:#9f8468;fill-opacity:1"/><path d="M14.629 26.883c.07-.086.394-.16.512-.203l-.02.125c-.156.027-.332.074-.492.078m0 0" style="stroke:none;fill-rule:nonzero;fill:#806e5a;fill-opacity:1"/><path d="M12.926 26.164a.16.16 0 0 0 .086 0c-.02.246-.02.488-.024.734a2.6 2.6 0 0 1-.062-.652Zm0 0" style="stroke:none;fill-rule:nonzero;fill:#02173b;fill-opacity:1"/><path d="m17.73 9.723.063-.016c.082.262.195.867.316 1.059-.027.132-.113.285-.18.402-.421.777-1.195 1.375-1.878 1.922-.211.168-.43.332-.63.52a5 5 0 0 0-.401.421 5 5 0 0 0-.348.469c.039-.125.11-.25.168-.371.605-1.238 1.879-1.805 2.539-2.93.246-.422.48-.98.351-1.476m0 0" style="stroke:none;fill-rule:nonzero;fill:#708896;fill-opacity:1"/><path d="M11.477 12.82c.09.137.203.25.32.367-.047.106-.035.27-.043.383-.008.274-.02.547-.004.817.023.57.102 1.14.113 1.71.012.567-.058 1.133-.008 1.704.028.277.094.586.204.844.101.246.273.457.379.699-.141-.086-.266-.235-.368-.36-.238-.28-.59-.855-.652-1.226-.035-.219.05-.594.082-.824.04-.286.078-.575.082-.864.008-.492-.059-.988-.098-1.476a11 11 0 0 1-.007-1.774m0 0" style="stroke:none;fill-rule:nonzero;fill:#a0b4bc;fill-opacity:1"/><path d="M11.309 27.008c.511.094 1.035.117 1.546.183l.02.36c.004.222.016.449.016.672-.29-.04-.582-.07-.864-.149a14 14 0 0 1-1.425-.39c.011-.188.082-.434.144-.614.176.043.352.082.535.094Zm0 0" style="stroke:none;fill-rule:nonzero;fill:#325872;fill-opacity:1"/><path d="M11.688 27.375c.273.035.554.05.828.094.125.015.234.066.359.082.004.222.016.449.016.672-.29-.04-.582-.07-.864-.149.008-.023.004-.035-.004-.054-.027-.067-.082-.137-.12-.2a2 2 0 0 1-.216-.445M11.176 14.305c-.504-.836-1.395-1.54-1.121-2.637.129-.535.511-1 .922-1.355.136-.122.285-.227.425-.348l.02.008c0 .039-.027.066-.05.093-.102.114-.224.211-.329.317-.383.375-.738.805-.73 1.367 0 .02 0 .035.003.055-.007.273.204.77.352 1.004q.055.129.133.246a4 4 0 0 1-.074-.446 4 4 0 0 1-.024-.449c0-.52.192-.887.555-1.246.062.149-.188.469.07.844-.152.515-.176 1.414-.168 1.972.004.192.02.383.016.575m0 0" style="stroke:none;fill-rule:nonzero;fill:#0782ae;fill-opacity:1"/><path d="M17.957 16.219c-.05-.7-.11-1.79.074-2.461 0 .379.024.742.051 1.12.016.145.016.302.05.446v.028c.016.226-.027.453-.003.683.027.254.09.512.14.762.047.242.086.488.153.726.164.598.61 1.84.996 2.317-.04.43-.043.855.02 1.281.035.242.093.484.113.727-.074.156-.145.32-.235.468-.09-.183-.18-.367-.28-.546.042-.247.14-.512.132-.766-.02-.55-.55-1.781-.746-2.336a9 9 0 0 1-.406-1.563c0-.03 0-.058.015-.09.02-.038.04-.062.04-.109-.009-.156-.005-.55-.09-.672-.094-.027-.235-.004-.336-.007.101-.012.207-.008.312-.008m0 0" style="stroke:none;fill-rule:nonzero;fill:#0d4b72;fill-opacity:1"/><path d="M12.496 4.957c.438.055.797.043 1.207-.137-.012.352-.066.606-.332.852-.129.121-.262.23-.387.36a2.5 2.5 0 0 0-.238.394 8 8 0 0 0-.539.027c-.152.012-.352.055-.504.027l-.004-.015c.281-.145.621-.152.922-.23-.41-.114-.789-.063-1.2.007.036-.043.106-.074.15-.101-.005 0-.008-.004-.012 0-.125.015-.274.172-.371.257.335-.52 1.023-.37 1.546-.578.098-.054.2-.11.293-.172-.504.22-1.058.122-1.566.293-.305.106-.512.262-.652.547.05-.355.18-.672.382-.968.094-.165.196-.348.329-.48a.52.52 0 0 1 .41-.165 5 5 0 0 1 .566.082m0 0" style="stroke:none;fill-rule:nonzero;fill:#325872;fill-opacity:1"/><path d="M11.191 5.52c.094-.165.196-.348.329-.48a.52.52 0 0 1 .41-.165 5 5 0 0 1 .566.082c-.133.082-.476-.016-.7.09a.8.8 0 0 0-.339.332c-.023.039-.039.113-.07.144-.043.043-.133.07-.188.09q-.001-.016.004-.027Zm0 0" style="stroke:none;fill-rule:nonzero;fill:url(#g)"/><path d="M11.191 5.52c.094-.165.196-.348.329-.48a.52.52 0 0 1 .41-.165c-.008.008-.016.012-.024.02-.066.054-.176.062-.254.109-.21.121-.32.387-.449.582Zm0 0" style="stroke:none;fill-rule:nonzero;fill:#4d595f;fill-opacity:1"/><path d="M12.355 5.145c.18-.024.372.043.547.07.11.015.22.015.328.012a3.3 3.3 0 0 1-.824.171c-.25.043-.605.075-.86.063.263-.102.532-.281.81-.316m0 0" style="stroke:none;fill-rule:nonzero;fill:#64767e;fill-opacity:1"/><path d="M17.012 9.25c.246.227.453.535.468.879.024.574-.43 1.16-.796 1.559-.465.492-1.028.87-1.465 1.39.039-.441.14-.855.324-1.258.082-.172.187-.351.25-.535.375-.23.453-.555.594-.945.175-.13.293-.27.328-.496.023-.137.008-.281 0-.422.383.387.515.828.555 1.363.085-.594.023-1-.258-1.535m0 0" style="stroke:none;fill-rule:nonzero;fill:#0782ae;fill-opacity:1"/><path d="M11.8 8.5c.067.047.13.09.208.121a.57.57 0 0 0 .453-.039c.074.395.168.734.39 1.07.047.383 1.086 1.051 1.344 1.414-.004.079-.02.164.004.246-.164.387-.344.77-.554 1.137.402-.402.906-1.129 1.203-1.629.066.215.168.508.058.723-.062.121-.164.227-.258.324-.359.383-.824.727-1.332.875l-.046.012c.273-.328.593-.848.554-1.293-.039-.406-.414-.684-.664-.973a5 5 0 0 1-.426-.582c-.168-.281-.254-.594-.34-.91-.16-.07-.289-.117-.468-.113-.047.101-.102.21-.106.324-.015.406.102.855.172 1.254.145.816.207 1.437.508 2.223q.023.058.05.117a1.4 1.4 0 0 1-.34-.125c-.347-.227-.41-.524-.519-.903.032-.058.07-.109.11-.164.043.23.086.465.164.684.055.156.12.281.273.355l-.027-.039c-.219-.343-.559-2.824-.555-3.27.004-.28.086-.566.145-.839m0 0" style="stroke:none;fill-rule:nonzero;fill:#b49c83;fill-opacity:1"/><path d="M20.313 12.21c.343.427.59.954.828 1.446q.268.551.52 1.114c.405.953.75 1.937 1.085 2.914.09.257.363.91.344 1.148-.012.168-.086.344-.14.5-.009 0-.012 0-.02-.004 0-.004-.227-.765-.25-.84a37 37 0 0 0-.653-1.87c-.144-.372-.304-.735-.457-1.106a28 28 0 0 0-.86-1.88c-.132-.25-.273-.577-.476-.773a.24.24 0 0 0-.18-.074c-.519.024-1.074.895-1.241 1.313-.032.078-.192.593-.211.617l-.016-.012q-.001.017.004.027.001.017.008.028l-.004.008-.02-.008-.008-.051.028-.207c.133-.574.445-1.285.851-1.719a2 2 0 0 1 .442-.351c.133-.086.277-.164.425-.22m0 0" style="stroke:none;fill-rule:nonzero;fill:#fefefe;fill-opacity:1"/><path d="M9.969 5.363c-.07-.488.039-.945.336-1.343.101-.133.25-.305.422-.332.222-.036.683.292.886.386.184.09.38.164.578.219.735.195 1.532.137 2.278.05-.457.157-.93.407-1.41.462-.141.015-.282.008-.418-.008-.25-.031-.723-.176-.942-.047-.183.105-.32.3-.457.46-.219.263-.449.532-.605.845-.043.09-.07.183-.098.28-.004-.456.18-.894.375-1.296-.254.2-.422.473-.59.746.008-.09.067-.336.028-.398l-.036-.012c-.074.215-.144.414-.191.637-.062-.485.102-1.02.285-1.465-.078.023-.164.187-.2.258a2.1 2.1 0 0 0-.241.558m0 0" style="stroke:none;fill-rule:nonzero;fill:#325872;fill-opacity:1"/><path d="M10.41 4.547c.004-.008.008-.012.016-.02.11-.16.242-.57.441-.629.211.012.61.344.781.485-.421.023-.668.054-.964.383-.114.125-.356.437-.368.609-.074.215-.144.414-.191.637-.062-.485.102-1.02.285-1.465m0 0" style="stroke:none;fill-rule:nonzero;fill:#64767e;fill-opacity:1"/><path d="M14.688 4.527c.453.063.89.078 1.343.016.055.129.114.258.16.39-.035.028-.062.051-.066.098-.008.043.004.09.012.13.031.12.191.76.238.808-.102.054-.145.152-.215.183-.05.024-.125.032-.18.043a1 1 0 0 0-.058-.164c-.043-.031-.086-.05-.129-.074-.215-.074-.953-.074-1.14.02-.192.097-.344.32-.497.468-.3.008-.601.028-.902.051.187-.277.508-.445.656-.754.145-.3.043-.664.23-.965.169-.101.372-.152.547-.25m0 0" style="stroke:none;fill-rule:nonzero;fill:#edcba8;fill-opacity:1"/><path d="M15.32 5.625c.176.023.418.023.532.184a.45.45 0 0 1 .07.222c-.043-.031-.086-.05-.129-.074a.4.4 0 0 0-.191-.227c-.086-.05-.188-.078-.282-.105m0 0" style="stroke:none;fill-rule:nonzero;fill:#edcbab;fill-opacity:1"/><path d="M13.918 27.5c.5-.047 1.012-.176 1.5-.297.312-.074.848-.265 1.152-.242l.004.031-.004-.027.016.004c.098.136.008.43.086.605q-.001.006.004.012a.2.2 0 0 0-.004.098c.058-.059.098-.172.133-.247.133-.12.246-.257.363-.386.172.191.344.387.516.578.113.121.308.273.378.422a14 14 0 0 1-3.195.336c-.336 0-.672-.051-1.004-.043l.04-.02c.042-.148.011-.363.011-.52.008-.097.004-.202.004-.304m0 0" style="stroke:none;fill-rule:nonzero;fill:#0782ae;fill-opacity:1"/><path d="M11.926 8.883c.18-.004.308.043.469.113.085.316.171.629.34.91.124.207.273.399.425.582.25.29.625.567.664.973.04.445-.281.965-.554 1.293-.102.031-.204.05-.305.07-.172-.453-.266-.914-.399-1.375l-.027-.004c-.035-.164-.078-.324-.11-.484h-.015c-.023.125.121.476.059.555.074.449.183.894.367 1.312-.094-.008-.195-.004-.29-.027q-.027-.06-.05-.117c-.3-.786-.363-1.407-.508-2.223-.07-.399-.187-.848-.172-1.254.004-.113.059-.223.106-.324m0 0" style="stroke:none;fill-rule:nonzero;fill:#edcba8;fill-opacity:1"/><path d="M12.473 11.516c-.078-.356-.203-1.094-.172-1.457.031.312.094.629.164.933.031.149.078.305.101.457l-.027-.004c-.035-.164-.078-.324-.11-.484h-.015c-.023.125.121.476.059.555m0 0" style="stroke:none;fill-rule:nonzero;fill:#02173b;fill-opacity:1"/><path d="m14.906 14.508.055.027.02.055c.019.039.035.07.078.09a.3.3 0 0 0 .066.015l.047.008c.086-.047.133-.082.172-.172l.031.04c-.148.777-.102 1.577-.035 2.359q.036.438.09.875c.035.289.078.582.129.87q.07.436.16.864.094.434.199.856c.379 1.437.98 2.937 1.61 4.285-.114.175-.243.363-.403.5-.203-.364-.375-.754-.55-1.133-.157-.332-.325-.66-.466-1-.105-.258-.187-.527-.285-.793-.625-1.715-1.097-3.5-1.27-5.32-.054-.594-.105-1.211.016-1.801.035-.242.192-.438.336-.625m0 0" style="stroke:none;fill-rule:nonzero;fill:#708896;fill-opacity:1"/><path d="m14.906 14.508.055.027.02.055c.019.039.035.07.078.09a.3.3 0 0 0 .066.015l.047.008c-.004 0-.008.004-.012.004-.039.008-.094.02-.125-.008-.05-.039-.062-.113-.125-.125-.12.063-.238.301-.277.43-.004.016-.004.012 0 .031.02-.02.035-.035.062-.05.125-.087.059-.22.305-.188.066.008.11.023.152.078v.023l-.015-.011c-.082-.047-.133-.094-.235-.067a.23.23 0 0 0-.144.121.27.27 0 0 0-.02.192.4.4 0 0 0 .04.07c-.012.063-.036.133-.02.2.015.019.027.034.05.05l-.05.05-.008-.003-.055.008a.56.56 0 0 1-.09-.344l-.035-.031c.035-.242.192-.438.336-.625m0 0" style="stroke:none;fill-rule:nonzero;fill:#64767e;fill-opacity:1"/><path d="M14.605 15.164c.012-.043.02-.086.055-.117.035.039.031.332.09.453l-.055.008a.56.56 0 0 1-.09-.344m0 0" style="stroke:none;fill-rule:nonzero;fill:#325872;fill-opacity:1"/><path d="M16.36 22.605a1 1 0 0 1 .074.02.32.32 0 0 1 .16.168.26.26 0 0 1-.012.21c-.039.079-.105.102-.184.126q-.006-.005-.007-.004a1 1 0 0 1-.078-.016.34.34 0 0 1-.16-.172.25.25 0 0 1 .011-.21c.043-.075.117-.102.195-.122m0 0" style="stroke:none;fill-rule:nonzero;fill:#011e45;fill-opacity:1"/><path d="m16.355 22.805.028-.004c.031.015.047.02.062.058.012.036.008.09-.015.118-.028.043-.059.039-.102.05a.2.2 0 0 1-.07-.105c.012-.035.035-.055.062-.078v.015h.008Zm0 0" style="stroke:none;fill-rule:nonzero;fill:#0d4b72;fill-opacity:1"/><path d="M15.328 19.262c.047.008.09.011.133.035.066.039.113.113.133.187a.31.31 0 0 1-.035.25c-.04.063-.086.086-.157.102-.05 0-.097 0-.144-.023a.31.31 0 0 1-.106-.418c.04-.079.094-.106.176-.133M14.777 15.203a.4.4 0 0 1-.039-.07.27.27 0 0 1 .02-.192.23.23 0 0 1 .144-.12c.102-.028.153.019.235.066l.015.011c.063.125.07.23.028.364-.04.11-.125.25-.235.3a.22.22 0 0 1-.164.012c-.035-.011-.062-.043-.086-.066l.055-.008.008.004.05-.05c-.023-.017-.035-.032-.05-.052-.016-.066.008-.136.02-.199m0 0" style="stroke:none;fill-rule:nonzero;fill:#011e45;fill-opacity:1"/><path d="M14.777 15.203c.078.016.153.02.235.024-.055.101-.094.164-.2.222l-.003.004c-.024-.015-.036-.031-.051-.05-.016-.067.008-.137.02-.2m0 0" style="stroke:none;fill-rule:nonzero;fill:#7291a0;fill-opacity:1"/><path d="M10.668 15.074c.16.34.379.625.57.946-.011.484-.09.96-.152 1.445a30 30 0 0 0-.188 1.973q-.04.844-.039 1.695c0 .449.024.898.004 1.351a9 9 0 0 1-.086.84c-.129.887-.332 1.758-.527 2.63-.11.483-.25.983-.293 1.48l-.348-.149c.043-.187.02-.457.028-.656.015-.43.039-.863.097-1.29.102-.706.325-1.382.473-2.081.066-.313.086-.625.117-.942.024-.222.055-.445.059-.668.015-.558-.11-1.125-.149-1.683q-.018-.242-.03-.485a10 10 0 0 1-.013-.488 10 10 0 0 1 0-.488 20.143 20.143 0 0 1 .05-.973q.024-.245.052-.484.03-.245.066-.485t.082-.48c.063-.336.121-.687.227-1.008m0 0" style="stroke:none;fill-rule:nonzero;fill:#708896;fill-opacity:1"/><path d="M10.238 24.473c.07 0 .13.015.176.066a.22.22 0 0 1 .059.164c-.008.09-.047.137-.11.195q-.02.007-.043.008a.17.17 0 0 1-.12-.043.19.19 0 0 1-.063-.136.32.32 0 0 1 .101-.254M10.516 19.965c.03-.004.062-.008.09 0a.2.2 0 0 1 .124.101q.012.01.012.02l.012.023q.001.012.008.024-.001.017.004.027v.051000000000000004q-.005.012-.004.023-.004.012-.008.024c-.02.062-.055.09-.113.12-.02.005-.032.005-.051.005a.18.18 0 0 1-.14-.063.22.22 0 0 1-.048-.164c.008-.09.043-.14.114-.191M10.594 22.176q.032-.002.062.008c.047.011.086.054.106.097.035.067.039.149.011.223a.2.2 0 0 1-.128.133c-.075-.02-.13-.04-.172-.106a.24.24 0 0 1-.028-.191c.024-.086.075-.121.149-.164M10.86 16.094a.28.28 0 0 1 .171.086c.04.047.051.105.043.164-.011.11-.066.172-.148.238q-.013-.002-.031-.004a.2.2 0 0 1-.149-.082.24.24 0 0 1-.035-.187c.02-.102.066-.157.148-.215M10.613 17.898q.031.004.063.008c.047.012.094.051.117.09.039.07.039.152.016.227-.024.086-.07.129-.149.172a.3.3 0 0 1-.098-.024.26.26 0 0 1-.12-.137q-.006-.017-.008-.027c-.004-.008-.004-.02-.004-.027-.004-.008-.004-.02-.004-.028v-.027q-.001-.017.004-.027.002-.017.004-.028l.011-.027c0-.008.004-.02.008-.027.04-.07.09-.09.16-.118m0 0" style="stroke:none;fill-rule:nonzero;fill:#011e45;fill-opacity:1"/><path d="m18.371 12.3.008-.003c.094.055.754.207.945.27-.105.16-.226.304-.332.46l-.129.196-.117.199c-.035.066-.074.137-.105.203q-.054.105-.102.21-.047.106-.09.216a5 5 0 0 0-.148.437 5 5 0 0 0-.063.223c-.047.195-.105.414-.105.613-.035-.144-.035-.3-.051-.445-.027-.379-.05-.742-.05-1.121-.184.672-.126 1.762-.075 2.46-.105 0-.21-.003-.312.009-.5.015-.993.085-1.485.168-.168.027-.344.046-.508.09.02-.919.426-2.387 1.102-3.016.101-.094.207-.172.32-.25.211-.145 1.211-.727 1.297-.918m0 0" style="stroke:none;fill-rule:nonzero;fill:#708896;fill-opacity:1"/><path d="M12.594 8.055c-.016-.028-.012-.028-.04-.043-.03.035-.027.097-.034.144-.02.098-.047.211-.141.27a.39.39 0 0 1-.309.027c-.265-.078-.593-.515-.718-.754-.11-.21-.149-.43-.079-.656a.49.49 0 0 1 .235-.305.51.51 0 0 1 .402.004c.246.098.586.406.73.63.04.062.067.14.094.206l.036-.062c.07-.133.164-.23.246-.352.105-.152.09-.281.054-.453q.3.057.606.066c.14.004.293-.007.433.02.098.242.547 1.043.774 1.148.144.067.437-.062.574-.117l.09-.047.043-.023.008-.098c.086-.066.144-.172.199-.258a2.5 2.5 0 0 0 .215-.465c.11.29.258.606.554.743.059.027.106.054.168.035l.078-.05v.097c-.109.11-.308.238-.37.375l-.032-.004v.012q-.012.005-.02.011c-.03.016-.019.008-.042.035.007.07.03.16-.012.22-.05.027-.09.01-.145.003-.093.031-.328.11-.375.195q-.004.006-.007.012c.074-.012.14-.078.21-.105.06-.036.126-.055.184-.082.055.02.094.05.149.058l.027-.027c.039.058.062.129.101.183-.074.032-.152.028-.23.032a1 1 0 0 0-.129.02l.121.01c-.05.005-.105.009-.152.028.05.047.187.024.254.055q.023.01.047.02l-.024.011c.047.012.102.024.14.059a.22.22 0 0 1-.007.148c-.031.059-.09.082-.148.094-.118.023-.27.012-.391.004.008.043.004.07.043.098.101.062.27-.008.36.082l.011.054c.023.153.05.309.066.465-.07.024-.132.117-.195.16-.305.211-.875.149-1.223.094-.523-.086-1.437-.363-1.78-.785-.13-.16-.216-.363-.302-.55-.082-.165-.234-.548-.328-.673-.008-.008-.011-.015-.02-.02m0 0" style="stroke:none;fill-rule:nonzero;fill:#edcba8;fill-opacity:1"/><path d="M15.922 8.168c.144.05.27.11.414.031q.006-.004.012-.008c.007.07.03.16-.012.22-.05.027-.09.01-.145.003l.055-.012c-.016-.093-.266-.125-.324-.234m0 0" style="stroke:none;fill-rule:nonzero;fill:#edcbab;fill-opacity:1"/><path d="m15.84 7.441.02.02q.028.03.058.066l.031.008c.031.027.055.05.078.082-.043-.004-.078-.015-.117.016-.05.035-.074.11-.098.164-.039.07-.042.133-.054.21a.1.1 0 0 1-.02-.03c-.043-.09-.011-.176.016-.262l.035-.055c.004-.05-.012-.094-.008-.14s.024-.051.059-.079m0 0" style="stroke:none;fill-rule:nonzero;fill:#cf9f7c;fill-opacity:1"/><path d="M15.813 7.797c.023-.055.046-.129.097-.164.04-.031.074-.02.117-.016q-.001.011-.007.016c-.012.02-.02.023-.043.035-.047.027-.11.09-.122.144a.14.14 0 0 0 .024.118c.02.03.035.043.074.054.078-.015.16-.117.238-.156l.309-.008c-.043.047-.402.196-.477.211-.05.016-.105.02-.148-.015-.062-.051-.059-.149-.062-.22m0 0" style="stroke:none;fill-rule:nonzero;fill:#02173b;fill-opacity:1"/><path d="M16.375 9.363c-.152 0-.316 0-.469.02l-.027.004-.004-.024.027-.011a1.3 1.3 0 0 0-.129-.305.2.2 0 0 1-.023-.063l.043.016c.066.035.121.07.168.129.008.043.004.07.043.098.101.062.27-.008.36.082Zm0 0" style="stroke:none;fill-rule:nonzero;fill:#cf9f7c;fill-opacity:1"/><path d="M15.82 8.922c-.105-.008-.379-.031-.449-.106l.012-.011c.066-.024.648-.106.738-.106l.121.012c-.05.004-.105.008-.152.027.05.047.187.024.254.055q.023.01.047.02l-.024.011a3 3 0 0 0-.66.047q.06.023.113.05m0 0" style="stroke:none;fill-rule:nonzero;fill:#02173b;fill-opacity:1"/><path d="M16.5 7.82s.004-.008.008-.008c.066-.07.215-.054.305-.05-.11.11-.31.238-.372.375l-.03-.004v.012q-.014.005-.02.011c-.032.016-.02.008-.043.035q-.006.004-.012.008c-.145.078-.27.02-.414-.031a.46.46 0 0 1-.164-.16c.012-.078.015-.14.055-.211.003.07 0 .168.062.219.043.035.098.03.148.015.075-.015.434-.164.477-.21m0 0" style="stroke:none;fill-rule:nonzero;fill:#b49c83;fill-opacity:1"/><path d="M11.77 7.898c.105.079.285.133.355.243-.11-.016-.36-.172-.453-.239a.72.72 0 0 1-.3-.507.48.48 0 0 1 .097-.391.33.33 0 0 1 .246-.121.4.4 0 0 1 .297.129c.27.27.168.394.175.695.004.121.126.191.204.266v.023c-.016 0-.02.004-.036 0-.128-.012-.226-.094-.3-.191l-.012-.016a.7.7 0 0 0-.281.07Zm0 0" style="stroke:none;fill-rule:nonzero;fill:#02173b;fill-opacity:1"/><path d="M11.484 7.23V7.22c.028-.082.067-.16.145-.2.078-.035.152-.015.226.012-.007.051-.023.098-.023.149-.121-.012-.23.054-.348.05m0 0" style="stroke:none;fill-rule:nonzero;fill:#b49c83;fill-opacity:1"/><path d="M11.855 7.031c.114.078.2.176.223.317a.5.5 0 0 1-.07.336l.035.105a.7.7 0 0 0-.281.07l.008.04c-.051-.032-.102-.06-.141-.106-.133-.148-.164-.328-.156-.516l.011-.047c.118.004.227-.062.348-.05 0-.051.016-.098.023-.149m0 0" style="stroke:none;fill-rule:nonzero;fill:#edcbab;fill-opacity:1"/><path d="M11.484 7.23c.118.004.227-.062.348-.05l.043.093-.07-.023c-.024.012-.024.008-.028.027-.015.055.004.121 0 .18-.007-.059-.007-.105-.054-.144-.059-.06-.172-.043-.25-.036Zm0 0" style="stroke:none;fill-rule:nonzero;fill:#cf9f7c;fill-opacity:1"/><path d="M11.855 7.031c.114.078.2.176.223.317a.5.5 0 0 1-.07.336c-.059.043-.121.062-.188.09l-.011.011-.024-.004c-.004-.023-.012-.031-.027-.05a.4.4 0 0 1 .031-.18c-.008-.031-.008-.063-.012-.094.004-.059-.015-.125 0-.18.004-.02.004-.015.028-.027l.07.023-.043-.093c0-.051.016-.098.023-.149m0 0" style="stroke:none;fill-rule:nonzero;fill:#9f8468;fill-opacity:1"/><path d="M11.777 7.457c.004-.059-.015-.125 0-.18.004-.02.004-.015.028-.027l.07.023c.012.02.027.032.023.059a.6.6 0 0 1-.109.219c-.008-.031-.008-.063-.012-.094m0 0" style="stroke:none;fill-rule:nonzero;fill:#b49c83;fill-opacity:1"/><path d="M11.758 7.73q.012-.004.02-.015c.081-.067.058-.242.152-.274.035.02.035.028.054.063q.001.046-.004.094a.5.5 0 0 1-.168.144c.004.024 0 .016.008.031l-.011.012-.024-.004c-.004-.023-.012-.031-.027-.05m0 0" style="stroke:none;fill-rule:nonzero;fill:#cf9f7c;fill-opacity:1"/><path d="M21.75 21.094a.14.14 0 0 1 .086-.028c.129-.007.262.012.39.02a4.192 4.192 0 0 0 1.363-.172c-.093.309-.245.555-.39.836-.222.422-.46.828-.715 1.23-.257.399-.527.79-.816 1.165-.227.296-.473.574-.711.859-.227.273-.441.555-.695.797-.516-.446-1.153-.84-1.742-1.176.05-.09.101-.184.168-.266.19-.312.351-.636.523-.957l.723-1.332c.14-.265.261-.554.43-.8.234-.04.448-.184.679-.247.238 0 .469.063.707.07m0 0" style="stroke:none;fill-rule:nonzero;fill:#708896;fill-opacity:1"/><path d="M21.75 21.094a.14.14 0 0 1 .086-.028c.129-.007.262.012.39.02a4.192 4.192 0 0 0 1.363-.172c-.093.309-.245.555-.39.836-.222.422-.46.828-.715 1.23-.257.399-.527.79-.816 1.165-.227.296-.473.574-.711.859-.227.273-.441.555-.695.797-.516-.446-1.153-.84-1.742-1.176.05-.09.101-.184.168-.266.367.246.714.555 1.18.575.644.027 1.187-.45 1.632-.86-.422-.031-1.027-.168-1.406-.37.875-.102 1.804-.329 2.426-1-.2.019-.395.073-.59.108-.43.075-.926.094-1.352-.015.711-.164 1.293-.356 1.914-.742.278-.172.524-.356.738-.606-.527.078-1.437.133-1.953 0 .555-.012 1.211-.004 1.703-.285-.394 0-.843.016-1.23-.07m0 0" style="stroke:none;fill-rule:nonzero;fill:#0d4b72;fill-opacity:1"/><path d="M18.016 17.105c.09.54.222 1.051.406 1.563.195.555.726 1.785.746 2.336.008.254-.09.52-.133.766-.363-.594-.668-1.215-1.02-1.813-.245.129-.515.219-.75.355.098.254.258.493.38.739.187.367.378.726.566 1.094.133.257.254.527.406.777-.097.176-.183.36-.285.535-.129.223-.289.438-.441.648-.067.094-.137.211-.22.29-.89-1.899-1.612-3.887-1.901-5.973a10 10 0 0 1-.114-1.059c.781-.117 1.582-.129 2.36-.258M18.566 14.707l.008.05.02.009.004-.008q-.007-.011-.008-.028-.005-.01-.004-.027l.016.012c.02-.024.18-.54.21-.617.168-.418.723-1.29 1.243-1.313a.24.24 0 0 1 .18.074c.203.196.343.524.476.774.316.617.59 1.242.86 1.879.152.37.312.734.456 1.105a37 37 0 0 1 .653 1.871c.023.075.25.836.25.84a.04.04 0 0 0 .02.004c-.04.113-.079.227-.102.344l.164-.238c.18.421.3.87.504 1.285-.211.117-.664.144-.907.132-.172-.011-.343-.011-.515-.015-.34-.02-.965-.047-1.285-.004-.102.016-.176.078-.278.094q.05-.111.106-.227a4 4 0 0 1 1.64-.32c.282.012.547.07.82.137-.062-.051-.124-.102-.19-.145-.5-.352-1.173-.285-1.739-.184a2.4 2.4 0 0 1-.57.188c.379-.219.902-.567 1.332-.652.03-.004.039-.004.066-.024l-.016-.008c-.113.008-.242.059-.351.094-.457.133-.89.27-1.317.477a2.6 2.6 0 0 1-.335-.496c.472-.266.882-.739 1.246-1.13.117-.12.289-.265.359-.417v-.032l-.027.028.004-.008a5.6 5.6 0 0 1-1.664 1.227c.003-.063.011-.13 0-.192a.4.4 0 0 1-.07-.039c-.02-.016-.024-.02-.048-.027l-.074.05c-.031-.097.64-1.253.735-1.437.042-.11.19-.313.195-.41l-.031.008v-.078c-.098.101-.18.218-.27.324-.262.297-.512.593-.762.898-.023-.824.336-1.687.586-2.465l-.043-.015c.016-.059.028-.082.004-.145.02-.086.07-.14.063-.234-.297.36-.754 1.203-.903 1.652a8.7 8.7 0 0 1 .137-1.715c.035-.215.086-.422.121-.636.09-.293.156-.606.235-.907-.102.172-.184.364-.266.543-.356.653-.645 1.707-.676 2.442-.152-.606-.387-1.746-.262-2.348m0 0" style="stroke:none;fill-rule:nonzero;fill:#708896;fill-opacity:1"/><path d="M20.602 17.313c.082-.122.18-.235.273-.348-.05.14-.102.285-.156.422h-.028c-.101.12-.144.297-.253.406.042-.11.19-.313.195-.41l-.031.008Zm0 0" style="stroke:none;fill-rule:nonzero;fill:#0d4b72;fill-opacity:1"/><path d="M20.18 15.676c.07-.117.152-.227.234-.336-.078.246-.176.484-.258.73l-.043-.015c.016-.059.028-.082.004-.145.02-.086.07-.14.063-.234m0 0" style="stroke:none;fill-rule:nonzero;fill:#02173b;fill-opacity:1"/><path d="M20.438 17.793c.109-.11.152-.285.253-.406h.028c-.114.36-.301.699-.461 1.039-.113.25-.211.512-.348.75.55-.274 1.11-.567 1.574-.98.133-.118.246-.25.371-.376-.18.551-.625 1.063-1.015 1.477-.152.156-.332.316-.457.496.66.035 1.531-.18 2.18-.316-.22.12-1.317.613-1.399.699l.004.015a2.4 2.4 0 0 1-.57.188c.379-.219.902-.567 1.332-.652.03-.004.039-.004.066-.024l-.016-.008c-.113.008-.242.059-.351.094-.457.133-.89.27-1.317.477a2.6 2.6 0 0 1-.335-.496c.472-.266.882-.739 1.246-1.13.117-.12.289-.265.359-.417v-.032l-.027.028.004-.008a5.6 5.6 0 0 1-1.664 1.227c.003-.063.011-.13 0-.192a.4.4 0 0 1-.07-.039c-.02-.016-.024-.02-.048-.027l-.074.05c-.031-.097.64-1.253.735-1.437m0 0" style="stroke:none;fill-rule:nonzero;fill:#0d4b72;fill-opacity:1"/><path d="M11.797 13.188c.32.269.707.402 1.129.367.812-.067 1.562-.59 2.07-1.2a2 2 0 0 0 .14-.18c-.085.262-.171.52-.241.786-.043.176-.07.363-.13.531-.183.551-.445 1.063-.554 1.637-.184.254-.36 1.625-.426 2-.023.129-.129.555-.113.652 0 .004.004.012.004.02l-.055.16c.156-.195.293-.402.422-.617.102.207.105.933.07 1.176-.015.132-.062.27-.105.398-.121.348-.27.68-.403 1.023-.007.024-.007.043-.007.067a8 8 0 0 1-.438.719c-.12.183-.254.359-.36.546.61-.375 1.24-1.05 1.637-1.644.043.086.047.219.063.312.035.223.078.446.105.672.02.14.02.297.055.434-.191.437-.535.86-.84 1.223a5.4 5.4 0 0 0 1-.797c.133.257.184.554.188.84 0 .105-.008.214 0 .32-.414.625-.969 1.12-1.528 1.617.805-.395 1.192-.695 1.825-1.32.218.386.05.883-.02 1.285-.23.234-.48.426-.738.625q.182-.063.36-.145c.12-.05.238-.11.35-.168q.173-.094.333-.199.164-.104.32-.226c.031.226.074.46.133.68a20 20 0 0 1-1.758.566c-.242.062-.5.093-.738.168a10 10 0 0 0 1.703-.106c.352-.058.691-.152 1.04-.219-.165.145-.743.368-.985.489-.664.12-1.348.125-2.016.07-.293-.02-.586-.059-.879-.078-.254-.016-.512-.008-.765-.012.273-.07.558-.086.832-.152.609-.149 1.55-.574 2.007-1q-.645.275-1.312.48c-.18-.027-.953.164-1.215.207-.227.032-.46.043-.691.047.222-.394.699-.824 1.023-1.16.086-.086.23-.191.277-.3.16-.165.352-.298.516-.458.379-.363.742-.746 1.113-1.12-.187.089-.37.245-.543.366-.343.242-.683.48-1.039.7-.125.02-.25.074-.375.105-.117.031-.508.148-.613.078-.02-.015-.023-.039-.027-.062-.008-.036-.016-.102.004-.133.078-.117.668-.371.785-.563l.011-.023c.305-.152.559-.363.809-.594-.234.102-.477.18-.723.242-.007 0-.02 0-.027-.004-.168-.046-.578-.296-.672-.441-.125-.195-.11-1.383-.082-1.68.024-.277.063-.57.129-.843.309.218.68.316 1.043.394a5 5 0 0 1-.437-.402c-.106-.242-.278-.453-.38-.7a3 3 0 0 1-.203-.843c-.05-.57.02-1.137.008-1.703-.011-.57-.09-1.141-.113-1.711-.016-.27-.004-.543.004-.817.008-.113-.004-.277.043-.383m0 0" style="stroke:none;fill-rule:nonzero;fill:#fefefe;fill-opacity:1"/><path d="M14.48 13.258v.012c-.011.074-.164.23-.21.293-.532.664-1.16 1.257-1.891 1.699.004-.028 1.32-1.215 1.434-1.32.226-.22.457-.446.667-.684m0 0" style="stroke:none;fill-rule:nonzero;fill:#011e45;fill-opacity:1"/></svg>