<svg xmlns="http://www.w3.org/2000/svg" width="50" height="50"><defs><linearGradient id="a" x1="645.118" x2="654.085" y1="762.671" y2="770.083" gradientTransform="rotate(.505)scale(.04883)" gradientUnits="userSpaceOnUse"><stop offset="0" style="stop-color:#58778c;stop-opacity:1"/><stop offset="1" style="stop-color:#6b8c9c;stop-opacity:1"/></linearGradient><linearGradient id="b" x1="388.634" x2="390.378" y1="112.846" y2="118.192" gradientTransform="rotate(.505)scale(.04883)" gradientUnits="userSpaceOnUse"><stop offset="0" style="stop-color:#67737c;stop-opacity:1"/><stop offset="1" style="stop-color:#84898a;stop-opacity:1"/></linearGradient><linearGradient id="c" x1="511.211" x2="539.291" y1="98.558" y2="100.409" gradientTransform="rotate(.505)scale(.04883)" gradientUnits="userSpaceOnUse"><stop offset="0" style="stop-color:#507179;stop-opacity:1"/><stop offset="1" style="stop-color:#93908f;stop-opacity:1"/></linearGradient><linearGradient id="d" x1="570.493" x2="554.728" y1="131.524" y2="115.714" gradientTransform="rotate(.505)scale(.04883)" gradientUnits="userSpaceOnUse"><stop offset="0" style="stop-color:#364f60;stop-opacity:1"/><stop offset="1" style="stop-color:#526974;stop-opacity:1"/></linearGradient><linearGradient id="e" x1="353.939" x2="340.086" y1="547.267" y2="544.125" gradientTransform="rotate(.505)scale(.04883)" gradientUnits="userSpaceOnUse"><stop offset="0" style="stop-color:#4a768d;stop-opacity:1"/><stop offset="1" style="stop-color:#8da9b4;stop-opacity:1"/></linearGradient><linearGradient id="f" x1="592.427" x2="599.517" y1="319.242" y2="308.878" gradientTransform="rotate(.505)scale(.04883)" gradientUnits="userSpaceOnUse"><stop offset="0" style="stop-color:#5a8d99;stop-opacity:1"/><stop offset="1" style="stop-color:#859fb7;stop-opacity:1"/></linearGradient><linearGradient id="g" x1="407.981" x2="394.641" y1="183.489" y2="173.343" gradientTransform="rotate(.505)scale(.04883)" gradientUnits="userSpaceOnUse"><stop offset="0" style="stop-color:#6f797c;stop-opacity:1"/><stop offset="1" style="stop-color:#8a8a8a;stop-opacity:1"/></linearGradient></defs><path d="M0 0h50v50H0z" style="fill:#fefefe;fill-opacity:1;stroke:none"/><path d="M17.29 5.64c.108.098.214.196.327.29-.734.496-1.156 1.23-1.324 2.093-.047.243.016.567-.05.786a6 6 0 0 0-.321.164c-.106.054-.211.113-.317.168q-.153.088-.312.175c-.102.063-.203.121-.309.184l-.304.188a8 8 0 0 0-.301.195q-.151.1-.3.199c-.099.066-.196.137-.294.203l-.293.211q-.143.107-.285.219-.14.106-.281.219t-.278.226q-.139.117-.273.235a8 8 0 0 0-.27.234q-.136.123-.265.246c-.09.078-.176.164-.262.246a15 15 0 0 0-.254.25q-.128.129-.25.258l-.246.262-.242.265q-.117.134-.234.274c-.079.09-.153.183-.23.273-.075.094-.153.188-.224.281l-.222.282q-.104.144-.215.289-.103.146-.207.293-.105.145-.203.297c-.067.097-.133.199-.196.296-.066.102-.128.204-.195.305a8 8 0 0 0-.183.309c-.063.101-.122.207-.18.308l-.176.317a20.6 20.6 0 0 0-1.36 3.195l-.14.445q-.07.225-.129.45c-.043.152-.082.3-.12.453q-.059.223-.11.453-.05.228-.098.457c-.027.152-.059.305-.082.46-.027.153-.055.305-.074.462-.024.152-.047.308-.067.46-.015.157-.035.31-.05.465a19 19 0 0 0-.067.934 18 18 0 0 0-.02.465q-.004.234-.003.469-.001.229.004.465.006.234.02.468c.007.157.015.309.027.465q.018.235.043.465a19 19 0 0 0 .37 2.305q.052.229.11.453.058.229.121.453c.04.148.086.3.129.45l.14.444c.051.149.102.293.157.442.05.144.105.293.16.437l.176.434c.058.14.12.285.183.426.067.144.13.285.2.425q.098.213.203.418c.09.172.176.34.27.504.09.168.187.332.28.496q.146.248.297.489.154.241.313.476c.105.16.21.317.324.469q.166.233.336.461.17.227.352.45.175.22.363.437c.121.148.25.289.375.43q.194.21.387.417.197.207.402.407a20 20 0 0 0 .832.777q.218.188.434.371.222.182.445.36.223.174.453.343c.57.426 1.195.766 1.777 1.172-.152.906-.21 1.84-.062 2.75-4.367-2.129-7.719-5.656-9.871-9.988a20 20 0 0 1-.672-1.567Q4.757 33.33 4.64 33a43 43 0 0 1-.22-.656 21 21 0 0 1-.37-1.336q-.088-.336-.156-.676a21 21 0 0 1-.133-.68c-.043-.226-.078-.457-.114-.683q-.047-.343-.09-.688c-.027-.23-.046-.46-.066-.691a21 21 0 0 1-.07-1.383q-.005-.345-.004-.691.007-.351.02-.696.018-.345.042-.691.028-.345.067-.692.033-.34.086-.687c.199-1.395.558-2.785 1.008-4.121.234-.695.53-1.367.843-2.031q.134-.281.274-.563c.097-.187.191-.37.293-.555.097-.183.203-.367.308-.546q.155-.271.32-.536.165-.269.34-.53a20 20 0 0 1 .72-1.024q.187-.251.382-.496.194-.248.399-.485.199-.241.41-.476t.422-.461c.144-.153.293-.301.437-.45q.224-.22.453-.437.228-.21.461-.422.236-.205.477-.41.239-.2.484-.395a22.4 22.4 0 0 1 2.61-1.738 20 20 0 0 1 1.765-.894c.406-.176.828-.328 1.223-.524ZM28.27 4.258c.18.031.355.066.535.101.175.036.355.075.53.114l.528.129.528.14q.26.076.52.156.262.077.519.165.259.086.511.18.256.092.512.19.252.096.504.204.25.1.5.215.246.11.492.226.247.116.489.238.245.122.484.25.238.13.476.266c.157.086.313.18.47.273q.231.137.464.286c.152.093.305.195.453.293.153.101.3.203.45.308q.223.159.44.317.224.163.434.328.217.17.426.34c.14.117.281.23.418.351q.206.175.41.356c.133.12.266.246.399.37q.198.187.39.38c.13.125.254.254.383.386q.188.195.371.395.181.204.364.406.175.205.351.414.174.21.344.422c.11.145.222.285.332.434q.164.216.32.437.152.211.297.43.147.22.29.441.141.223.276.446c.09.152.18.3.266.453q.13.227.254.46c.086.153.164.31.246.465q.118.235.23.47l.223.476q.106.239.207.484l.2.485a25 25 0 0 1 .355.988q.087.25.16.5c.055.168.102.336.152.504.047.168.09.34.133.508.047.167.086.34.125.511q.06.253.114.512.051.258.097.516a21 21 0 0 1 .16 1.039q.034.26.063.52l.047.523.035.527.023.523q.007.262.008.524.001.263-.004.527c0 .176-.008.348-.015.524q-.011.264-.028.523a22 22 0 0 1-.097 1.047q-.03.262-.067.523-.035.258-.078.516c-.98 5.703-3.945 10.762-8.703 14.121q-.779.557-1.594 1.055a37 37 0 0 0-.566-2.434q.104-.122.226-.226c.067-.012.11-.047.16-.082q.205-.142.403-.29.199-.145.39-.296c.13-.098.258-.203.387-.305q.19-.159.38-.316c.12-.11.245-.215.366-.329q.182-.164.36-.336.18-.168.355-.343c.113-.114.23-.235.344-.352.11-.12.223-.238.332-.363.11-.121.219-.246.324-.367q.165-.19.317-.38.157-.192.308-.386a35 35 0 0 0 .582-.797q.137-.2.274-.406.136-.207.265-.414.13-.21.254-.422c.086-.14.164-.285.246-.43q.118-.216.23-.433.118-.219.223-.438.112-.223.211-.445c.07-.152.137-.3.2-.453q.099-.224.187-.453.094-.231.176-.461c.058-.157.113-.309.168-.465l.152-.469q.07-.233.14-.473l.13-.472.117-.48q.053-.24.101-.481.054-.242.094-.485l.082-.484c.024-.156.047-.308.067-.465l.058-.46q.024-.234.043-.465c.016-.153.024-.31.035-.465l.024-.465q.007-.234.008-.469a9 9 0 0 0 0-.465 9 9 0 0 0-.012-.465 9 9 0 0 0-.024-.468 10 10 0 0 0-.035-.465 9 9 0 0 0-.047-.461q-.024-.232-.054-.465l-.07-.46q-.035-.229-.083-.462-.041-.228-.09-.457-.047-.223-.101-.453c-.04-.152-.074-.3-.117-.453q-.06-.224-.125-.45-.062-.222-.137-.445-.07-.224-.145-.441c-.05-.149-.105-.293-.16-.442q-.081-.216-.168-.433-.086-.219-.18-.43c-.058-.144-.124-.285-.187-.426a21 21 0 0 0-.203-.421q-.1-.21-.207-.418l-.223-.41q-.112-.205-.23-.403-.118-.205-.242-.402a13 13 0 0 0-.25-.39q-.129-.2-.258-.392c-.09-.124-.18-.253-.27-.378-.074-.098-.144-.196-.218-.293-.075-.098-.145-.192-.223-.29q-.11-.14-.227-.28-.112-.141-.23-.282a15 15 0 0 0-.48-.547q-.124-.136-.247-.265-.125-.133-.25-.266l-.257-.258q-.128-.125-.262-.25a8 8 0 0 0-.266-.25q-.135-.124-.27-.242-.137-.122-.273-.238c-.094-.082-.187-.157-.281-.235q-.141-.115-.281-.23-.142-.111-.29-.223c-.093-.074-.19-.144-.288-.219q-.146-.105-.297-.21a8 8 0 0 0-.297-.208 14 14 0 0 0-.61-.398c-.101-.066-.207-.129-.308-.191-.106-.063-.207-.125-.313-.184q-.157-.092-.316-.18l-.32-.175c-.106-.055-.215-.114-.325-.168a8 8 0 0 0-.324-.16q-.165-.081-.328-.157l-.332-.152-.332-.145q-.171-.069-.336-.136-.17-.067-.34-.133c-1.027-.395-2.07-.723-3.16-.899.14-.183.266-.363.348-.582.25-.672-.043-1.254-.324-1.855m0 0" style="stroke:none;fill-rule:nonzero;fill:#0d4b72;fill-opacity:1"/><path d="M28.246 6.695c1.09.176 2.133.504 3.16.899q.17.067.34.133.166.068.336.136l.332.145q.169.075.332.152.165.075.328.156.166.078.324.16c.11.055.22.114.325.169l.32.175q.157.087.316.18c.106.059.207.121.313.184.101.062.207.125.308.191.102.063.208.129.31.195q.146.1.3.203.151.101.297.207.15.106.297.211c.097.075.195.145.289.22q.147.11.289.222c.093.078.187.152.281.23s.187.153.281.235q.137.116.274.238.135.118.27.242.135.122.265.25.134.125.262.25l.257.258q.125.133.25.266.123.129.246.265a15 15 0 0 1 .711.828q.117.141.227.282c.078.097.148.191.223.289.074.097.144.195.218.293l.27.379q.129.191.258.39.128.193.25.39.124.2.242.403.118.199.23.402l.223.41c.07.141.14.278.207.419q.105.21.203.421c.063.141.13.282.188.426q.091.211.18.43.087.216.167.433c.055.149.11.293.16.442q.075.218.145.441.074.223.137.446.066.224.125.449c.043.152.078.3.117.453q.053.23.101.453.049.228.09.457.048.233.082.461l.07.461q.031.232.055.465c.02.152.035.308.047.46q.024.236.035.466.018.234.024.468c.008.157.012.309.012.465q.004.235 0 .465-.001.234-.008.469l-.024.465c-.011.156-.02.312-.035.465q-.019.232-.043.464l-.058.461c-.02.157-.043.309-.067.465l-.082.485c-.027.16-.058.324-.094.484q-.047.24-.101.48l-.117.48q-.064.237-.13.473-.07.24-.14.473l-.152.469c-.055.156-.11.308-.168.465q-.083.23-.176.46a9 9 0 0 1-.187.454c-.063.152-.13.3-.2.453q-.099.223-.21.445-.106.219-.223.438-.114.216-.23.433c-.083.145-.16.29-.247.43q-.124.21-.254.422-.13.207-.265.414-.137.206-.274.406-.142.205-.289.403-.147.2-.293.394-.151.194-.308.387c-.102.125-.208.254-.317.379-.105.12-.215.246-.324.367-.11.125-.223.242-.332.363-.113.117-.23.238-.344.352q-.175.174-.355.343a15 15 0 0 1-.36.336c-.12.114-.246.22-.367.329-.125.105-.254.21-.379.316-.129.102-.258.207-.387.305q-.191.15-.39.297t-.403.289c-.05.035-.093.07-.16.082l1.414-1.864c.305-.472.649-.914.95-1.386.441-.688 1.859-3.075 1.886-3.817.078-2.215-4.011-12.972-5.453-14.543a6.7 6.7 0 0 0-1.941-1.094c-.067-.023-.196-.054-.227-.12l.051-.114c.031-.16.063-.316.063-.48 0-.774-.555-1.352-1.063-1.868-.176-.164-.398-.3-.547-.492-.094-.129-.12-.316-.191-.457-.14-.277-.399-.523-.61-.742-.441-.387-.879-.71-1.414-.965-.18-.082-.644-.191-.742-.32q-.011-.012-.015-.024c0-.085.355-.386.417-.507.043-.086.06-.203.079-.297l.226-.137c.07-.121.121-.242.168-.375.125-.344.418-1.621.23-1.95-.124-.214-.859-.155-1.09-.214.02-.16.048-.336.032-.496-.055-.461-.578-1.559-.742-2.082.222-.086.43-.192.633-.317.175-.136.308-.312.48-.453m0 0" style="stroke:none;fill-rule:nonzero;fill:#fefefe;fill-opacity:1"/><path d="M38.508 13.059c.574.511 1.246 1.375 1.683 2-1.039.55-2.113 1.039-3.171 1.546l-4.688 2.266c.031-.16.063-.316.063-.48 0-.774-.555-1.352-1.063-1.868.668-.277 1.316-.609 1.965-.921l4.074-1.977c.379-.184.754-.39 1.137-.566M27.766 7.148l.035.012c.23.078.492.117.73.176q.761.194 1.504.422c1.938.613 3.762 1.472 5.426 2.644.488.344.945.73 1.422 1.094-.555.238-1.09.516-1.633.774l-3.95 1.906c-.44.215-.874.457-1.316.656-.441-.387-.879-.71-1.414-.965-.18-.082-.644-.191-.742-.32q-.011-.012-.015-.024c0-.085.355-.386.417-.507.043-.086.06-.203.079-.297l.226-.137c.07-.121.121-.242.168-.375.125-.344.418-1.621.23-1.95-.124-.214-.859-.155-1.09-.214.02-.16.048-.336.032-.496-.055-.461-.578-1.559-.742-2.082.222-.086.43-.192.633-.317M34.45 20.2q2.085-.963 4.136-2l1.562-.782c.375-.188.762-.41 1.164-.55.47.968.95 1.964 1.286 2.987 1.23 3.762 1.215 8.301-.07 12.047a19 19 0 0 1-.63 1.567q-.17.386-.363.765a20 20 0 0 1-.82 1.477q-.222.362-.457.71-.238.353-.488.692-.252.34-.516.668c-.246.305-.531.586-.793.875-.32.356-.898 1.02-1.3 1.262a.2.2 0 0 1-.095.027c.305-.472.649-.914.95-1.386.441-.688 1.859-3.075 1.886-3.817.078-2.215-4.011-12.972-5.453-14.543m0 0" style="stroke:none;fill-rule:nonzero;fill:#c9d1d1;fill-opacity:1"/><path d="M15.484 42.457c-.582-.406-1.207-.746-1.777-1.172q-.23-.168-.453-.344a36 36 0 0 1-.445-.359q-.218-.182-.434-.371c-.14-.125-.281-.25-.422-.383a20 20 0 0 1-.41-.394q-.205-.2-.402-.407l-.387-.418c-.125-.14-.254-.28-.375-.43q-.187-.215-.363-.437a13 13 0 0 1-.352-.449q-.17-.227-.336-.461a10 10 0 0 1-.324-.469 20 20 0 0 1-.313-.476q-.151-.242-.296-.489c-.094-.164-.192-.328-.282-.496-.093-.164-.18-.332-.27-.504a14 14 0 0 1-.202-.418c-.07-.14-.133-.28-.2-.425-.062-.14-.125-.285-.183-.426l-.176-.434c-.055-.144-.11-.293-.16-.437a20 20 0 0 1-.156-.442l-.141-.445c-.043-.148-.09-.3-.129-.45a15 15 0 0 1-.121-.452 15 15 0 0 1-.207-.91q-.046-.23-.086-.457a23 23 0 0 1-.137-.926q-.029-.232-.05-.465a17 17 0 0 1-.043-.465c-.012-.156-.02-.308-.028-.465a19 19 0 0 1-.02-.468q-.004-.236-.003-.465-.001-.235.004-.47.006-.234.02-.464a19 19 0 0 1 .066-.934c.015-.156.035-.308.05-.464q.03-.231.067-.461.032-.234.074-.461c.023-.157.055-.309.082-.461q.048-.23.098-.457.051-.23.11-.453c.038-.153.077-.301.12-.453q.059-.225.13-.45l.14-.445a20.6 20.6 0 0 1 1.36-3.195l.175-.317c.058-.101.117-.207.18-.308q.088-.158.183-.309.099-.152.195-.305c.063-.097.13-.199.196-.296q.098-.152.203-.297.104-.147.207-.293c.074-.098.144-.192.215-.29l.222-.28c.07-.094.149-.188.223-.282.078-.09.152-.183.23-.273q.118-.14.235-.274l.242-.265.246-.262q.122-.129.25-.258.124-.125.254-.25c.086-.082.172-.168.262-.246q.13-.123.265-.246.129-.117.27-.234.134-.118.273-.235.136-.113.278-.226.14-.113.281-.22.142-.111.285-.218l.293-.21c.098-.067.195-.138.293-.204q.151-.1.3-.2t.302-.194l.304-.188q.158-.091.309-.184l.312-.175c.106-.055.211-.114.317-.168a6 6 0 0 1 .32-.164l-.004.386c.055.446.043.883.164 1.32.325 1.184 1.149 2.157 1.774 3.188.187.317.344.64.488.977.086.199.188.402.238.61-1.449.987-2.96 2.253-3.312 4.07-.176.921-.074 1.73.293 2.59-.29.308-.594.597-.899.89-.113.105-.226.246-.351.34-.121.27-.153 1.918-.16 2.3.007.965.035 1.938.214 2.887.07.395.141.785.266 1.164-.2.504-.379.98-.406 1.532.004.503.094.847.332 1.292-.488 1.102-.73 1.352-.379 2.555-.219.383-.336.715-.215 1.156.04.133.098.266.156.387-.07.203-.113.387-.12.602-.032.965.48 2.375.859 3.265.16.383.351.75.511 1.137-.03.133-.062.266-.086.398Zm0 0" style="stroke:none;fill-rule:nonzero;fill:#fefefe;fill-opacity:1"/><path d="M14.457 25.824q-.001-.174.016-.344c.007.965.035 1.938.214 2.887-.18.051-.363.156-.53.238-.493.235-.977.493-1.466.739l-3.214 1.601c-.665.332-1.329.703-2.012.996-.309-.722-.488-1.55-.668-2.312.469-.262.957-.484 1.437-.723q1.16-.569 2.313-1.156l2.414-1.23c.488-.247.98-.512 1.496-.696M8.344 34.14c.3-.16.62-.292.922-.449 1.097-.558 2.207-1.097 3.308-1.644.489-.246 1.5-.848 1.973-.984.004.503.094.847.332 1.292-.488 1.102-.73 1.352-.379 2.555-.219.383-.336.715-.215 1.156.04.133.098.266.156.387-.07.203-.113.387-.12.602-.032.965.48 2.375.859 3.265.16.383.351.75.511 1.137-.03.133-.062.266-.086.398-.238-.117-.44-.304-.664-.449a20 20 0 0 1-1.812-1.34 19 19 0 0 1-1.649-1.53c-.316-.337-.605-.692-.902-1.044-.25-.3-.515-.597-.746-.914-.562-.773-1.008-1.61-1.488-2.437M16.238 9.195c.055.446.043.883.164 1.32.325 1.184 1.149 2.157 1.774 3.188.187.317.344.64.488.977.086.199.188.402.238.61-1.449.987-2.96 2.253-3.312 4.07-.176.921-.074 1.73.293 2.59-.29.308-.594.597-.899.89-.113.105-.226.246-.351.34-.254.015-2.594 1.265-2.996 1.468-1.055.528-2.11 1.055-3.16 1.59-.665.332-1.329.684-2.012.969l-.024-.453q-.01-.23-.015-.453-.005-.23-.004-.457.004-.23.008-.457c.004-.153.011-.301.02-.453q.01-.23.027-.457c.011-.149.027-.301.039-.454.015-.148.035-.3.05-.453q.03-.224.063-.449.034-.227.074-.45.035-.226.082-.448.041-.223.094-.446.047-.223.101-.445c.04-.145.075-.293.118-.437.039-.149.078-.293.125-.442q.064-.216.132-.433c1.47-4.461 4.68-8.403 8.895-10.528a1 1 0 0 1-.012-.297m0 0" style="stroke:none;fill-rule:nonzero;fill:#c9d1d1;fill-opacity:1"/><path d="M25.762 2.86c.683-.036 1.375.156 1.89.62.114.106.23.22.32.344.094.137.176.324.298.434.28.601.574 1.183.324 1.855a2.3 2.3 0 0 1-.348.582c-.172.14-.305.317-.48.453-.203.125-.41.23-.633.317.164.523.687 1.62.742 2.082.016.16-.012.336-.031.496.23.059.965 0 1.09.215.187.328-.106 1.605-.23 1.949a2 2 0 0 1-.169.375l-.226.137c-.02.094-.036.21-.079.297-.062.12-.418.422-.418.507a.1.1 0 0 0 .016.024c.098.129.563.238.742.32.535.254.973.578 1.414.965.211.219.47.465.61.742.07.14.097.328.191.457.149.192.371.328.547.492.508.516 1.063 1.094 1.063 1.868 0 .164-.032.32-.063.48l-.05.113c.03.067.16.098.226.121.703.262 1.36.614 1.941 1.094 1.442 1.57 5.531 12.328 5.453 14.543-.027.742-1.445 3.13-1.886 3.817-.301.472-.645.914-.95 1.386l-1.414 1.864q-.122.104-.226.226c.207.805.414 1.617.566 2.434q-.44.251-.887.484-.448.227-.91.438-.457.211-.925.394-.47.187-.946.352c-.277.097-.558.16-.84.25l-.433.129c-.07.023-.145.039-.211.062l-.738.176c-.434.098-.875.18-1.317.254q-.661.105-1.328.176t-1.336.101c-.45.024-.894.031-1.344.028-.554-.004-1.117-.086-1.672-.075l-.097-.011-.149-.032c-.382-.008-.773-.078-1.152-.117l-.223-.043c-.48-.062-.968-.117-1.437-.242a25 25 0 0 1-2.379-.652l-.176-.059-.32-.117q-.292-.118-.578-.242l-.578-.246a5 5 0 0 1-.594-.27c-.149-.91-.09-1.844.062-2.75l.121-.602q.038-.198.086-.398c-.16-.387-.351-.754-.511-1.137-.38-.89-.89-2.3-.86-3.265.008-.215.051-.399.121-.602a2.6 2.6 0 0 1-.156-.387c-.12-.441-.004-.773.215-1.156-.352-1.203-.11-1.453.379-2.555a2.5 2.5 0 0 1-.332-1.292c.027-.551.207-1.028.406-1.532-.125-.379-.195-.77-.265-1.164-.18-.949-.208-1.922-.215-2.887.007-.382.039-2.03.16-2.3.125-.094.238-.235.351-.34.305-.293.61-.582.899-.89-.367-.86-.469-1.669-.293-2.59.351-1.817 1.863-3.083 3.312-4.07-.05-.208-.152-.411-.238-.61-.144-.336-.3-.66-.488-.977-.625-1.031-1.45-2.004-1.774-3.187-.12-.438-.109-.875-.164-1.32l.004-.387c.067-.22.004-.543.051-.786.168-.863.59-1.597 1.324-2.093-.113-.094-.219-.192-.328-.29-.16-.18-.156-.44-.172-.667.207.343.422.5.762.691-.274-.535-.344-.934-.207-1.527.113.48.332.781.7 1.105.015-.148.042-.285.1-.422.274-.672 1.071-1.199 1.72-1.465.972-.402 2.081-.562 3.12-.37.368.07.723.19 1.086.273.563.125 1.133.222 1.668.445-.421-.488-.898-.633-1.523-.75.707-.05 1.242-.05 1.867.309.348.133.844.508.988.863.012.035.012.043.02.074l.062.063.051-.02c-.207-.554-.586-.91-1.125-1.156-.21-.094-.426-.152-.644-.227m0 0" style="stroke:none;fill-rule:nonzero;fill:#011e45;fill-opacity:1"/><path d="m26.73 10.734-.035-.074.024-.043a.4.4 0 0 1 .086-.027c.05-.004.11.008.144.043l-.015.058Zm0 0" style="stroke:none;fill-rule:nonzero;fill:#02173b;fill-opacity:1"/><path d="M20.738 11.207c.102-.004.25-.031.344 0 .086.027.09.074.121.145-.16-.04-.312-.075-.465-.145m0 0" style="stroke:none;fill-rule:nonzero;fill:#0d4b72;fill-opacity:1"/><path d="M25.266 3.898q.069.007.144.02c.102.016.215.055.277.144.04.06.04.094.04.16-.137-.128-.301-.226-.461-.324m0 0" style="stroke:none;fill-rule:nonzero;fill:#02173b;fill-opacity:1"/><path d="M27.3 14.11c.04-.055.04-.051.11-.063.063.039.102.074.121.148.012.051.012.11-.011.157-.012.023-.036.043-.051.062-.07-.09-.102-.207-.168-.305M24.234 10.422c.024.105.004.23 0 .34l-.316.008c.023-.106.234-.27.316-.348m0 0" style="stroke:none;fill-rule:nonzero;fill:#edcbab;fill-opacity:1"/><path d="M17.512 44.594c.078.027.156.05.226.097.035.086.024.133.012.227-.082-.023-.16-.04-.234-.09-.04-.078-.016-.152-.004-.234m0 0" style="stroke:none;fill-rule:nonzero;fill:#325872;fill-opacity:1"/><path d="m33.246 43.3.125-.132c.066.062.176.152.18.25a.2.2 0 0 1-.012.066c-.05.02-.07.024-.121-.004-.063-.035-.125-.12-.172-.18m0 0" style="stroke:none;fill-rule:nonzero;fill:#64767e;fill-opacity:1"/><path d="M22.926 45.879c-.016-.156-.086-.441.015-.563h.043c.07.157.047.403.047.567Zm0 0" style="stroke:none;fill-rule:nonzero;fill:#325872;fill-opacity:1"/><path d="M21.14 43.773c0-.066-.003-.125.044-.175.113-.059.238-.02.359.011l-.004.137-.328.05Zm0 0" style="stroke:none;fill-rule:nonzero;fill:#806e5a;fill-opacity:1"/><path d="M16.566 37.934c.047.234-.117.644-.18.875-.007-.016-.011-.02-.019-.047-.078-.282.055-.59.2-.828m0 0" style="stroke:none;fill-rule:nonzero;fill:#325872;fill-opacity:1"/><path d="M36.824 34.734c.285.008.57 0 .856.024-.149.027-.32.031-.465.074.09-.012.183-.031.273-.031-.285.058-.902.039-1.203.011.137-.078.371.004.54-.078m0 0" style="stroke:none;fill-rule:nonzero;fill:#0d4b72;fill-opacity:1"/><path d="m32.055 44.2.172.163a.53.53 0 0 1-.192.278l-.133-.114c.043-.117.082-.218.153-.328m0 0" style="stroke:none;fill-rule:nonzero;fill:#0782ae;fill-opacity:1"/><path d="M32.504 43.902c.11.098.281.2.355.325.004.078-.015.086-.066.144l-.043.004-.281-.266Zm0 0" style="stroke:none;fill-rule:nonzero;fill:#c9d1d1;fill-opacity:1"/><path d="M17.926 44.695c.09.008.187 0 .262.059.058.09.05.207.058.309l-.34-.094Zm0 0" style="stroke:none;fill-rule:nonzero;fill:#325872;fill-opacity:1"/><path d="m25.148 6.188.063-.024q.03.036.055.07c-.024.145-.075.332-.196.426-.03.027-.05.02-.09.024-.054-.028-.058-.036-.085-.09.09-.133.171-.27.253-.407m0 0" style="stroke:none;fill-rule:nonzero;fill:#0d4b72;fill-opacity:1"/><path d="M26.313 6.867c.238-.187.437-.398.632-.629l.047.157c.024.011.043.02.067.027-.211.21-.465.348-.747.445m0 0" style="stroke:none;fill-rule:nonzero;fill:#325872;fill-opacity:1"/><path d="m22.926 45.879.105.004c.008.277-.008 1.148.074 1.355l-.097-.011c-.008-.45-.059-.903-.082-1.348m0 0" style="stroke:none;fill-rule:nonzero;fill:#0782ae;fill-opacity:1"/><path d="M32.227 44.363c.105.07.199.149.296.23-.082.09-.16.18-.242.266-.082-.07-.176-.136-.246-.218a.53.53 0 0 0 .192-.278m0 0" style="stroke:none;fill-rule:nonzero;fill:#0d4b72;fill-opacity:1"/><path d="M31.297 37.375c.101.203.324.613.34.832l-.012.031c-.07-.011-.117-.074-.16-.125-.059-.078-.176-.273-.195-.37.015-.122.011-.247.027-.368M28.61 14.79c-.243-.177-.551-.33-.739-.563-.031-.04-.055-.067-.05-.118l.034.004c.047.098.47.227.586.325.051.12.102.234.168.351m0 0" style="stroke:none;fill-rule:nonzero;fill:#7291a0;fill-opacity:1"/><path d="M25.91 5.871c.02.184.031.383-.09.54-.039.05-.093.077-.148.109l-.043-.008c-.067-.074.074-.235.031-.336h-.02c-.042.105-.078.234-.152.32l-.035-.008c.078-.156.129-.304.172-.472.082.015.156.046.238.043.047-.063.04-.11.047-.188M27.605 4.398c.176.262.149.68.086.98a1.5 1.5 0 0 1-.183.481l-.043-.093c.176-.391.2-.953.14-1.368m0 0" style="stroke:none;fill-rule:nonzero;fill:#4d595f;fill-opacity:1"/><path d="M27.129 5.957c.039.035.039.035.09.04.105-.052.172-.15.246-.231l.043.093c-.125.211-.266.391-.45.563a1 1 0 0 1-.066-.027l-.047-.157c.067-.09.125-.187.184-.281m0 0" style="stroke:none;fill-rule:nonzero;fill:#64767e;fill-opacity:1"/><path d="m31.508 37.191.047-.093c-.02-.07-.035-.118-.004-.188l.012.016c.117.254.402.515.351.816l-.031.035c-.082-.023-.13-.097-.168-.168a2.5 2.5 0 0 1-.207-.418m0 0" style="stroke:none;fill-rule:nonzero;fill:url(#a)"/><path d="m21.14 43.773.07.024c.013.41.024.824.08 1.234a.3.3 0 0 1-.134-.031 3.2 3.2 0 0 1-.015-1.227m0 0" style="stroke:none;fill-rule:nonzero;fill:#806e5a;fill-opacity:1"/><path d="M14.86 33.953c.093-.426.285-.945.488-1.328.058.004.086.04.129.074-.192.367-.356.953-.618 1.254m0 0" style="stroke:none;fill-rule:nonzero;fill:#fefefe;fill-opacity:1"/><path d="M15.625 32.262c.238.16.559.433.852.465l.011.34c-.175-.145-.363-.274-.539-.419-.105-.086-.312-.25-.324-.386m0 0" style="stroke:none;fill-rule:nonzero;fill:#0d4b72;fill-opacity:1"/><path d="M32.813 43.422c.164.066.3.258.445.363l-.2.2c-.163-.133-.343-.274-.48-.438.106-.02.164-.04.234-.125M18.578 43.219l.086.023c.008.012.02.02.023.035.02.075-.035.383-.042.48-.028.321-.024.65-.024.973l-.121-.05c-.094-.258.023-1.168.078-1.461m0 0" style="stroke:none;fill-rule:nonzero;fill:#325872;fill-opacity:1"/><path d="M24.559 4.676c.332.172.539.488.652.84.066.214.09.433.062.66l-.003.035-.004.023q-.025-.034-.055-.07l-.063.024c-.054-.02-.05-.02-.082-.063A.4.4 0 0 0 25.113 6c.078-.363-.14-.777-.351-1.062-.059-.075-.133-.141-.18-.223zm0 0" style="stroke:none;fill-rule:nonzero;fill:#4d595f;fill-opacity:1"/><path d="M24.844 24.18c.289-.332.64-.598.972-.883-.054.2-.101.398-.136.605-.02.118-.02.274-.055.383l-.05-.066c.007-.102.038-.25-.032-.336l-.016-.016-.015-.012q-.01-.003-.02-.007-.012-.002-.02-.004c-.132-.02-.32.117-.402.207-.078.078-.097.156-.105.262l-.031-.09Zm0 0" style="stroke:none;fill-rule:nonzero;fill:#325872;fill-opacity:1"/><path d="M18.45 5.688a1.6 1.6 0 0 1-.372-.36c.094.07.188.14.29.192.5.246 1.015.105 1.515-.06q-.017.015-.028.028c-.058.055-.16.078-.234.106.04.027.129.015.18.008.09-.016.226-.086.312-.051l.012.027c-.512.156-.996.309-1.527.145a1 1 0 0 0-.149-.035m0 0" style="stroke:none;fill-rule:nonzero;fill:url(#b)"/><path d="M24.965 24.313c.008-.106.027-.184.105-.262.082-.09.27-.227.403-.207q.006.002.02.004c.007.004.01.004.019.007l.015.012.016.016c.07.086.039.234.031.336-.066.152-.144.207-.285.289l-.082-.016c-.035-.008-.078-.012-.11-.023-.074-.032-.1-.09-.132-.157m0 0" style="stroke:none;fill-rule:nonzero;fill:#011e45;fill-opacity:1"/><path d="M27.7 10.355a1 1 0 0 1 .097.02l.023.047-.043.105.02.032c.262.039.558-.016.828 0-.012.492-.078.949-.227 1.418.028-.317.094-.602.094-.926 0-.114-.02-.227-.035-.34-.2-.055-.531-.137-.73-.07-.11.222-.247.504-.29.746-.007.035.004.015-.035.047l-.03-.024q.012-.058.019-.117c.054-.324.234-.598.3-.914q.004-.012.008-.024m0 0" style="stroke:none;fill-rule:nonzero;fill:#325872;fill-opacity:1"/><path d="M26.41 3.262c.348.133.844.508.988.863.012.035.012.043.02.074a3 3 0 0 0-.012.266l-.02-.008-.046-.094c-.004 0 .02.715 0 .864-.082-.243-.043-.547-.11-.805-.09-.344-.28-.61-.535-.856-.086-.082-.199-.168-.261-.27zm0 0" style="stroke:none;fill-rule:nonzero;fill:#708896;fill-opacity:1"/><path d="m17.45 44.977.284.09c-.082.335-.18.675-.242 1.015l-.32-.117c.137-.113.223-.793.277-.988m0 0" style="stroke:none;fill-rule:nonzero;fill:#325872;fill-opacity:1"/><path d="M25.582 18.328c.129.36.129.594-.035.95-.082.167-.168.34-.262.503-.11-.062-.144-.164-.195-.273.23-.38.441-.73.492-1.18m0 0" style="stroke:none;fill-rule:nonzero;fill:#a0b4bc;fill-opacity:1"/><path d="M25.953 10.262c.055.023.059.023.09.078.004.39-.809 1.933-1.047 2.293-.039.008-.016.008-.062-.024a.3.3 0 0 1 .039-.168c.152-.363.351-.714.523-1.074s.313-.734.457-1.105m0 0" style="stroke:none;fill-rule:nonzero;fill:#fefefe;fill-opacity:1"/><path d="m15.047 30.988.02.024c.218.343.359.683.636.992.215.238.61.476.774.723-.293-.032-.614-.305-.852-.465a1.53 1.53 0 0 1-.562-1.082c-.004-.063-.012-.13-.016-.192m0 0" style="stroke:none;fill-rule:nonzero;fill:#708896;fill-opacity:1"/><path d="M26.297 43.086c.055 0 .101.008.156.016.078.214.274 1.074.207 1.265l-.078.031-.266.075c-.015-.364-.109-.957-.086-1.282.004-.066.016-.066.067-.105m0 0" style="stroke:none;fill-rule:nonzero;fill:#0782ae;fill-opacity:1"/><path d="m27.418 4.2.062.062.051-.02c.047.051.055.094.074.156.06.415.036.977-.14 1.368-.074.082-.14.18-.246.23-.051-.004-.051-.004-.09-.039.117-.246.18-.46.21-.73.02-.149-.003-.864 0-.864l.048.094.02.008q0-.133.011-.266m0 0" style="stroke:none;fill-rule:nonzero;fill:#929291;fill-opacity:1"/><path d="M15.98 30.664c.22.563.348 1.078.477 1.664-.371-.281-.96-.758-1.121-1.2.273.157.531.403.785.59-.035-.335-.176-.722-.14-1.054m0 0" style="stroke:none;fill-rule:nonzero;fill:#325872;fill-opacity:1"/><path d="M26.89 8.602c-.011-.07-.027-.145-.015-.215.008-.078.05-.117.113-.16l.082.214c.176.426.414 1.02.48 1.47-.038.042-.077.042-.132.042-.043 0-.082-.004-.125-.004-.082-.082-.348-1.148-.402-1.347m0 0" style="stroke:none;fill-rule:nonzero;fill:#fefefe;fill-opacity:1"/><path d="M27.309 17.234c-.235.649-.364 1.192-.989 1.578.172-.468.375-.917.532-1.394.148-.066.308-.125.457-.184m0 0" style="stroke:none;fill-rule:nonzero;fill:#325872;fill-opacity:1"/><path d="M14.867 35.297c.34-.149 1.426-.598 1.742-.5.051.016.051.05.07.094-.148.078-.324.125-.484.18-.52.175-1.043.34-1.468.699-.012-.22.02-.293.14-.473m0 0" style="stroke:none;fill-rule:nonzero;fill:#7291a0;fill-opacity:1"/><path d="m16.68 34.89.023.348c-.492.106-1.094.196-1.52.48-.136.094-.25.22-.382.317-.024-.082-.04-.183-.074-.265.425-.36.949-.524 1.468-.7.16-.054.336-.101.485-.18m0 0" style="stroke:none;fill-rule:nonzero;fill:#325872;fill-opacity:1"/><path d="M26.355 3.836c.223.137.348.445.407.695.101.418.035.828-.188 1.196-.02-.118-.031-.247-.058-.364a2.4 2.4 0 0 0-.184-.629c-.121-.3-.324-.543-.535-.785.394.211.594.457.82.836-.039-.34-.156-.629-.262-.95m0 0" style="stroke:none;fill-rule:nonzero;fill:#929291;fill-opacity:1"/><path d="M19.285 20.344q.113.214.25.418.135.2.293.383c.012.277.531.566.535.68a.7.7 0 0 1-.117-.09l-.039.007c-.043.082-.043.176-.05.266a2.14 2.14 0 0 1-.759-.727c-.203-.328-.199-.574-.113-.937m0 0" style="stroke:none;fill-rule:nonzero;fill:#a0b4bc;fill-opacity:1"/><path d="M32.969 33.633c.093.05.304.488.386.605.086.121.192.23.293.336-.078.246-.21.485-.32.719l-.137.324a10.6 10.6 0 0 1-.222-1.984m0 0" style="stroke:none;fill-rule:nonzero;fill:#c9d1d1;fill-opacity:1"/><path d="m30.094 42.531.097-.191c.704.441 1.754.95 2.313 1.562l-.035.207c-.746-.566-1.532-1.156-2.375-1.578m0 0" style="stroke:none;fill-rule:nonzero;fill:#fefefe;fill-opacity:1"/><path d="M34.219 34.883c.172-.028.293-.133.46-.156.536-.075 1.579-.024 2.145.007-.168.082-.402 0-.539.078-.418.02-.945 0-1.344.13.04.046.079.066.13.093-.387.11-.743.352-1.133.41q.152-.272.28-.562m0 0" style="stroke:none;fill-rule:nonzero;fill:#0d4b72;fill-opacity:1"/><path d="M24.71 3.71c.188.056.372.122.556.188.16.098.324.196.46.325.153.168.286.332.395.53l.043.009a.26.26 0 0 1 .035.129l.028.011.093-.105.012-.063c.094.207.148.407.184.63-.078.19.004.374-.094.558l-.078.066-.032-.011c-.019.027-.042.05-.066.078-.043-.051-.062-.98-.355-1.352-.227-.441-.782-.726-1.18-.992m0 0" style="stroke:none;fill-rule:nonzero;fill:url(#c)"/><path d="m26.121 4.754.043.008a.26.26 0 0 1 .035.129l.028.011.093-.105.012-.063c.094.207.148.407.184.63-.078.19.004.374-.094.558l-.078.066-.032-.011a2.85 2.85 0 0 0-.19-1.223m0 0" style="stroke:none;fill-rule:nonzero;fill:#02173b;fill-opacity:1"/><path d="M26.332 4.734c.094.207.148.407.184.63-.078.19.004.374-.094.558-.004-.258-.152-.977-.102-1.125Zm0 0" style="stroke:none;fill-rule:nonzero;fill:#0d4b72;fill-opacity:1"/><path d="M21.629 45.332q.526.005 1.05.004c0 .191.032.387.055.578-.254.008-.828-.027-1.035.023a.7.7 0 0 0-.023.184c-.047-.246-.031-.539-.047-.789m0 0" style="stroke:none;fill-rule:nonzero;fill:#325872;fill-opacity:1"/><path d="M15.082 23.492c.309-.36.668-.68 1.027-.98.07.14.145.285.196.437l-.024.043c-.37.317-.77.61-1.136.934-.032-.14-.043-.29-.063-.434m0 0" style="stroke:none;fill-rule:nonzero;fill:#fefefe;fill-opacity:1"/><path d="M26.844 39.855c.176.395.367.786.515 1.192-.203.094-.41.187-.62.258a10 10 0 0 1-.223-1.133c.109-.106.222-.207.328-.317m0 0" style="stroke:none;fill-rule:nonzero;fill:#a0b4bc;fill-opacity:1"/><path d="M33.246 43.3c-.75-.648-1.605-1.214-2.441-1.75-.059-.038-.117-.073-.133-.144.027-.062.035-.074.09-.11.375.071 2.258 1.544 2.61 1.872ZM31.508 37.191c-.324-.543-.59-1.125-.89-1.675-.274-.504-.61-1.008-.845-1.524-.039-.086-.066-.152-.043-.242.043-.035.036-.047.094-.04.207.294.36.634.535.946q.628 1.11 1.192 2.254c-.031.07-.016.117.004.188Zm0 0" style="stroke:none;fill-rule:nonzero;fill:#fefefe;fill-opacity:1"/><path d="M18.941 15.887c.012.101.02.207.032.308l-.809.61c-.215.047-.309.191-.477.308-.078.051-.175.055-.25.11-.28.203-.542.593-.73.879-.102.156-.512.992-.586 1.043q.004-.012.008-.024c.312-1.324 1.7-2.539 2.812-3.234m0 0" style="stroke:none;fill-rule:nonzero;fill:#a0b4bc;fill-opacity:1"/><path d="m31.27 37.742-1.465-2.765c-.137-.258-.461-.778-.551-1.016.027-.043.055-.04.105-.05.055.019.09.03.121.085.165.274.305.582.457.863.454.84.891 1.688 1.36 2.516-.016.121-.012.246-.027.367m0 0" style="stroke:none;fill-rule:nonzero;fill:#fefefe;fill-opacity:1"/><path d="m17.773 43.133.497.062c-.04.446-.063.887-.067 1.336l-.027.024-.067-.008q-.286-.076-.566-.164c.047-.418.14-.84.23-1.25m0 0" style="stroke:none;fill-rule:nonzero;fill:#325872;fill-opacity:1"/><path d="m27.148 41.984.567-.187c.078.137.16.273.226.418a8.5 8.5 0 0 1-2.43.586c.4-.207 1.364-.574 1.637-.817m0 0" style="stroke:none;fill-rule:nonzero;fill:#a0b4bc;fill-opacity:1"/><path d="M29.684 27.379q.07-.005.148-.004c.05.043.047.047.063.117-.06.067-.16.078-.25.094-.415.059-.848.059-1.266.102-.7.074-1.395.16-2.094.257-.066.012-.101.024-.168-.004-.027-.062-.027-.074-.02-.148.184-.133 3.145-.387 3.587-.414m0 0" style="stroke:none;fill-rule:nonzero;fill:#fefefe;fill-opacity:1"/><path d="M15.477 32.7c.195.16.386.327.59.472-.391.223-.66.7-.899 1.078-.059.098-.113.21-.184.297-.074-.172-.195-.406-.125-.594.262-.3.426-.887.618-1.254m0 0" style="stroke:none;fill-rule:nonzero;fill:#7291a0;fill-opacity:1"/><path d="M26.145 3.52c.382.242.726.668.82 1.12.094.434-.055.907-.297 1.27-.27.406-.66.606-1.133.695a.6.6 0 0 1-.183.012c.007-.058.054-.09.097-.125q.002-.005.004-.004l.035.008c.075-.086.11-.215.153-.32h.02c.042.101-.099.261-.032.336l.043.008a.4.4 0 0 0 .277-.118c.246-.27.094-1.011.024-1.332-.024-.105-.082-.226-.082-.332v-.035c.293.371.312 1.3.355 1.352.024-.028.047-.051.067-.078l.03.011.079-.066c.098-.184.015-.367.094-.559.027.117.039.246.058.364.223-.368.29-.778.188-1.196-.059-.25-.184-.558-.407-.695-.085-.094-.148-.207-.21-.316M18.766 18.188c.172-.192.343-.383.511-.583q.03.582.164 1.145c-.242.27-.41.52-.558.848-.43-.63-.012-1.16-.117-1.41m0 0" style="stroke:none;fill-rule:nonzero;fill:#325872;fill-opacity:1"/><path d="M38.656 31.82c.13.41.746 2.356.653 2.637l-.118.078c-.336-.683-.543-1.437-.84-2.14.114-.188.215-.375.305-.575m0 0" style="stroke:none;fill-rule:nonzero;fill:#fefefe;fill-opacity:1"/><path d="M30.492 41.75c.848.438 1.594 1.059 2.32 1.672-.07.086-.128.105-.234.125-.687-.563-1.488-1.016-2.262-1.453Zm0 0" style="stroke:none;fill-rule:nonzero;fill:#17acd2;fill-opacity:1"/><path d="M16.406 35.629c.012.066.008.09-.039.14-.16.188-.402.34-.59.5-.37.31-.609.84-.707 1.305-.027.121-.027.25-.054.371-.11-.508-.262-1.105.02-1.586.288-.484.87-.597 1.37-.73m0 0" style="stroke:none;fill-rule:nonzero;fill:#7291a0;fill-opacity:1"/><path d="M29.828 43.113c.05-.105.102-.21.168-.308.7.3 1.496.883 2.059 1.394-.07.11-.11.211-.153.328-.32-.222-.625-.476-.945-.703-.363-.258-.746-.484-1.129-.71m0 0" style="stroke:none;fill-rule:nonzero;fill:#17acd2;fill-opacity:1"/><path d="M24.348 32.258q.214 1.014.476 2.012c-.074.27-.246.574-.39.808-.059-.226-.063-.488-.09-.723-.051-.375-.117-.75-.176-1.12-.023-.157-.031-.38-.102-.52.082-.16.184-.305.282-.457m0 0" style="stroke:none;fill-rule:nonzero;fill:#a0b4bc;fill-opacity:1"/><path d="M29.21 41.133c.15.222.263.48.395.715-.168.402-.363.797-.52 1.207-.183-.36-.382-.72-.538-1.09.258-.227.48-.54.664-.832m0 0" style="stroke:none;fill-rule:nonzero;fill:#0d4b72;fill-opacity:1"/><path d="M25.137 35.297c.168.453.332.926.457 1.39-.164.352-.336.731-.578 1.032-.016-.172 0-.356 0-.532-.008-.476-.094-.972-.313-1.398Zm0 0" style="stroke:none;fill-rule:nonzero;fill:#a0b4bc;fill-opacity:1"/><path d="m29.855 27.797.028.023a.7.7 0 0 1 0 .22c-.043.046-.809.093-.93.105-.945.085-1.883.234-2.828.335l-.027-.027c-.008-.066-.024-.133 0-.2a.4.4 0 0 1 .18-.073c.308-.067.64-.063.952-.102a74 74 0 0 1 2.625-.281m0 0" style="stroke:none;fill-rule:nonzero;fill:#7291a0;fill-opacity:1"/><path d="M16.406 35.629c.114-.024.223-.04.336-.05.02.144.031.28.031.429l-.152.094q-.076.053-.148.105c-.047.04-.098.074-.145.113l-.137.117c-.043.04-.09.083-.132.126q-.062.063-.125.128-.06.069-.118.137-.06.07-.113.14c-.039.052-.074.098-.105.15a3 3 0 0 0-.192.308q-.045.076-.086.16-.041.075-.078.164l-.07.164c-.02.059-.04.113-.059.172q-.03.089-.054.172c-.016-.098-.043-.211-.043-.313.027-.12.027-.25.054-.37.098-.466.336-.997.707-1.305.188-.16.43-.313.59-.5.047-.051.051-.075.04-.141m0 0" style="stroke:none;fill-rule:nonzero;fill:#0d4b72;fill-opacity:1"/><path d="M31.05 46.516c-.214-.22-.515-.399-.76-.586-.595-.453-1.208-1.13-1.517-1.817-.035-.07-.05-.12-.02-.191l.063-.012c.102.063.2.258.274.356.215.28.441.554.691.804.52.516 1.149.856 1.703 1.317Zm0 0" style="stroke:none;fill-rule:nonzero;fill:#0782ae;fill-opacity:1"/><path d="M28.055 4.54c.222.331.37.706.3 1.116-.085.469-.492.934-.878 1.192-.372.246-.825.312-1.262.308.387-.125.687-.222.992-.508.102-.093.203-.234.316-.312.274-.36.442-.75.524-1.191q.013-.307.008-.606m0 0" style="stroke:none;fill-rule:nonzero;fill:url(#d)"/><path d="m28.152 5.121.012-.016c.016.332-.012.606-.18.903-.004-.301.086-.598.168-.887m0 0" style="stroke:none;fill-rule:nonzero;fill:#c9d1d1;fill-opacity:1"/><path d="m28.047 5.145.105-.024c-.082.29-.172.586-.168.887a.9.9 0 0 1-.316.308q-.023-.001-.047.004c-.031 0-.058.012-.09.016h-.008c.274-.36.442-.75.524-1.191m0 0" style="stroke:none;fill-rule:nonzero;fill:#64767e;fill-opacity:1"/><path d="M22.793 29.668q-.002-.018-.004-.035c-.027-.16.148-.867.188-1.086.109-.621.402-2.91.707-3.332-.012.281-.036.558-.043.84-.008.3.007.613-.028.914-.07.62-.52 2.129-.82 2.699m0 0" style="stroke:none;fill-rule:nonzero;fill:#a0b4bc;fill-opacity:1"/><path d="m17.191 19.672.036-.02c.171-.703.386-1.07.886-1.593.2-.211.41-.41.649-.575l-.016.028c-.152.27-.367.504-.543.758-.406.601-.652 1.367-.601 2.093.02.313.214.692.18.98-.25-.386-.598-1.214-.59-1.671m0 0" style="stroke:none;fill-rule:nonzero;fill:#0d4b72;fill-opacity:1"/><path d="M26.934 10.691c.058.192.086.395.152.586.07.141.137.293.223.422.156.235.703.82.71 1.074l-.128.086c-.106.032-.184-.015-.278-.058-.496-.23-.746-.758-.925-1.235.039-.187.03-.808.042-.832Zm0 0" style="stroke:none;fill-rule:nonzero;fill:#edcbab;fill-opacity:1"/><path d="M27.086 11.277c.07.141.137.293.223.422.156.235.703.82.71 1.074l-.128.086c-.067-.093-.11-.203-.18-.3-.211-.301-.527-.606-.633-.961-.031-.106-.047-.223.008-.32m0 0" style="stroke:none;fill-rule:nonzero;fill:#fefefe;fill-opacity:1"/><path d="M21.422 16.09c.488.488 1.027.851 1.605 1.219.325.203.696.402.973.671-.082.301-.207.586-.336.872-.035-.133-.012-.278-.004-.41-.433-.606-2.164-1.715-2.238-2.352m0 0" style="stroke:none;fill-rule:nonzero;fill:#9f8468;fill-opacity:1"/><path d="M19.883 5.46c.875-.41 1.847-.57 2.781-.226a3.3 3.3 0 0 1 1.406 1.012c-.133.012-.316-.121-.43-.184-.699-.363-1.667-.804-2.46-.726-.356.031-.711.152-1.055.242l-.012-.027c-.086-.035-.222.035-.312.05-.051.008-.14.02-.18-.007.074-.028.176-.051.234-.106.008-.008.016-.02.028-.027m0 0" style="stroke:none;fill-rule:nonzero;fill:#708896;fill-opacity:1"/><path d="M29.7 43.523c.84.414 1.687.957 2.347 1.622-.145.25-.309.472-.5.687-.106-.062-.219-.121-.313-.195.094-.16.16-.34.215-.52-.52-.539-1.262-.851-1.851-1.312Zm0 0" style="stroke:none;fill-rule:nonzero;fill:#9f8468;fill-opacity:1"/><path d="M29.598 43.805c.59.46 1.332.773 1.851 1.312-.054.18-.12.36-.215.52-.703-.36-1.351-.895-1.78-1.559q.074-.137.144-.273m0 0" style="stroke:none;fill-rule:nonzero;fill:#edcba8;fill-opacity:1"/><path d="M23.7 28.29c.07.702.116 1.593.292 2.265-.336.945-.734 1.972-1.328 2.793a.2.2 0 0 1 .012-.114c.219-.57.472-1.12.668-1.703.07-.218.148-.441.18-.668.058-.402.054-1.613-.118-1.957.102-.203.2-.406.293-.617m0 0" style="stroke:none;fill-rule:nonzero;fill:#a0b4bc;fill-opacity:1"/><path d="M21.676 46.121a.7.7 0 0 1 .023-.184c.207-.05.781-.015 1.035-.023.036.43.07.856.125 1.281-.382-.008-.773-.078-1.152-.117 0-.32-.016-.637-.031-.957m0 0" style="stroke:none;fill-rule:nonzero;fill:#0782ae;fill-opacity:1"/><path d="M25.508 38.215c.156-.164.312-.324.433-.516.204.485.426.977.579 1.48-.301.442-.657.821-1.043 1.18.117-.668.394-1.5.03-2.144m0 0" style="stroke:none;fill-rule:nonzero;fill:#a0b4bc;fill-opacity:1"/><path d="M16.754 36.61c-.008.214-.008.445-.074.652-.121.367-.426.55-.532.984-.101.422.09.637.102 1.012.008.199-.16 1.14-.293 1.281-.055-.035-.055-.07-.078-.125.023-.187-.012-.406-.031-.594-.059-.566-.157-1.156-.024-1.722.114-.5.64-1.059.696-1.309q.002-.018.003-.035c.075-.059.149-.102.23-.145m0 0" style="stroke:none;fill-rule:nonzero;fill:#0d4b72;fill-opacity:1"/><path d="M22.285 4.004c.856-.027 1.57.18 2.274.672l.023.039c.047.082.121.148.18.223.21.285.43.699.351 1.062a.4.4 0 0 1-.047.125c-.113-.586-.593-1-1.07-1.32-.871-.594-1.719-.668-2.73-.473-.176.063-.508.203-.692.172.512-.281 1.121-.512 1.711-.5m0 0" style="stroke:none;fill-rule:nonzero;fill:#929291;fill-opacity:1"/><path d="M20.574 4.504c.512-.281 1.121-.512 1.711-.5l.024.043c.183.02.406-.004.578.05l.011.024c-.128.008-.246-.023-.375-.027-.39-.02-.894.039-1.25.195l-.011.027.004.016c-.176.063-.508.203-.692.172m0 0" style="stroke:none;fill-rule:nonzero;fill:#708896;fill-opacity:1"/><path d="M30.785 16.77c.402.332 1.02.918 1.074 1.468a1 1 0 0 1-.12.575c-.403-.184-.774-.418-1.184-.586.18-.485.277-.938.23-1.457m0 0" style="stroke:none;fill-rule:nonzero;fill:#fefefe;fill-opacity:1"/><path d="M16.523 36.754q-.002.018-.003.035c-.055.25-.582.809-.696 1.309-.133.566-.035 1.156.024 1.722.02.188.054.407.03.594q-.004-.012-.015-.023c-.332-.606-.793-1.61-.59-2.29.188-.64.688-1.038 1.25-1.347m0 0" style="stroke:none;fill-rule:nonzero;fill:#7291a0;fill-opacity:1"/><path d="M17.137 24.11c.152.136.281.324.406.48-.105.62-.258 1.23-.371 1.848-.172.921-.29 1.835-.379 2.769-.008.086-.008.176-.035.262-.074-.145-.043-.438-.047-.598-.008-1.48.14-3.308.426-4.762m0 0" style="stroke:none;fill-rule:nonzero;fill:url(#e)"/><path d="M28.457 44c.531.95.828 1.457 1.73 2.133.211.156.446.289.653.445l-.738.176c-.114-.254-.438-.5-.63-.707q-.432-.477-.859-.965c-.199.219-.383.445-.601.645.16-.582.332-1.133.445-1.727m0 0" style="stroke:none;fill-rule:nonzero;fill:#325872;fill-opacity:1"/><path d="M19.082 6.203c.184.02.398.016.574.07.574.016 1.14.055 1.711.118.73.078 1.48.359 2.192.547-1.528.09-3.133.117-4.477-.735m0 0" style="stroke:none;fill-rule:nonzero;fill:#4d595f;fill-opacity:1"/><path d="M19.656 6.273c.574.016 1.14.055 1.711.118l-.043.05.024.028q.018.01.03.015c-.39.047-1.312-.07-1.698-.175Zm0 0" style="stroke:none;fill-rule:nonzero;fill:#64767e;fill-opacity:1"/><path d="m21.785 11.184.004-.067c.055-.035 1.988-.11 2.09-.078a1 1 0 0 1 .07.031c.004.102-.133.149-.148.254a.17.17 0 0 0 .137.04c.148-.012.246-.16.332-.262l.109.691c-.184-.125-.363-.262-.555-.367.16.222.332.375.582.5.086.273.215.914.48 1.05.247.126.817-.093 1.071-.19l.04-.016-.017.16-.07.039q-.074.041-.148.078c-.227.094-.715.308-.957.195-.375-.176-1.125-1.512-1.29-1.914-.23-.047-.488-.027-.722-.035a6 6 0 0 1-1.008-.11m0 0" style="stroke:none;fill-rule:nonzero;fill:#b49c83;fill-opacity:1"/><path d="M16.066 33.172c.176.07.317.203.457.328q.048.459.114.918c-.54.117-1.008.309-1.516.508a1.2 1.2 0 0 1-.137-.38c.07-.085.125-.198.184-.296.238-.379.508-.855.898-1.078m0 0" style="stroke:none;fill-rule:nonzero;fill:#0d4b72;fill-opacity:1"/><path d="M20.988 13.422q.019.017.032.039c.16.207.414.84.546 1.117.149.309.29.652.504.918.575.7 2.098 1.164 2.97 1.305.581.094 1.53.199 2.038-.153.102-.074.211-.226.324-.27a.65.65 0 0 1-.113.313c-.168.223-.457.301-.719.34-1.363.2-3.383-.312-4.484-1.133a1.6 1.6 0 0 1-.356-.351c-.32-.465-.66-1.559-.742-2.125m0 0" style="stroke:none;fill-rule:nonzero;fill:#b49c83;fill-opacity:1"/><path d="M31.027 38.203q.159.304.282.621c-.29.48-.551.977-.82 1.469-.212.387-.442.762-.626 1.16a6.4 6.4 0 0 1-.41-.797c.14-.133.254-.324.363-.48.254-.352.52-.707.739-1.082.172-.29.312-.594.472-.89m0 0" style="stroke:none;fill-rule:nonzero;fill:#0d4b72;fill-opacity:1"/><path d="M19.95 4.055c.995-.575 2.238-.934 3.378-.625.735.199 1.902.722 2.3 1.398.184.309.255.688.282 1.043-.008.078 0 .125-.047.188-.082.003-.156-.028-.238-.043.035-.18.031-.36.012-.543-.063-.473-.293-.844-.672-1.133-.848-.645-2.008-.774-3.035-.63-.254.071-.504.161-.758.235a2 2 0 0 0-.332.028l.023-.012c-.101.012-.21.031-.312.023-.356.086-.637.23-.953.414.109-.113.27-.207.351-.343m0 0" style="stroke:none;fill-rule:nonzero;fill:#708896;fill-opacity:1"/><path d="M20.55 3.984c.415-.136.95-.28 1.38-.273-.254.07-.504.16-.758.234a2 2 0 0 0-.332.028l.023-.012c-.101.012-.21.031-.312.023M22.059 43.605q.49.007.98-.023.488-.025.977-.078.487-.051.968-.133.487-.076.961-.184c.035.442.078.887.082 1.333-.273.05-.547.117-.824.156l.031-.211c.008-.16.051-.5-.054-.63-.055-.065-.746 0-.883 0-.781-.003-1.473-.163-2.238-.23m0 0" style="stroke:none;fill-rule:nonzero;fill:#4d595f;fill-opacity:1"/><path d="M27.855 14.113c.844.125 1.696.95 2.184 1.602.336.45.43.863.348 1.418-.04.273-.11.55-.203.812-.204-.32-.391-1.332-.532-1.765l-.101.027c-.203-.574-.485-1.02-.942-1.418a3 3 0 0 1-.168-.351c-.117-.098-.539-.227-.586-.325m0 0" style="stroke:none;fill-rule:nonzero;fill:#fefefe;fill-opacity:1"/><path d="M28.441 14.438c.664.43.973 1.007 1.211 1.742l-.101.027c-.203-.574-.485-1.02-.942-1.418a3 3 0 0 1-.168-.351m0 0" style="stroke:none;fill-rule:nonzero;fill:url(#f)"/><path d="M31.91 19.578c.516.121.973.281 1.422.559-.39.238-.812.468-1.129.808-.312-.105-1.414-.36-1.574-.453q.655-.434 1.281-.914m0 0" style="stroke:none;fill-rule:nonzero;fill:#fefefe;fill-opacity:1"/><path d="M31.902 30.316c-.05-.308-.101-.613-.113-.925-.035-.938.164-2.207.34-3.137a7 7 0 0 1 .25-.95c.047-.148.129-.316.156-.464.008-.031 0-.059-.008-.09l-.027-.008-.035.07c-.028-.187.11-.312.133-.488.011-.074.02-.152.058-.215.055-.09.102-.187.149-.28l-.004.015.043.02-.051.011c-.031.129-.043.258-.078.387-.047.187-.192.468-.164.664.004.015.004.027.008.039-.059.351-.145.703-.204 1.055a14.6 14.6 0 0 0-.222 2.859c.242-.75 1.008-2.156 1.496-2.754.016.156-.07.25-.102.395-.101.207-.207.414-.304.62-.172.29-.313.598-.457.895-.371.758-.688 1.45-.864 2.281m0 0" style="stroke:none;fill-rule:nonzero;fill:#0d4b72;fill-opacity:1"/><path d="M20.125 5.578c.344-.09.7-.21 1.055-.242.793-.078 1.761.363 2.46.726.114.063.297.196.43.184.117.066.239.32.305.441-.926-.449-2.844-.992-3.84-.921-.32.023-.613.16-.926.21-.457.079-.789-.023-1.16-.288q.074.01.149.035c.53.164 1.015.011 1.527-.145m0 0" style="stroke:none;fill-rule:nonzero;fill:#325872;fill-opacity:1"/><path d="M30.555 18.227c.41.168.78.402 1.183.585-.414.692-1.984 1.418-2.718 1.825.671-.75 1.12-1.496 1.535-2.41m0 0" style="stroke:none;fill-rule:nonzero;fill:#708896;fill-opacity:1"/><path d="M28.11 42.652c.011.004.027.004.038.012.063.05.133.238.176.313q.175.326.403.613c-.434.258-.93.426-1.399.601l-.363.114c-.098-.426-.149-.871-.219-1.305.465-.098.918-.187 1.363-.348m0 0" style="stroke:none;fill-rule:nonzero;fill:#0d4b72;fill-opacity:1"/><path d="M20.664 37.79q-.012.015-.023.038c-.192.32-1.176.738-1.305.934-.035.054-.02.164-.008.222.008.036.016.082.047.102.18.125.824-.074 1.023-.129.204-.055.415-.14.622-.172-.602.488-1.887 1.04-2.63 1.246.09-.523.13-1.05.22-1.57.296-.078.593-.133.886-.223.399-.117.785-.285 1.168-.449m0 0" style="stroke:none;fill-rule:nonzero;fill:#a0b4bc;fill-opacity:1"/><path d="m33.523 26.762.07.023c-.413 1.297-1.015 2.735-.976 4.106q.621-.757 1.266-1.496c.152-.176.293-.375.457-.54l-.004.125c-.176.383-.457.711-.695 1.055-.38.543-.746 1.102-1.16 1.621-.118-.226-.254-.457-.336-.695-.243-.676.832-3.055 1.167-3.785.075-.137.149-.274.211-.414m0 0" style="stroke:none;fill-rule:nonzero;fill:#0d4b72;fill-opacity:1"/><path d="M24.332 7.223c.535.074 1.074.148 1.613.175.223.012.442-.015.664 0 .063.043.078.11.11.176a8.1 8.1 0 0 1-2.239-.027c-.293.16-.632.242-.914.418-.312.5-.14 1.101-.386 1.61-.242.507-.782.788-1.086 1.25-.106.019-.219.015-.324.019.168-.758.84-.813 1.144-1.403.215-.418.102-1.082-.031-1.511.441-.317.969-.473 1.449-.707m0 0" style="stroke:none;fill-rule:nonzero;fill:#b49c83;fill-opacity:1"/><path d="m30.992 24.168-.05.344c-.204 1.004.183 2.902.44 3.914.052-1.223.532-2.985 1.126-4.07.023.21-.473 1.601-.559 1.914-.285 1.02-.441 2.421-.457 3.48-.629-1.863-1.258-2.93-.758-4.984.04-.16.11-.508.258-.598m0 0" style="stroke:none;fill-rule:nonzero;fill:#0d4b72;fill-opacity:1"/><path d="M15 25.223a26.5 26.5 0 0 1 1.035 4.43c-.277-.7-.45-1.29-.625-2.02.02.976.281 2.094.57 3.031-.035.332.106.719.141 1.055-.254-.188-.512-.434-.785-.59q-.11-.16-.215-.324c.016-.184.066-.352.117-.528.028-.113.055-.23.07-.347.141.289.266.578.434.851.051.04.074.07.14.078-.007-.082-.058-.16-.089-.234-.164-.367-.258-.781-.348-1.168A16.8 16.8 0 0 1 15 25.223m0 0" style="stroke:none;fill-rule:nonzero;fill:#7291a0;fill-opacity:1"/><path d="M15.309 29.93c.14.289.265.578.433.851-.187-.086-.215-.343-.344-.492l-.011.012c.093.176.148.363.203.55-.149-.163-.25-.378-.352-.574.028-.113.055-.23.07-.347m0 0" style="stroke:none;fill-rule:nonzero;fill:#c9d1d1;fill-opacity:1"/><path d="M23.168 45.316c1.738-.117 3.406-.625 5.047-1.183-.059.617-.293 1.238-.422 1.847l-.008-.02c-.125-.292.02-.788-.14-1.01l-.032-.013.012.051-.012-.05c-.504-.04-1.394.277-1.914.402-.82.2-1.668.414-2.504.496 0 .164.012.34-.008.504-.035-.332-.015-.688-.019-1.024m0 0" style="stroke:none;fill-rule:nonzero;fill:#325872;fill-opacity:1"/><path d="M20.945 39.633c-.078.183-.324.363-.46.508-.547.554-1.337 1.27-1.708 1.93a8 8 0 0 0 1.149-.083c.437-.066 1.73-.386 2.031-.34-.527.243-1.137.375-1.691.536-.805.226-1.594.468-2.414.632l.199-1.234c.574-.32 1.144-.684 1.676-1.066.402-.29.8-.614 1.218-.883M18.867 43.281c.617.13 1.266.157 1.89.258-.003.11 0 .219-.019.328l-.015.235c-.004.3.004.59.047.886a32 32 0 0 1-1.918-.222 6 6 0 0 1 .015-1.485m0 0" style="stroke:none;fill-rule:nonzero;fill:#a0b4bc;fill-opacity:1"/><path d="M20.703 44.664h-.023c-.446-.05-1.047-.152-1.32-.543-.036-.05-.04-.086-.036-.148.113-.059 1.137-.16 1.309-.153.058 0 .066.004.105.047l-.015.235c-.043.18-.024.382-.02.562m0 0" style="stroke:none;fill-rule:nonzero;fill:#fefefe;fill-opacity:1"/><path d="M16.121 19.145c.074-.051.484-.887.586-1.043.188-.286.45-.676.73-.88.075-.054.172-.058.25-.109.168-.117.262-.261.477-.308-.926.836-1.8 1.898-1.86 3.203-.054 1.187.676 2.285 1.387 3.176.309.386.649.761.86 1.21.14.301.195.618.246.938-.344-.57-.758-1.043-1.16-1.562-1.004-1.293-1.973-2.817-1.547-4.52.008-.04.02-.07.031-.105m0 0" style="stroke:none;fill-rule:nonzero;fill:#7291a0;fill-opacity:1"/><path d="M25.09 19.508c.05.11.086.21.195.273-.629 1.121-1.785 2.102-3.031 2.457-.774.219-1.402.16-2.098-.23.008-.09.008-.184.051-.266l.04-.008c.038.036.07.063.116.09-.004-.113-.523-.402-.535-.68q.11.094.219.18.72.544 1.617.414c1.242-.175 2.684-1.246 3.426-2.23m0 0" style="stroke:none;fill-rule:nonzero;fill:#fefefe;fill-opacity:1"/><path d="M20.55 3.984c.102.008.212-.011.313-.023l-.023.012a2 2 0 0 1 .332-.028c-.563.293-1.352.676-1.766 1.157l.012.039c.363-.207.746-.543 1.156-.637.184.031.516-.11.692-.172 1.011-.195 1.859-.121 2.73.473.477.32.957.734 1.07 1.32.032.043.028.043.082.063q-.121.205-.253.406c-.032.047-.06.09-.098.133-.012-.008-.024-.008-.031-.016-.016-.02-.04-.098-.051-.125a2.8 2.8 0 0 0-.285-.512 3.7 3.7 0 0 0-1.067-1.02c-.898-.558-1.898-.468-2.883-.19-.242.07-.472.19-.714.245l-.032.008c-.324.168-.726.164-1.082.153.317-.477.758-.985 1.297-1.215-.082.136-.242.23-.351.343.316-.183.597-.328.953-.414m0 0" style="stroke:none;fill-rule:nonzero;fill:#325872;fill-opacity:1"/><path d="M16.305 22.95c.175.312.406.609.625.894-.11.297-.13.668-.168.98-.114.914-.153 1.844-.282 2.758-.035-.379-.05-.754-.109-1.129-.082-.562-.23-1.117-.387-1.664.063.824.23 1.621.23 2.453a14 14 0 0 1-.823-2.246c-.07-.262-.157-.535-.188-.805-.035-.074-.043-.183-.058-.265.367-.324.765-.617 1.136-.934Zm0 0" style="stroke:none;fill-rule:nonzero;fill:#708896;fill-opacity:1"/><path d="M15.145 23.926c.367-.324.765-.617 1.136-.934.012.27-.195.465-.367.653-.148.16-.312.285-.36.503a.12.12 0 0 1-.046.082c-.09-.082-.082-.242-.153-.343-.05.066-.02.207-.066.234-.016-.086 0-.168.016-.254a.26.26 0 0 0-.102.094c-.004.059.031.195 0 .23-.035-.074-.043-.183-.058-.265m0 0" style="stroke:none;fill-rule:nonzero;fill:#7291a0;fill-opacity:1"/><path d="M25.844 27.559c-.051-.825-.094-1.641.047-2.461.078-.461.21-.918.328-1.368.082-.308.148-.703.336-.964.136-.192 3.78-2.22 4.062-2.266-.14.32-1.808 1.293-2.164 1.535a4.4 4.4 0 0 0-.527.41c-1.13 1.055-1.805 3.5-1.84 5.028-.082.023-.16.054-.242.086m0 0" style="stroke:none;fill-rule:nonzero;fill:#0d4b72;fill-opacity:1"/><path d="M18.809 31.555q.45.352.914.699a9 9 0 0 0-.22 1.406c-.042.496-.07 2.473.142 2.8.156.243.84.653 1.117.731.015.008.031.008.047.012-.735.11-1.48-.101-2.086-.531-.082-1.7-.098-3.426.086-5.117m0 0" style="stroke:none;fill-rule:nonzero;fill:#a0b4bc;fill-opacity:1"/><path d="M21.684 43.605h.375c.765.067 1.457.227 2.238.23.137 0 .828-.065.883 0 .105.13.062.47.054.63l-.03.21c-.263.044-.556.122-.821.13-.582.101-1.168.199-1.762.215-.394.011-.969-.04-1.332.011-.055-.41-.066-.824-.078-1.234l.328-.05.004-.138a.3.3 0 0 0 .14-.004m0 0" style="stroke:none;fill-rule:nonzero;fill:#9f8468;fill-opacity:1"/><path d="M24.383 44.805c.113-.14.66-.266.851-.34l-.03.21c-.263.044-.556.122-.821.13m0 0" style="stroke:none;fill-rule:nonzero;fill:#806e5a;fill-opacity:1"/><path d="M21.543 43.61a.3.3 0 0 0 .14-.005c-.03.41-.027.817-.035 1.227a4.4 4.4 0 0 1-.109-1.086Zm0 0" style="stroke:none;fill-rule:nonzero;fill:#02173b;fill-opacity:1"/><path d="m29.55 16.207.102-.027c.141.433.328 1.445.532 1.765-.047.22-.192.473-.297.668-.707 1.297-1.996 2.293-3.133 3.203-.356.282-.723.555-1.055.864a8.7 8.7 0 0 0-1.246 1.484c.067-.207.184-.418.277-.613 1.012-2.063 3.137-3.008 4.235-4.883.41-.703.8-1.637.586-2.461m0 0" style="stroke:none;fill-rule:nonzero;fill:#708896;fill-opacity:1"/><path d="M19.125 21.367c.152.227.344.414.535.61-.074.18-.058.449-.066.64-.02.453-.035.91-.012 1.363.043.95.172 1.899.191 2.848.016.95-.101 1.89-.011 2.84.043.46.156.977.336 1.406.172.41.457.766.629 1.168-.23-.148-.438-.394-.61-.601-.398-.47-.98-1.426-1.086-2.043-.062-.368.082-.989.137-1.375.062-.477.125-.957.133-1.438.012-.824-.098-1.644-.16-2.465a18 18 0 0 1-.016-2.953m0 0" style="stroke:none;fill-rule:nonzero;fill:#a0b4bc;fill-opacity:1"/><path d="M18.852 45.016c.847.156 1.718.195 2.574.3l.035.606c.008.371.027.742.023 1.113-.48-.062-.968-.117-1.437-.242a25 25 0 0 1-2.379-.652c.02-.313.137-.723.242-1.02.293.07.586.129.89.152Zm0 0" style="stroke:none;fill-rule:nonzero;fill:#325872;fill-opacity:1"/><path d="M19.477 45.629c.46.055.93.082 1.386.148.203.032.39.118.598.145.008.371.027.742.023 1.113-.48-.062-.968-.117-1.437-.242.012-.04.008-.059-.008-.098-.047-.11-.137-.222-.2-.328a3.5 3.5 0 0 1-.362-.738M18.629 23.844c-.844-1.395-2.324-2.567-1.875-4.395.219-.89.86-1.668 1.539-2.262.23-.203.48-.378.715-.578l.027.008c0 .067-.043.117-.082.164-.168.184-.371.352-.547.528-.64.62-1.234 1.336-1.218 2.277l.003.086c-.007.457.34 1.285.59 1.672.059.148.133.281.219.414a7 7 0 0 1-.125-.742 7 7 0 0 1-.04-.75c.005-.864.325-1.477.93-2.078.106.25-.312.78.118 1.41-.258.859-.293 2.355-.281 3.289.003.316.027.636.027.957m0 0" style="stroke:none;fill-rule:nonzero;fill:#0782ae;fill-opacity:1"/><path d="M29.926 27.035c-.082-1.168-.18-2.984.125-4.105.004.633.039 1.238.09 1.867.02.246.023.504.078.742l.004.047c.023.375-.047.758-.008 1.137.047.425.148.855.23 1.273.082.406.149.813.258 1.211.274.996 1.016 3.066 1.66 3.86a9 9 0 0 0 .035 2.136c.059.402.153.809.188 1.211-.125.258-.246.531-.39.781-.153-.308-.301-.613-.473-.91.078-.414.238-.855.222-1.277-.03-.922-.918-2.969-1.246-3.89-.3-.856-.523-1.712-.672-2.606 0-.059 0-.098.028-.153.03-.062.062-.105.058-.18-.011-.261 0-.917-.148-1.12-.156-.047-.39-.004-.559-.012.172-.024.348-.016.52-.012m0 0" style="stroke:none;fill-rule:nonzero;fill:#0d4b72;fill-opacity:1"/><path d="M20.828 8.262c.727.09 1.328.074 2.012-.227-.02.586-.113 1.004-.55 1.418-.216.203-.442.387-.645.602-.16.199-.282.43-.399.656q-.451.006-.898.047c-.258.02-.59.086-.84.043l-.008-.028c.465-.238 1.031-.25 1.535-.382-.683-.188-1.316-.102-1.996.011.055-.066.172-.12.246-.168q-.007-.005-.02-.004c-.21.032-.456.293-.617.434.555-.863 1.704-.617 2.575-.96q.252-.137.492-.286c-.844.36-1.766.2-2.617.488-.504.168-.848.43-1.082.91a3.7 3.7 0 0 1 .636-1.617c.16-.273.325-.578.547-.8.203-.204.399-.274.68-.274.32.02.637.078.95.137m0 0" style="stroke:none;fill-rule:nonzero;fill:#325872;fill-opacity:1"/><path d="M18.652 9.2c.16-.274.325-.579.547-.802.203-.203.399-.273.68-.273.32.02.637.078.95.137-.224.136-.798-.028-1.165.148a1.4 1.4 0 0 0-.57.55c-.035.071-.067.192-.117.247-.07.07-.223.113-.313.148 0-.015 0-.035.008-.046Zm0 0" style="stroke:none;fill-rule:nonzero;fill:url(#g)"/><path d="M18.652 9.2c.16-.274.325-.579.547-.802.203-.203.399-.273.68-.273l-.031.031c-.114.094-.301.106-.43.18-.348.207-.527.648-.746.973Zm0 0" style="stroke:none;fill-rule:nonzero;fill:#4d595f;fill-opacity:1"/><path d="M20.594 8.578c.297-.039.617.07.91.113.183.028.363.024.55.02-.449.16-.906.238-1.378.289a8 8 0 0 1-1.434.102c.438-.172.89-.47 1.352-.524m0 0" style="stroke:none;fill-rule:nonzero;fill:#64767e;fill-opacity:1"/><path d="M28.352 15.418c.41.375.757.895.78 1.465.04.953-.71 1.933-1.327 2.594-.77.82-1.711 1.457-2.438 2.32.059-.735.23-1.426.54-2.094.132-.289.308-.59.413-.89.625-.387.754-.93.989-1.579.293-.218.488-.449.55-.824.04-.234.012-.473-.004-.707.645.64.864 1.383.926 2.27.14-.989.043-1.668-.43-2.555m0 0" style="stroke:none;fill-rule:nonzero;fill:#0782ae;fill-opacity:1"/><path d="M19.668 14.164c.11.082.215.156.344.203.258.094.511.055.754-.062.129.656.28 1.222.656 1.785.074.637 1.805 1.746 2.238 2.351-.008.133-.031.278.004.41-.273.649-.57 1.286-.922 1.899.672-.676 1.512-1.887 2.004-2.715.11.36.281.844.098 1.203-.102.203-.27.38-.426.543-.602.637-1.375 1.207-2.227 1.453l-.078.024c.457-.547.996-1.41.926-2.156-.066-.68-.687-1.137-1.102-1.622a7 7 0 0 1-.71-.968c-.286-.469-.426-.992-.57-1.52-.266-.113-.485-.195-.778-.187-.078.172-.168.351-.176.543-.027.675.168 1.422.285 2.086.242 1.359.344 2.394.844 3.707q.033.097.086.195a2.5 2.5 0 0 1-.566-.207c-.579-.383-.688-.875-.868-1.504.051-.098.118-.187.18-.277.074.382.148.773.277 1.144.09.258.204.465.457.59-.023-.027-.03-.035-.046-.066-.364-.575-.93-4.707-.922-5.45.004-.468.14-.945.238-1.402m0 0" style="stroke:none;fill-rule:nonzero;fill:#b49c83;fill-opacity:1"/><path d="M33.852 20.352c.578.71.988 1.585 1.382 2.406.301.617.59 1.234.864 1.86.675 1.589 1.25 3.226 1.816 4.855.148.433.606 1.515.57 1.914-.023.277-.144.574-.238.836-.008-.004-.02-.004-.027-.012-.004-.008-.38-1.277-.418-1.395a59 59 0 0 0-1.09-3.12c-.238-.622-.504-1.227-.762-1.84-.449-1.063-.902-2.106-1.433-3.133-.215-.418-.453-.961-.793-1.29a.4.4 0 0 0-.297-.124c-.867.043-1.793 1.488-2.074 2.187-.051.129-.317.992-.352 1.027l-.023-.015c.003.015 0 .031.003.047.004.015.012.027.016.043l-.008.011-.035-.015-.012-.082.051-.344c.223-.961.742-2.14 1.418-2.867.215-.23.469-.418.735-.586.222-.14.46-.274.707-.363m0 0" style="stroke:none;fill-rule:nonzero;fill:#fefefe;fill-opacity:1"/><path d="M16.617 8.941a2.9 2.9 0 0 1 .559-2.238c.168-.223.414-.516.703-.558.367-.055 1.137.488 1.476.648.31.144.633.273.961.36 1.227.327 2.551.23 3.797.085-.761.262-1.547.676-2.351.766-.23.027-.465.02-.696-.008-.418-.055-1.207-.293-1.566-.082-.305.176-.54.504-.762.77-.367.441-.754.886-1.008 1.406a2.5 2.5 0 0 0-.164.469c-.007-.762.301-1.489.625-2.16-.425.331-.703.789-.984 1.242.012-.145.113-.555.043-.664l-.059-.02c-.12.36-.238.691-.316 1.063-.105-.81.172-1.7.477-2.442-.13.04-.274.313-.336.43-.164.293-.32.605-.399.933m0 0" style="stroke:none;fill-rule:nonzero;fill:#325872;fill-opacity:1"/><path d="m17.352 7.578.023-.035c.184-.266.406-.95.738-1.043.352.02 1.016.566 1.297.805-.7.039-1.11.09-1.601.64-.188.207-.594.73-.618 1.012-.12.36-.238.691-.316 1.063-.105-.81.172-1.7.477-2.442m0 0" style="stroke:none;fill-rule:nonzero;fill:#64767e;fill-opacity:1"/><path d="M24.48 7.547a8.1 8.1 0 0 0 2.239.027c.09.215.187.43.27.653-.063.043-.106.082-.114.16-.012.07.004.144.016.215.054.199.32 1.265.402 1.347-.168.09-.242.254-.36.305-.085.039-.206.05-.3.074a1.1 1.1 0 0 0-.094-.273c-.07-.051-.144-.09-.219-.13-.36-.12-1.586-.12-1.902.04-.316.156-.57.531-.828.777q-.751.024-1.496.082c.304-.46.843-.742 1.086-1.25.246-.508.074-1.11.386-1.61.282-.175.622-.257.914-.417m0 0" style="stroke:none;fill-rule:nonzero;fill:#edcba8;fill-opacity:1"/><path d="M25.535 9.371c.293.043.692.047.883.309.078.11.102.246.121.375-.07-.051-.144-.09-.219-.13-.043-.16-.18-.292-.32-.374-.14-.086-.309-.13-.465-.18m0 0" style="stroke:none;fill-rule:nonzero;fill:#edcbab;fill-opacity:1"/><path d="M23.195 45.836c.836-.082 1.684-.297 2.504-.496.52-.125 1.41-.442 1.914-.403l.012.051-.012-.05.032.011c.16.223.015.719.14 1.012q.001.007.008.02a.3.3 0 0 0-.004.16c.098-.098.16-.29.223-.414.218-.2.402-.426.601-.645q.426.488.86.965c.191.207.515.453.629.707-.434.098-.875.18-1.317.254q-.661.105-1.328.176t-1.336.101c-.45.024-.894.031-1.344.028-.554-.004-1.117-.086-1.672-.075l.067-.035c.066-.242.02-.601.015-.863.02-.164.008-.34.008-.504m0 0" style="stroke:none;fill-rule:nonzero;fill:#0782ae;fill-opacity:1"/><path d="M19.879 14.805c.293-.008.512.074.777.187.145.528.285 1.051.57 1.52.204.34.45.664.712.968.414.485 1.035.942 1.101 1.622.07.746-.469 1.609-.926 2.156a4 4 0 0 1-.508.117c-.28-.754-.437-1.523-.664-2.293l-.043-.008c-.058-.27-.128-.535-.183-.804l-.027-.004c-.04.21.203.793.101.925.121.75.309 1.493.61 2.192-.157-.012-.329-.012-.481-.047a1.4 1.4 0 0 1-.086-.195c-.5-1.313-.602-2.348-.844-3.707-.117-.664-.312-1.41-.285-2.086.008-.192.098-.371.176-.543m0 0" style="stroke:none;fill-rule:nonzero;fill:#edcba8;fill-opacity:1"/><path d="M20.79 19.191c-.134-.59-.345-1.824-.29-2.425.055.515.16 1.047.273 1.55.055.254.133.508.168.766l-.043-.008c-.058-.27-.128-.535-.183-.804l-.027-.004c-.04.21.203.793.101.925m0 0" style="stroke:none;fill-rule:nonzero;fill:#02173b;fill-opacity:1"/><path d="m24.844 24.18.09.043.03.09c.032.066.06.125.134.156.03.011.074.015.109.023l.082.016c.14-.082.219-.137.285-.29l.051.067c-.25 1.293-.168 2.625-.059 3.93a37 37 0 0 0 .364 2.91q.117.72.27 1.441.15.717.331 1.426c.633 2.399 1.637 4.895 2.68 7.14-.184.294-.406.606-.664.833-.344-.606-.629-1.254-.926-1.887-.258-.55-.539-1.101-.77-1.664-.18-.434-.316-.883-.476-1.324-1.043-2.86-1.832-5.832-2.113-8.867-.094-.989-.18-2.02.023-3 .059-.403.317-.73.559-1.043m0 0" style="stroke:none;fill-rule:nonzero;fill:#708896;fill-opacity:1"/><path d="m24.844 24.18.09.043.03.09c.032.066.06.125.134.156.03.011.074.015.109.023l.082.016q-.012.002-.023.004c-.063.015-.153.031-.211-.012-.082-.066-.102-.191-.207-.21-.196.105-.395.5-.457.714-.008.031-.008.02-.004.058a1 1 0 0 1 .101-.085c.211-.149.102-.368.508-.317.113.012.184.043.254.133l.004.035-.027-.015c-.133-.079-.223-.16-.387-.114a.39.39 0 0 0-.242.2.45.45 0 0 0-.032.324c.016.047.036.074.063.113-.024.11-.055.219-.035.332a.4.4 0 0 0 .086.086l-.086.086-.012-.004-.09.008a.96.96 0 0 1-.148-.567l-.059-.054c.059-.403.317-.73.559-1.043m0 0" style="stroke:none;fill-rule:nonzero;fill:#64767e;fill-opacity:1"/><path d="M24.344 25.277c.02-.074.027-.148.09-.203.054.067.054.559.148.762l-.09.008a.96.96 0 0 1-.148-.567m0 0" style="stroke:none;fill-rule:nonzero;fill:#325872;fill-opacity:1"/><path d="M27.266 37.672c.043.012.086.02.125.035a.52.52 0 0 1 .261.285.42.42 0 0 1-.015.348c-.067.133-.176.168-.309.207q-.006-.005-.012-.004c-.043-.008-.086-.012-.128-.027a.53.53 0 0 1-.266-.286.43.43 0 0 1 .02-.351c.07-.129.195-.168.324-.207m0 0" style="stroke:none;fill-rule:nonzero;fill:#011e45;fill-opacity:1"/><path d="m27.262 38.008.039-.004c.058.023.086.031.105.094a.27.27 0 0 1-.02.199c-.046.066-.1.062-.175.082-.059-.055-.094-.094-.113-.176.015-.062.058-.09.105-.129l-.004.024.012.004Zm0 0" style="stroke:none;fill-rule:nonzero;fill:#0d4b72;fill-opacity:1"/><path d="M25.55 32.105c.075.008.145.02.216.06a.5.5 0 0 1 .222.308c.04.14.024.293-.054.418-.07.105-.145.14-.266.168-.086 0-.16.004-.238-.04a.44.44 0 0 1-.211-.269.56.56 0 0 1 .031-.426c.07-.133.16-.176.3-.219M24.629 25.336c-.027-.04-.047-.066-.063-.113a.45.45 0 0 1 .032-.325.39.39 0 0 1 .242-.199c.164-.047.254.035.387.113l.027.016a.74.74 0 0 1 .043.61c-.063.183-.207.414-.387.5a.37.37 0 0 1-.273.019c-.059-.02-.102-.07-.145-.113l.09-.008.012.004.086-.086a.4.4 0 0 1-.086-.086c-.02-.113.011-.223.035-.332m0 0" style="stroke:none;fill-rule:nonzero;fill:#011e45;fill-opacity:1"/><path d="M24.629 25.336c.133.027.258.039.39.043-.093.168-.156.273-.328.367l-.011.008a.4.4 0 0 1-.086-.086c-.02-.113.011-.223.035-.332m0 0" style="stroke:none;fill-rule:nonzero;fill:#7291a0;fill-opacity:1"/><path d="M17.781 25.121c.27.567.63 1.047.953 1.574-.027.813-.156 1.61-.254 2.41a49 49 0 0 0-.316 3.29 62 62 0 0 0-.066 2.824c.004.75.043 1.504.007 2.254-.02.468-.078.937-.144 1.402-.211 1.477-.555 2.93-.879 4.379-.184.809-.414 1.64-.488 2.469l-.578-.246c.07-.317.035-.766.047-1.094.027-.719.062-1.438.164-2.149.168-1.183.535-2.308.78-3.472.114-.52.145-1.043.2-1.567.035-.37.09-.742.098-1.117.027-.93-.18-1.875-.246-2.8a19 19 0 0 1-.051-.813 28 28 0 0 1-.024-1.625c.008-.27.016-.543.032-.813a28 28 0 0 1 .14-1.617q.047-.406.11-.805.06-.404.136-.8c.102-.559.2-1.145.38-1.684m0 0" style="stroke:none;fill-rule:nonzero;fill:#708896;fill-opacity:1"/><path d="M17.066 40.79c.118 0 .211.023.293.112.07.075.102.168.094.27-.008.148-.078.23-.18.328-.027.004-.046.008-.074.008a.26.26 0 0 1-.203-.07.31.31 0 0 1-.098-.231c-.011-.176.047-.293.168-.418M17.527 33.273c.047-.003.102-.011.153 0a.37.37 0 0 1 .207.168q.012.017.02.04a.1.1 0 0 1 .015.039l.012.039c.003.011.003.027.007.039v.08199999999999999q-.003.023-.007.043l-.012.039c-.031.105-.094.152-.188.207-.03.004-.05.004-.082.004a.3.3 0 0 1-.234-.106.36.36 0 0 1-.082-.273c.016-.149.074-.23.191-.32M17.66 36.96c.031 0 .067 0 .102.009.074.023.14.097.175.164.06.113.063.25.02.37-.039.118-.105.177-.215.227-.125-.03-.21-.07-.285-.18a.39.39 0 0 1-.05-.32c.042-.14.124-.203.253-.27M18.102 26.824a.44.44 0 0 1 .28.145.34.34 0 0 1 .075.27c-.02.183-.11.288-.246.398q-.024-.004-.055-.008a.35.35 0 0 1-.246-.137.4.4 0 0 1-.058-.308c.03-.172.113-.262.25-.36M17.688 29.832c.035.004.074.004.109.012.078.02.148.082.191.148a.48.48 0 0 1 .028.38c-.043.144-.118.214-.246.284a.5.5 0 0 1-.168-.035.44.44 0 0 1-.2-.23l-.011-.047-.012-.043q-.002-.023-.004-.047v-.047q.004-.023.008-.047.001-.023.008-.047.008-.018.015-.043.007-.02.02-.043c.058-.117.144-.152.262-.195m0 0" style="stroke:none;fill-rule:nonzero;fill:#011e45;fill-opacity:1"/><path d="m30.617 20.5.012-.008c.16.094 1.262.348 1.574.453-.172.262-.375.508-.55.766a8 8 0 0 0-.407.656c-.062.113-.125.227-.18.344q-.086.17-.168.348-.076.177-.148.355-.07.181-.133.363a7 7 0 0 0-.117.368q-.053.188-.102.375c-.078.324-.171.687-.18 1.02-.054-.24-.058-.497-.077-.743a25 25 0 0 1-.09-1.867c-.305 1.12-.207 2.937-.125 4.105-.172-.004-.348-.012-.52.012-.828.023-1.656.14-2.472.277-.278.043-.575.078-.848.149.035-1.528.71-3.973 1.84-5.028.164-.152.344-.285.527-.41.356-.242 2.024-1.215 2.164-1.535m0 0" style="stroke:none;fill-rule:nonzero;fill:#708896;fill-opacity:1"/><path d="M20.988 13.422c-.023-.047-.015-.043-.062-.07-.055.062-.047.16-.063.242-.027.164-.078.351-.23.445-.149.094-.348.098-.516.05-.441-.132-.988-.859-1.199-1.257-.18-.348-.25-.715-.129-1.098.066-.203.191-.406.39-.5.208-.101.458-.082.669 0 .414.168.98.676 1.218 1.051.067.106.11.23.16.348q.03-.058.06-.11c.112-.218.273-.382.41-.582.171-.254.144-.472.09-.757.331.062.667.101 1.007.109.234.008.492-.012.723.035.164.402.914 1.738 1.289 1.914.242.113.73-.101.957-.195q.073-.036.148-.078l.07-.04.016-.16c.14-.109.238-.285.336-.433.14-.254.266-.492.355-.77.18.477.43 1.004.926 1.235.094.043.172.09.278.058l.129-.086c0 .055.003.11 0 .165-.18.18-.512.398-.622.624l-.05-.003v.015q-.019.01-.032.02c-.05.027-.03.015-.07.058.012.121.05.266-.02.368-.085.043-.152.02-.242.007-.156.051-.543.18-.625.325a.03.03 0 0 0-.007.015c.117-.023.226-.133.347-.172.094-.058.207-.093.309-.136.086.03.152.082.246.093l.047-.043c.066.098.097.215.168.305-.125.05-.254.043-.383.05-.074.009-.148.013-.219.036l.203.016c-.082.011-.175.011-.254.046.086.079.309.04.426.094a1 1 0 0 1 .074.031l-.039.016c.078.027.172.043.235.102a.32.32 0 0 1-.012.246c-.05.097-.152.136-.25.156-.195.04-.45.02-.648.008.011.074.003.117.07.16.168.105.45-.012.598.137l.02.09c.038.257.085.515.112.777-.113.043-.222.195-.324.27-.508.351-1.457.246-2.039.152-.871-.14-2.394-.606-2.969-1.305-.215-.266-.355-.61-.504-.918-.132-.277-.386-.91-.546-1.117q-.013-.022-.032-.04m0 0" style="stroke:none;fill-rule:nonzero;fill:#edcba8;fill-opacity:1"/><path d="M26.535 13.617c.246.082.45.18.692.047q.009-.006.02-.012c.01.121.05.266-.02.368-.086.043-.153.02-.243.007l.09-.023c-.02-.152-.437-.207-.539-.387m0 0" style="stroke:none;fill-rule:nonzero;fill:#edcbab;fill-opacity:1"/><path d="m26.398 12.402.032.032a1 1 0 0 1 .097.109l.059.012c.05.047.086.09.125.144-.074-.011-.129-.027-.195.024-.082.058-.125.18-.164.27-.067.12-.07.226-.09.355a.3.3 0 0 1-.032-.055c-.074-.145-.015-.29.028-.434l.058-.093c.004-.082-.023-.157-.015-.235.008-.074.043-.082.097-.129m0 0" style="stroke:none;fill-rule:nonzero;fill:#cf9f7c;fill-opacity:1"/><path d="M26.352 12.992c.039-.09.082-.21.164-.27.066-.05.12-.034.195-.023q-.001.012-.008.024c-.023.035-.039.039-.074.054-.078.047-.184.153-.207.246a.26.26 0 0 0 .039.192c.039.055.062.074.129.09.129-.024.265-.192.394-.262l.516-.008c-.07.078-.672.32-.793.352-.086.023-.176.027-.246-.028-.106-.086-.102-.246-.11-.367m0 0" style="stroke:none;fill-rule:nonzero;fill:#02173b;fill-opacity:1"/><path d="M27.29 15.602c-.255.003-.524 0-.778.035l-.043.008-.012-.036.047-.023a2.2 2.2 0 0 0-.211-.504.3.3 0 0 1-.043-.105l.07.02c.11.062.2.12.282.218.011.074.003.117.07.16.168.105.45-.012.598.137Zm0 0" style="stroke:none;fill-rule:nonzero;fill:#cf9f7c;fill-opacity:1"/><path d="M26.367 14.871c-.176-.012-.629-.055-.75-.176l.02-.02c.113-.038 1.082-.175 1.23-.175l.203.016c-.082.011-.175.011-.254.046.086.079.309.04.426.094a1 1 0 0 1 .074.031l-.039.016a6 6 0 0 0-1.101.082c.066.027.133.055.191.086m0 0" style="stroke:none;fill-rule:nonzero;fill:#02173b;fill-opacity:1"/><path d="M27.5 13.035c.004-.004.008-.012.012-.015.113-.114.36-.09.508-.082-.18.18-.512.398-.622.624l-.05-.003v.015q-.019.01-.032.02c-.05.027-.03.015-.07.058l-.02.012c-.242.133-.445.035-.69-.047a.86.86 0 0 1-.274-.27c.02-.128.023-.234.09-.355.007.121.003.281.109.367.07.055.16.051.246.028.121-.032.723-.274.793-.352m0 0" style="stroke:none;fill-rule:nonzero;fill:#b49c83;fill-opacity:1"/><path d="M19.617 13.168c.176.129.469.219.59.402-.184-.027-.598-.289-.75-.402a1.2 1.2 0 0 1-.508-.844c-.027-.23.008-.472.164-.652a.58.58 0 0 1 .414-.203.69.69 0 0 1 .496.219c.442.449.274.656.29 1.16.007.199.21.316.34.441l-.005.035c-.023.004-.03.008-.058.004-.211-.02-.375-.156-.496-.316l-.02-.028c-.156.012-.336.04-.472.114Zm0 0" style="stroke:none;fill-rule:nonzero;fill:#02173b;fill-opacity:1"/><path d="m19.137 12.05.008-.019c.043-.133.105-.27.238-.332.129-.062.25-.027.375.02-.016.082-.035.164-.04.25-.202-.02-.378.086-.581.082m0 0" style="stroke:none;fill-rule:nonzero;fill:#b49c83;fill-opacity:1"/><path d="M19.758 11.719c.187.129.332.293.375.523.035.215-.024.383-.121.567l.062.175c-.156.012-.336.04-.472.114l.015.07c-.086-.055-.168-.105-.234-.18-.219-.246-.274-.547-.258-.863l.012-.074c.203.004.379-.102.582-.082.004-.086.023-.168.039-.25m0 0" style="stroke:none;fill-rule:nonzero;fill:#edcbab;fill-opacity:1"/><path d="M19.137 12.05c.203.005.379-.1.582-.081l.07.152-.117-.039c-.035.023-.035.016-.043.047-.024.09.004.203-.004.297-.008-.094-.012-.172-.086-.242-.102-.094-.285-.067-.414-.059Zm0 0" style="stroke:none;fill-rule:nonzero;fill:#cf9f7c;fill-opacity:1"/><path d="M19.758 11.719c.187.129.332.293.375.523.035.215-.024.383-.121.567-.094.07-.203.105-.313.144l-.02.024-.034-.008a.2.2 0 0 0-.047-.082.7.7 0 0 1 .054-.301c-.015-.05-.02-.106-.027-.16.008-.094-.02-.207.004-.297.008-.031.008-.024.043-.047l.117.04-.07-.153c.004-.086.023-.168.039-.25m0 0" style="stroke:none;fill-rule:nonzero;fill:#9f8468;fill-opacity:1"/><path d="M19.625 12.426c.008-.094-.02-.207.004-.297.008-.031.008-.024.043-.047l.117.04c.023.034.05.05.043.097-.02.11-.113.281-.18.367-.015-.05-.02-.106-.027-.16m0 0" style="stroke:none;fill-rule:nonzero;fill:#b49c83;fill-opacity:1"/><path d="M19.598 12.887q.017-.017.035-.028c.133-.113.094-.402.25-.457.058.032.062.043.094.102 0 .055 0 .105-.008.16-.086.098-.16.184-.282.238.004.043 0 .024.012.051l-.02.024-.034-.008a.2.2 0 0 0-.047-.082m0 0" style="stroke:none;fill-rule:nonzero;fill:#cf9f7c;fill-opacity:1"/><path d="M36.25 35.156a.3.3 0 0 1 .145-.047c.214-.007.433.024.648.036a8 8 0 0 0 .805-.012c.515-.035.972-.137 1.468-.274-.16.508-.406.926-.652 1.391q-.555 1.05-1.191 2.05a29 29 0 0 1-1.36 1.942c-.379.492-.789.957-1.183 1.434-.375.453-.735.922-1.164 1.328-.856-.742-1.914-1.402-2.903-1.961.09-.148.176-.305.282-.441.316-.52.59-1.063.875-1.598l1.203-2.223c.234-.437.437-.922.715-1.336.39-.058.746-.3 1.132-.41.395.004.785.106 1.18.121m0 0" style="stroke:none;fill-rule:nonzero;fill:#708896;fill-opacity:1"/><path d="M36.25 35.156a.3.3 0 0 1 .145-.047c.214-.007.433.024.648.036a8 8 0 0 0 .805-.012c.515-.035.972-.137 1.468-.274-.16.508-.406.926-.652 1.391q-.555 1.05-1.191 2.05a29 29 0 0 1-1.36 1.942c-.379.492-.789.957-1.183 1.434-.375.453-.735.922-1.164 1.328-.856-.742-1.914-1.402-2.903-1.961.09-.148.176-.305.282-.441.613.406 1.19.921 1.964.953 1.078.043 1.98-.746 2.723-1.434-.703-.05-1.71-.281-2.344-.613 1.457-.172 3.008-.551 4.043-1.668-.328.035-.656.12-.98.18-.715.128-1.543.156-2.25-.024 1.18-.277 2.148-.594 3.187-1.238.461-.29.871-.594 1.23-1.008-.878.125-2.398.223-3.253 0 .922-.02 2.015-.008 2.836-.477-.66.004-1.406.024-2.051-.117m0 0" style="stroke:none;fill-rule:nonzero;fill:#0d4b72;fill-opacity:1"/><path d="M30.027 28.512c.149.894.371 1.75.672 2.605.328.922 1.215 2.969 1.246 3.89.016.423-.144.864-.222 1.278-.602-.988-1.11-2.027-1.7-3.023-.406.215-.855.363-1.25.593.168.426.43.82.637 1.227.309.613.63 1.215.942 1.824.222.434.425.883.675 1.297-.16.297-.3.602-.472.89-.22.376-.485.731-.739 1.083-.109.156-.222.347-.363.48-1.484-3.164-2.691-6.476-3.172-9.953-.082-.582-.168-1.176-.187-1.765 1.3-.196 2.636-.215 3.933-.426M30.941 24.512l.012.082.035.015.008-.011c-.004-.016-.012-.028-.016-.043-.003-.016 0-.032-.003-.047l.023.015c.035-.035.3-.898.352-1.027.28-.7 1.207-2.144 2.074-2.187a.4.4 0 0 1 .297.125c.34.328.578.87.793 1.289.53 1.027.984 2.07 1.433 3.132.258.614.524 1.22.762 1.84a59 59 0 0 1 1.09 3.121c.039.118.414 1.387.418 1.395.008.008.02.008.027.012-.062.187-.125.375-.168.574l.274-.402c.296.703.503 1.457.84 2.14-.348.2-1.11.242-1.512.223-.285-.024-.57-.016-.856-.024-.566-.03-1.61-.082-2.144-.007-.168.023-.29.128-.461.156q.082-.187.172-.375c.761-.344 1.91-.574 2.742-.535.465.02.91.113 1.36.222a6 6 0 0 0-.313-.238c-.832-.586-1.953-.473-2.899-.305-.226.121-.695.27-.949.313.629-.363 1.504-.942 2.219-1.086.05-.008.062-.008.11-.04l-.024-.015c-.192.012-.407.102-.59.156-.762.223-1.48.454-2.195.797-.223-.246-.391-.543-.559-.832.793-.437 1.469-1.226 2.082-1.879.188-.203.477-.445.598-.699v-.05l-.051.046.008-.008c-.766.832-1.754 1.543-2.774 2.043.004-.105.02-.218 0-.32a1 1 0 0 1-.117-.066.2.2 0 0 0-.078-.043l-.125.082c-.047-.164 1.066-2.09 1.23-2.395.067-.183.313-.523.32-.683l-.05.007.004-.125c-.164.165-.305.364-.457.54q-.645.739-1.266 1.496c-.039-1.371.563-2.809.977-4.106l-.07-.023c.027-.102.042-.145.003-.242.032-.145.118-.239.102-.395-.488.598-1.254 2.004-1.496 2.754-.024-.977.058-1.895.222-2.86.06-.351.145-.703.204-1.054.152-.496.261-1.012.386-1.512-.164.285-.3.602-.437.902-.594 1.086-1.074 2.848-1.125 4.07-.258-1.01-.645-2.91-.442-3.913m0 0" style="stroke:none;fill-rule:nonzero;fill:#708896;fill-opacity:1"/><path d="M34.34 28.855c.133-.199.297-.39.45-.578-.083.235-.165.473-.259.7h-.047c-.168.203-.242.496-.418.68.067-.184.313-.524.32-.684l-.05.007Zm0 0" style="stroke:none;fill-rule:nonzero;fill:#0d4b72;fill-opacity:1"/><path d="M33.629 26.125q.189-.285.394-.559c-.132.41-.293.809-.43 1.22l-.07-.024c.028-.102.043-.145.004-.242.032-.145.118-.239.102-.395m0 0" style="stroke:none;fill-rule:nonzero;fill:#02173b;fill-opacity:1"/><path d="M34.066 29.656c.176-.183.25-.476.418-.68h.047c-.187.598-.504 1.169-.765 1.735-.192.418-.352.852-.582 1.25.921-.457 1.847-.945 2.625-1.633.218-.195.41-.422.62-.625-.3.914-1.046 1.77-1.699 2.457-.25.262-.554.528-.757.828 1.097.059 2.547-.3 3.632-.527-.363.2-2.195 1.023-2.332 1.164l.008.027c-.226.121-.695.27-.949.313.629-.363 1.504-.942 2.219-1.086.05-.008.062-.008.11-.04l-.024-.015c-.192.012-.407.102-.59.156-.762.223-1.48.454-2.195.797-.223-.246-.391-.543-.559-.832.793-.437 1.469-1.226 2.082-1.879.188-.203.477-.445.598-.699v-.05l-.051.046.008-.008c-.766.832-1.754 1.543-2.774 2.043.004-.105.02-.218 0-.32a1 1 0 0 1-.117-.066.2.2 0 0 0-.078-.043l-.125.082c-.047-.164 1.066-2.09 1.23-2.395m0 0" style="stroke:none;fill-rule:nonzero;fill:#0d4b72;fill-opacity:1"/><path d="M19.66 21.977a2.54 2.54 0 0 0 1.887.613c1.351-.11 2.598-.98 3.45-2l.233-.293c-.148.43-.289.863-.402 1.305-.078.293-.125.601-.219.886-.308.914-.746 1.77-.925 2.727-.305.422-.598 2.71-.707 3.332-.04.219-.215.926-.188 1.086q.002.018.004.035l-.094.266c.262-.329.492-.668.707-1.028.172.344.176 1.555.117 1.957-.03.227-.109.45-.18.668-.195.582-.448 1.133-.667 1.703a.2.2 0 0 0-.012.114c-.223.406-.473.808-.73 1.199-.2.3-.422.594-.602.91 1.02-.625 2.066-1.754 2.734-2.742.07.14.079.363.102.52.059.37.125.745.176 1.12.027.235.031.497.09.723-.317.73-.891 1.434-1.403 2.035a9 9 0 0 0 1.672-1.324c.219.426.305.922.313 1.398 0 .176-.016.36 0 .532-.692 1.047-1.618 1.87-2.551 2.695 1.344-.652 1.988-1.16 3.043-2.2.363.645.086 1.477-.031 2.145-.383.387-.805.707-1.235 1.04.207-.07.406-.149.606-.239q.293-.128.582-.285a8 8 0 0 0 1.086-.703c.054.375.125.766.222 1.133-.968.351-1.933.672-2.93.941-.406.106-.831.152-1.23.277.934.02 1.918-.02 2.84-.175.582-.098 1.152-.25 1.73-.364-.273.243-1.238.61-1.636.817-1.11.203-2.246.207-3.364.117-.488-.035-.976-.102-1.46-.133-.426-.023-.856-.015-1.278-.015.45-.122.93-.149 1.387-.258 1.015-.246 2.578-.957 3.344-1.668q-1.072.457-2.184.804c-.3-.046-1.594.274-2.031.34a8 8 0 0 1-1.149.082c.371-.66 1.16-1.375 1.707-1.93.137-.144.383-.324.461-.507.266-.27.582-.496.856-.758.637-.61 1.238-1.242 1.855-1.867-.312.148-.617.41-.906.61-.57.402-1.137.8-1.73 1.167-.207.031-.418.117-.622.172-.199.055-.843.254-1.023.129-.031-.02-.04-.066-.047-.102-.012-.058-.027-.168.008-.222.129-.196 1.113-.614 1.305-.934q.01-.023.023-.039c.504-.258.93-.61 1.348-.992-.39.168-.793.3-1.203.406-.016-.004-.032-.004-.047-.012-.278-.078-.961-.488-1.117-.73-.211-.328-.184-2.305-.141-2.8a9 9 0 0 1 .219-1.407c.511.363 1.129.527 1.734.656-.25-.215-.504-.426-.73-.668-.172-.402-.457-.758-.63-1.168a5 5 0 0 1-.335-1.406c-.09-.95.027-1.89.011-2.84-.02-.95-.148-1.898-.191-2.848-.023-.453-.008-.91.012-1.363.008-.191-.008-.46.066-.64m0 0" style="stroke:none;fill-rule:nonzero;fill:#fefefe;fill-opacity:1"/><path d="M24.133 22.094q.002.012.004.023c-.024.125-.274.387-.356.488-.886 1.11-1.933 2.094-3.148 2.832.004-.05 2.203-2.027 2.387-2.203.378-.363.765-.742 1.113-1.14m0 0" style="stroke:none;fill-rule:nonzero;fill:#011e45;fill-opacity:1"/></svg>